<?xml version="1.0" encoding="UTF-8"?><svg id="Layer_1" xmlns="http://www.w3.org/2000/svg" viewBox="0 0 1920 1080"><defs><style>.cls-1{fill:none;stroke:#c35f47;stroke-miterlimit:10;}</style></defs><g><path class="cls-1" d="m169.007,362.282c2.528,1.014,2.18,5.704,2.031,12.168-.093,4.055.319,8.121,0,12.168-.464,5.881.1,5.174,0,48.672-.098,42.517-.567,40.132,0,48.672,1.313,19.789,3.214,21.123,2.031,31.289-.872,7.495,1.005,15.114,0,22.598-.249,1.852-.898,6.092,2.031,8.691,1.411,1.253,3.903,2.347,6.093,1.738,2.885-.802,3.778-4.15,4.062-5.215,1.149-4.308-1.44-6.741,0-8.691,1.006-1.363,3.023-1.174,7.867-1.054,4.171.104,9.001.224,12.753,0,7.701-.459,12.942-2.489,13.908-.685.528.986-.83,2.173,0,3.477.66,1.036,2.129,1.339,4.062,1.738,2.494.515,4.926,1.017,6.093,0,.974-.849.189-1.989,0-5.215-.266-4.543,1.086-5.769,0-6.953-1.424-1.553-4.806-.602-10.155,0,0,0-2.868.204-6.216.333-5.104.196-5.557-.022-9.286.131-4.502.184-4.894.545-10.362.797-6.21.286-7.883-.078-8.664-1.261-.661-1-.626-2.498,0-3.477.943-1.474,3.094-1.562,7.07-1.639,5.504-.107,8.256-.161,9.179-.099,0,0,19.555,1.281,20.311,0,.249-.421-.046-.486,0-3.477.041-2.677.284-3.011,0-3.477-.972-1.596-5.9-.804-12.186,0-11.726,1.5-9.135.323-15.709,1.473-4.948.865-7.18,1.666-8.664.266-1.657-1.563-1.673-5.198,0-6.953,1.386-1.455,3.244-.897,10.258-.486,4.91.287,2.207-.091,12.434.363,3.295.146,6.614.011,9.884.434.501.065,9.036,1.177,10.076-.311.132-.189.217-.391.217-.391.242-.724-.302-1.6-.217-4.824.093-3.541.797-4.278,0-5.215-1.615-1.898-6.954-1.746-8.124,0-.817,1.218.517,2.261,0,3.477-1.107,2.603-8.175.802-17.893.887-9.795.085-13.777,2.012-16.635-.887-2.157-2.188-2.101-5.492-2.031-6.953.53-11.015-3-22.034-2.031-33.027,1.192-13.534.756-23.849,0-41.718-.95-22.452-4.989-56.546,0-57.363.964-.158,2.72.853,4.062,0,1.375-.874.613-2.626,2.031-3.477.958-.574,1.608.08,4.062,0,.81-.026,3.583-.189,6.093-1.738.753-.465,1.472-.908,2.031-1.738,1.484-2.203.235-4.738,0-5.215-.362-.734-1.609-3.265-4.062-3.477-2.173-.187-3.897,1.565-4.062,1.738-1.509,1.578-.896,3.047-2.031,3.477-1.206.457-3.065-.763-4.062-1.738-.89-.871-1.53-1.996-2.031-5.215-.667-4.291-1.001-6.437,0-8.691.615-1.385,1.764-2.661,4.062-5.215.861-.957,1.312-1.377,2.031-1.738,1.427-.717,3.991-1.239,6.093,0,2.059,1.213,2.756,3.574,2.031,5.215-.346.783-1.183,1.782-2.031,1.738-.518-.027-.743-.427-2.031-1.738-1.092-1.112-1.646-1.669-2.031-1.738-1.423-.255-3.388,1.609-4.062,3.477-.529,1.464-.195,2.736,0,3.477.243.925.654,2.489,2.031,3.477,2.713,1.945,7.285.29,8.124,0,.585-.202,4.406-1.582,6.093-5.215.221-.475,1.63-3.627,0-6.953-1.66-3.387-5.502-4.979-6.093-5.215-1.951-.78-3.023-.63-4.062-1.738-1.049-1.119-.684-2.05-2.031-3.477-1.123-1.19-2.118-1.327-2.031-1.738.185-.874,4.58.213,8.124-1.738,3.105-1.709,3.976-4.879,4.062-5.215.722-2.804-.945-3.663,0-5.215,1.377-2.26,5.353-1.157,10.155-3.477,3.162-1.527,4.853-3.655,6.093-5.215,3.991-5.02,4.065-10.175,4.062-12.168-.003-1.965-.048-5.198-2.031-8.691-1.449-2.551-2.912-5.128-6.093-6.953-.797-.457-2.18-1.142-2.031-1.738.2-.8,2.876-.32,4.062-1.738.84-1.005.561-2.518,0-3.477-.222-.38-.832-1.26-2.031-1.738-2.364-.943-4.262.775-6.093,0-1.267-.536-1.434-1.813-2.031-3.477-1.48-4.121-4.259-6.874-6.093-8.691-2.078-2.059-4.405-4.371-8.124-5.215-5.498-1.247-11.46,1.341-12.186,0-.248-.458.365-.91,0-1.738-.486-1.103-1.915-1.076-2.031-1.738-.178-1.011,3.095-1.368,4.062-3.477.41-.894-.171-.846,0-3.477.129-1.987.496-2.554,0-3.477-.357-.665-.915-1.023-2.031-1.738-1.921-1.232-2.962-1.9-4.062-1.738-2.166.318-2.562,3.557-4.062,3.477-.66-.035-.708-.668-2.031-1.738-.537-.434-2.73-2.208-4.062-1.738-1.03.363-.472,1.69-2.031,3.477-.946,1.084-1.392.87-2.031,1.738-1.045,1.42-1.052,3.623,0,5.215,1.407,2.128,4.275,2.508,4.062,3.477-.151.686-1.626.663-2.031,1.738-.3.795.321,1.297,0,1.738-.568.78-3.205.162-4.062,0-4.251-.801-8.37,1.419-12.186,3.477-2.977,1.605-9.525,5.135-10.155,10.43-.287,2.411.904,4.87,0,5.215-.798.304-1.785-1.568-4.062-1.738-1.503-.113-3.276.538-4.062,1.738-.859,1.312-.252,2.84,0,3.477.763,1.922,2.262,2.399,2.031,3.477-.209.972-1.51,1.497-2.031,1.738-3.318,1.536-4.796,5.346-6.093,8.691-.37.954-3.5,9.475,2.031,17.383,1.089,1.557,3.464,4.971,8.124,6.953,5.662,2.408,10.008.714,12.186,3.477,1.626,2.063-.203,3.762,2.031,6.953.407.581,1.641,2.349,4.062,3.477,2.887,1.344,6.039,1.087,6.093,1.738.039.463-1.555.587-2.031,1.738-.303.733.091,1.116,0,1.738-.236,1.625-3.467,1.681-6.093,3.477-2.92,1.997-3.648,5.157-4.062,6.953-.381,1.652-.754,3.274,0,5.215,1.473,3.792,5.825,5.136,6.093,5.215.834.245,3.365.951,6.093,0,.366-.128,3.529-1.271,4.062-3.477.086-.356-.01-.272,0-1.738.017-2.625.324-2.864,0-3.477-.599-1.135-2.506-1.917-4.062-1.738-1.474.169-1.751,1.237-4.062,1.738-.795.172-1.532.332-2.031,0-.912-.607-.343-2.397,0-3.477.547-1.72.884-2.783,2.031-3.477,1.745-1.056,4.087-.487,6.093,0,1.537.373,2.897.703,4.062,1.738,1.494,1.327,1.739,2.986,2.031,5.215.267,2.035-.049,2.169,0,5.215.06,3.768.56,4.621,0,6.953-.63,2.624-1.679,3.282-2.031,3.477-1.406.778-3.544.725-4.062,0-.341-.476.266-.895,0-1.738-.335-1.062-1.675-1.596-2.031-1.738-1.74-.693-3.479-.174-4.062,0-.339.101-3.078.967-4.062,3.477-.159.405-.655,1.83,0,3.477.694,1.745,2.382,2.983,4.062,3.477,1.78.522,3.791.279,6.093,0,1.029-.125,1.481-.24,2.031,0,1.454.636.77,2.53,2.031,3.477,1.6,1.201,4.1-.799,6.093,0Z"/><path class="cls-1" d="m183.225,263.2c.941-.271.8-1.121,2.031-1.738,1.219-.611,2.839-.521,4.062,0,.363.155,1.555.662,2.031,1.738.685,1.547-.721,2.892,0,3.477.329.267.759.1,2.031,0,2.689-.211,3.131.351,4.062,0,2.218-.836,2.048-4.9,2.031-5.215-.091-1.703-.737-2.874-2.031-5.215-1.395-2.524-2.201-3.94-4.062-5.215-.573-.392-1.963-1.324-4.062-1.738-4.052-.8-8.167.838-8.124,1.738.025.533,1.495.567,2.031,1.738.254.556.152,1.05,0,1.738-.267,1.204-.609,2.751-2.031,3.477-1.173.599-2.474.329-4.062,0-.889-.184-2.604-.54-4.062-1.738-1.155-.95-1.321-1.749-2.031-1.738-.59.009-.842.567-2.031,1.738-.825.813-1.382,1.361-2.031,1.738-1.45.842-4.096,1.254-6.093,0-1.209-.759-2.147-2.107-2.031-3.477.165-1.962,2.378-2.612,2.031-3.477-.451-1.124-4.805-1.555-8.124,0-.963.451-1.996,1.459-4.062,3.477-3.463,3.381-3.89,4.578-4.062,5.215-.417,1.546-.16,2.868,0,3.477.406,1.547,1.249,2.548,2.031,3.477.867,1.029,1.3,1.543,2.031,1.738,1.543.411,3.549-.525,4.062-1.738.248-.587-.07-.725,0-1.738.012-.177.229-2.804,2.031-3.477.665-.248,1.289-.135,2.031,0,2.227.404,2.599,1.569,4.062,1.738,1.312.152,1.873-.686,4.062-1.738.696-.334,3.208-1.542,6.093-1.738,2.449-.167,5.539.37,8.124,1.738,1.837.973,2.879,2.079,4.062,1.738Z"/><path class="cls-1" d="m189.318,271.892c.53-.07.662,1.207,2.031,1.738,1.695.657,3.209-.635,4.062,0,.55.409.194,1.147,0,3.477-.158,1.894-.237,2.841,0,3.477.733,1.969,3.49,3.664,6.093,3.477,1.6-.115,2.819-.918,4.062-1.738,1.056-.696,1.627-1.073,2.031-1.738,1.325-2.183-.874-4.629,0-5.215.657-.44,2.686.415,4.062,1.738,2.157,2.074,2.133,4.74,2.031,8.691-.113,4.379-.169,6.568-2.031,8.691-2.088,2.381-5.057,3.193-6.093,3.477-3.53.965-6.443.353-8.124,0-1.783-.375-3.786-.732-4.062-1.738-.256-.933,1.25-1.363,2.031-3.477.243-.658.774-2.095,0-3.477-.576-1.028-1.599-1.532-2.031-1.738-1.825-.872-4.236-.794-6.093,0-2.595,1.109-3.076,3.665-4.062,3.477-.942-.18-.342-2.479-2.031-3.477-1.199-.708-2.982-.423-4.062,0-2.62,1.025-3.105,3.636-4.062,3.477-.908-.152-.339-2.478-2.031-3.477-1.199-.708-2.982-.423-4.062,0-2.596,1.016-2.413,3.235-4.062,3.477-1.978.289-2.757-2.848-6.093-3.477-2.265-.427-4.639.505-6.093,1.738-1.402,1.189-2.809,3.388-2.031,5.215.907,2.13,4.194,2.373,4.062,3.477-.114.951-2.636,1.444-4.062,1.738-2.18.451-5.075,1.049-8.124,0-2.409-.829-3.637-2.291-6.093-5.215-2.466-2.936-3.762-4.479-4.062-6.953-.409-3.374,1.342-5.943,2.031-6.953,1.364-2.001,3.443-3.773,4.062-3.477.52.249-.612,1.66,0,3.477.716,2.126,3.277,3.191,4.062,3.477,2.98,1.085,5.672.153,6.093,0,.529-.192,3.638-1.319,4.062-3.477.476-2.422-2.775-4.401-2.031-5.215.496-.542,1.868.41,4.062,0,2.392-.447,3.386-2.071,4.062-1.738.623.306-.273,1.656,0,3.477.322,2.151,2.069,3.582,4.062,5.215,1.361,1.115,3.14,2.573,6.093,3.477.827.253,5.297,1.55,10.155,0,2.159-.689,3.54-1.667,6.093-3.477,2.182-1.546,3.273-2.319,4.062-3.477,2.198-3.222,1.128-6.834,2.031-6.953Z"/><path class="cls-1" d="m173.069,264.939c-2.905.027-4.95,1.125-6.093,1.738-1.517.814-3.171,1.702-4.062,3.477-1.036,2.062-.391,4.025,0,5.215.276.839,1.157,3.38,4.062,5.215.978.618,3.169,2.002,6.093,1.738,3.482-.313,5.481-2.735,6.093-3.477,1.458-1.766,1.755-3.555,2.031-5.215.179-1.074.343-2.131,0-3.477-.179-.703-.569-2.236-2.031-3.477-2.093-1.776-4.961-1.749-6.093-1.738Z"/><path class="cls-1" d="m181.194,318.825c-.201.443-1.901.15-4.062,0-6.171-.427-9.864.745-10.155,0-.243-.621,2.475-1.069,4.062-3.477,1.325-2.011,1.519-4.868,0-6.953-.237-.325-.847-1.141-2.031-1.738-1.802-.909-4.215-.948-6.093,0-.565.285-1.53.772-2.031,1.738-.964,1.859.959,3.229,0,5.215-.089.184-.719,1.441-2.031,1.738-1.717.389-3.399-1.137-4.062-1.738-.226-.205-3.187-2.958-2.031-5.215.357-.696.967-1.076,2.031-1.738,1.893-1.178,3.076-1.256,4.062-1.738,3.765-1.84,2.098-8.31,4.062-8.691.527-.102,1.048.284,4.062,3.477,3.745,3.967,4.554,5.079,6.093,5.215,1.474.13,2.65-.719,4.062-1.738,4.279-3.089,4.999-7.123,6.093-6.953.842.131.175,2.483,2.031,5.215.356.523,1.611,2.371,4.062,3.477,2.958,1.335,4.987.384,6.093,1.738.941,1.152.268,2.816,0,3.477-.08.198-1.106,2.599-4.062,3.477-.796.236-2.816.835-4.062,0-1.439-.965-.249-2.771-2.031-5.215-.391-.536-.945-1.274-2.031-1.738-1.228-.525-2.782-.547-4.062,0-1.137.486-1.701,1.268-2.031,1.738-1.245,1.775-1.57,4.396-.342,6.508,1.5,2.581,4.683,3.308,4.405,3.921Z"/><path class="cls-1" d="m173.069,325.778c.564,0,.297-2.43,2.031-3.477,1.131-.682,2.836-.608,4.062,0,2.081,1.031,2.04,3.23,2.031,3.477-.052,1.372-.971,2.349-2.031,3.477-.657.699-.863.744-2.031,1.738-2.982,2.54-3.081,3.477-4.062,3.477s-1.08-.937-4.062-3.477c-1.168-.994-1.374-1.039-2.031-1.738-1.06-1.127-1.979-2.105-2.031-3.477-.009-.246-.05-2.445,2.031-3.477,1.226-.608,2.931-.682,4.062,0,1.735,1.046,1.468,3.477,2.031,3.477Z"/></g><g><path class="cls-1" d="m1666.39,669.85c1.189-1.409.432-3.053,0-7.997-.125-1.433-.467-5.94,0-10.457.239-2.312.75-6.888,3.076-11.687,1.659-3.423,4.409-6.225,9.842-11.687,5.271-5.301,7.907-7.951,11.072-9.842,5.99-3.579,11.626-4.589,14.148-4.921,8.48-1.116,15.014,1.06,19.069,2.461,3.35,1.157,10.173,3.597,16.608,9.842,4.983,4.835,7.32,9.61,9.842,14.763,3.543,7.239,5.57,11.379,5.536,17.224-.033,5.793-2.064,8.711,0,11.072,2.409,2.757,8.342,2.401,9.227.615.503-1.016-.667-2.408,0-3.076.681-.681,2.177.494,3.076,0,1.762-.969-.141-7.609-.615-9.227-3.431-11.712-5.146-17.569-5.536-18.454-2.623-5.957-5.282-11.996-11.072-18.454-7.067-7.881-14.727-11.846-18.454-13.533-4.471-2.024-11.96-4.698-21.529-4.921-4.993-.116-14.204-.221-23.99,4.921-8.075,4.243-12.51,9.939-17.224,15.993-6.267,8.05-9.219,15.139-11.072,19.684-4.247,10.414-6.446,21.264-3.691,22.76,1.112.604,2.858-.411,3.691.615.919,1.133-.764,2.919,0,4.306,1.034,1.878,6.114,2.232,7.997,0Z"/><path class="cls-1" d="m1713.755,739.36c.3,3.228,1.292,4.949,2.461,7.997,1.741,4.539,3.734,9.735,1.845,11.687-.649.671-1.463.656-4.306.615-11.025-.157-12.309-.119-12.918-1.23-.63-1.149.195-3.022,1.845-6.766,1.072-2.433,1.485-2.655,3.076-6.151,1.001-2.201,1.552-3.682,1.845-5.536.292-1.843.438-2.764,0-3.691-1.05-2.224-3.838-1.626-4.921-3.691-.911-1.737.137-3.923.615-4.921.208-.433,2.31-4.635,6.766-4.921,3.384-.218,5.657,1.982,6.151,2.461.291.282,3.287,3.182,2.461,5.536-.642,1.828-2.923,1.433-4.306,3.691-.913,1.491-.786,3.079-.615,4.921Z"/><path class="cls-1" d="m1735.9,720.291c-2.463-.476-6.442,2.005-9.227,5.536-1.432,1.816-3.879,4.917-3.691,9.227.065,1.49.224,5.138,3.076,6.766,2.005,1.145,4.865,1.02,6.766-.615,2.278-1.959,2.793-5.753,1.23-7.382-1.093-1.139-3.256-1.273-3.691-.615-.418.632.633,2.19,1.23,3.076.791,1.172,1.153,1.246,1.23,1.845.153,1.197-1.076,2.585-2.461,3.076-1.893.671-3.562-.52-3.691-.615-1.201-.887-1.499-2.185-1.845-3.691-.225-.977-.672-3.034,0-5.536.139-.518,1.134-4.022,4.306-6.151,1.365-.916,4.098-2.225,6.151-3.076.661-.274,1.901-.769,1.845-1.23-.047-.387-.983-.567-1.23-.615Z"/><path class="cls-1" d="m1684.153,720.654c2.463-.476,6.442,2.005,9.227,5.536,1.432,1.816,3.879,4.917,3.691,9.227-.065,1.49-.224,5.138-3.076,6.766-2.005,1.145-4.865,1.02-6.766-.615-2.278-1.959-2.793-5.753-1.23-7.382,1.093-1.139,3.256-1.273,3.691-.615.418.632-.633,2.19-1.23,3.076-.791,1.172-1.153,1.246-1.23,1.845-.153,1.197,1.076,2.585,2.461,3.076,1.893.671,3.562-.52,3.691-.615,1.201-.887,1.499-2.185,1.845-3.691.225-.977.672-3.034,0-5.536-.139-.518-1.134-4.022-4.306-6.151-1.365-.916-4.098-2.225-6.151-3.076-.661-.274-1.901-.769-1.845-1.23.047-.387.983-.567,1.23-.615Z"/><path class="cls-1" d="m1709.449,689.534c-2.56.012-5.447,1.761-5.536,3.691-.028.605.391,1.232,1.23,2.461,1.601,2.345,2.402,3.518,3.691,3.691,1.083.146,1.952-.518,3.691-1.845,1.876-1.432,3.107-2.372,3.076-3.691-.034-1.452-1.578-2.485-2.461-3.076-.574-.384-1.888-1.239-3.691-1.23Z"/><path class="cls-1" d="m1696.839,686.766c1.096,1.304,2.992,1.493,4.306,1.23,1.506-.301,3.237-1.391,3.691-3.076.547-2.031-1.042-3.883-2.461-5.536-2.528-2.945-5.55-4.087-6.151-4.306-4.676-1.697-8.852-.489-10.457,0-6.133,1.868-9.372,6.423-10.457,7.997-2.714,3.936-3.356,7.729-3.691,9.842-.315,1.988-.919,6.105.615,11.072,1.426,4.618,3.873,7.293,6.766,10.457,3.149,3.443,4.075,3.171,4.306,3.076.978-.404,1.422-2.582.615-3.691-.584-.802-1.364-.417-2.461-1.23-1.851-1.373-1.848-4.121-1.845-4.306.022-1.446.622-2.562,1.23-3.691.947-1.759,1.789-2.282,1.845-3.691.014-.357.055-1.377-.615-1.845-.798-.558-2.235-.076-2.461.615-.199.612.679,1,.615,1.845-.082,1.075-1.634,2.182-2.461,1.845-1.088-.444-.673-3.296-.615-3.691.126-.867.404-2.769,1.845-3.691.647-.414.872-.21,2.461-.615,1.749-.446,3.465-.883,3.691-1.845.195-.83-.714-2.069-1.845-2.461-1.884-.652-3.358,1.401-4.921.615-.735-.369-1.146-1.193-1.23-1.845-.154-1.191.719-2.277,3.076-4.306,3.381-2.911,5.072-4.367,6.766-4.921.861-.282,3.445-.188,8.612,0,1.51.055,3.062.133,4.306,1.23.963.85,1.533,2.127,1.23,2.461-.259.284-1.033-.252-3.076-.615-1.493-.265-1.742-.096-1.845,0-.568.53-.198,2.108.615,3.076Z"/><path class="cls-1" d="m1724.982,685.664c-1.096,1.304-2.992,1.493-4.306,1.23-1.506-.301-3.237-1.391-3.691-3.076-.547-2.031,1.042-3.883,2.461-5.536,2.528-2.945,5.55-4.087,6.151-4.306,4.676-1.697,8.852-.489,10.457,0,6.133,1.868,9.372,6.423,10.457,7.997,2.714,3.936,3.356,7.729,3.691,9.842.315,1.988.919,6.105-.615,11.072-1.426,4.618-3.873,7.293-6.766,10.457-3.149,3.443-4.075,3.171-4.306,3.076-.978-.404-1.422-2.582-.615-3.691.584-.802,1.364-.417,2.461-1.23,1.851-1.373,1.848-4.121,1.845-4.306-.022-1.446-.622-2.562-1.23-3.691-.947-1.759-1.789-2.282-1.845-3.691-.014-.357-.055-1.377.615-1.845.798-.558,2.235-.076,2.461.615.199.612-.679,1-.615,1.845.082,1.075,1.634,2.182,2.461,1.845,1.088-.444.673-3.296.615-3.691-.126-.867-.404-2.769-1.845-3.691-.647-.414-.872-.21-2.461-.615-1.749-.446-3.465-.883-3.691-1.845-.195-.83.714-2.069,1.845-2.461,1.884-.652,3.358,1.401,4.921.615.735-.369,1.146-1.193,1.23-1.845.154-1.191-.719-2.277-3.076-4.306-3.381-2.911-5.072-4.367-6.766-4.921-.861-.282-3.445-.188-8.612,0-1.51.055-3.062.133-4.306,1.23-.963.85-1.533,2.127-1.23,2.461.259.284,1.033-.252,3.076-.615,1.493-.265,1.742-.096,1.845,0,.568.53.198,2.108-.615,3.076Z"/><path class="cls-1" d="m1704.528,703.682c-.301-.125-2.735-1.105-3.691,0-.531.614-.511,1.765,0,2.461.585.796,1.443.492,3.076,1.23.858.388,1.924.87,2.461,1.845.948,1.725.057,4.666-1.845,5.536-.595.272-1.73.543-2.461,0-.791-.588-.355-1.57-1.23-2.461-.625-.635-1.761-1.064-2.461-.615-.541.347-.76,1.177-.615,1.845.263,1.214,1.598,1.279,1.845,2.461.137.653-.085,1.517-.615,1.845-1.131.701-3.457-1.165-4.306-1.845-2.397-1.922-2.545-3.245-4.306-3.691-.938-.238-2.388-.241-3.076.615-.782.973-.187,2.573,0,3.076,1.314,3.532,5.612,4.952,7.382,5.536,2.67.882,5.179,1.711,7.997.615,3.633-1.412,5.059-4.963,5.536-6.151.447-1.114,1.441-3.692.615-6.766-.2-.744-1.244-4.265-4.306-5.536Z"/><path class="cls-1" d="m1716.355,703.759c.301-.125,2.735-1.105,3.691,0,.531.614.511,1.765,0,2.461-.585.796-1.443.492-3.076,1.23-.858.388-1.924.87-2.461,1.845-.948,1.725-.057,4.666,1.845,5.536.595.272,1.73.543,2.461,0,.791-.588.355-1.57,1.23-2.461.625-.635,1.761-1.064,2.461-.615.541.347.76,1.177.615,1.845-.263,1.214-1.598,1.279-1.845,2.461-.137.653.085,1.517.615,1.845,1.131.701,3.457-1.165,4.306-1.845,2.397-1.922,2.545-3.245,4.306-3.691.938-.238,2.388-.241,3.076.615.782.973.187,2.573,0,3.076-1.314,3.532-5.612,4.952-7.382,5.536-2.67.882-5.179,1.711-7.997.615-3.633-1.412-5.059-4.963-5.536-6.151-.447-1.114-1.441-3.692-.615-6.766.2-.744,1.244-4.265,4.306-5.536Z"/><path class="cls-1" d="m1772.5,680c0,9.934,2.609,23.955.615,43.059-.637,6.106-1.45,13.519-4.306,22.76-2.605,8.426-4.676,15.127-10.457,22.145-6.75,8.194-14.584,11.996-17.839,13.533-6.091,2.876-10.92,3.763-17.224,4.921-15.699,2.883-26.93,1.068-29.526.615-3.558-.621-6.91-1.229-11.072-3.076-6.452-2.862-10.402-6.725-14.148-10.457-2.952-2.942-8.841-8.908-13.533-18.454-4.42-8.992-5.457-16.438-6.766-25.835-1.215-8.72-1.22-15.209-1.23-26.45-.016-17.785,1.559-15.293.615-23.375-.739-6.325-1.23-9.842.615-13.533,1.054-2.108,5.542-1.721,7.382,0,.668.625.975,2.631,1.23,3.691.935,3.875-.033,5.241-.615,10.457-.687,6.16.119,7.414.615,7.997,1.049,1.231,3.172,2.345,4.921,1.845,1.294-.37,1.673-1.42,2.461-1.23,1.005.242,1.829,2.298,1.23,3.691-.521,1.211-1.861,1.326-4.921,2.461-3.521,1.305-5.282,1.958-6.151,3.076-1.161,1.493-.537,2.764,0,9.227.228,2.75.528,6.354.615,10.457.106,4.999-.181,7.009,1.23,7.997,1.568,1.097,3.603-.209,4.921,1.23.726.793.929,2.086.615,3.076-.63,1.988-3.194,2.279-3.076,3.076.122.82,2.935,1.195,4.921,1.23,3.106.055,4.233-.723,4.921,0,1.233,1.297-1.041,5.215-1.23,5.536-1.48,2.505-3.916,2.334-4.306,4.306-.151.764-.043,1.85.615,2.461,1.07.992,2.583-.207,3.691.615.904.671.703,2.067.615,6.151-.064,3.009-.097,4.514,0,4.921.753,3.167,3.373,3.148,7.382,7.382,3.176,3.354,2.797,4.703,6.151,7.382.784.626,4.44,3.546,6.151,2.461,1.07-.679.387-2.294,1.845-3.691,1.205-1.153,2.875-1.205,3.691-1.23.348-.011,3.85-.119,4.921,1.845.962,1.765-.907,3.611,0,4.921.888,1.283,3.576.804,4.921.615,10.182-1.433,17.668,3.274,19.069.615.632-1.201-.837-2.267,0-4.306.855-2.08,3.176-2.895,3.691-3.076.782-.275,2.917-1.024,4.306,0,1.33.98.685,2.634,1.845,3.691,1.409,1.283,4.122.452,5.536,0,5.384-1.719,13.647-7.014,14.148-14.148.054-.766.036-2.561,0-6.151-.044-4.449-.15-5.399.615-6.151,1.774-1.743,5.2.547,6.766-1.23.911-1.034.859-3.064,0-4.306-1.546-2.235-4.893-.737-6.766-3.076-.957-1.194-1.232-3.016-.615-4.306.781-1.633,2.85-2.119,4.306-2.461,2.731-.641,4.768-.075,4.921-.615.14-.496-1.618-.839-2.461-2.461-.791-1.522-.591-3.817.615-4.921,1.133-1.038,2.317-.256,3.691-1.23,1.304-.924,1.504-2.526,1.845-4.306,1.003-5.229,1.791-4.522,2.461-8.612.498-3.042,1.237-7.85-.615-12.918-.597-1.634-1.109-3.035-2.461-4.306-1.649-1.551-2.899-1.356-4.306-3.076-.882-1.079-2.038-3.17-1.23-4.306.577-.811,2.042-.977,3.076-.615,1.25.437,1.241,1.424,2.461,1.845,1.06.366,2.44.094,3.076-.615.971-1.083-1.129-2.709-1.845-6.151-.596-2.864.548-2.885.615-8.612.035-2.981-.262-4.076.615-4.921,1.15-1.109,3.701-1.192,4.921,0,1.17,1.142,1.23,3.825,1.23,9.227v3.691"/><path class="cls-1" d="m1668.543,670.158c1.889.283,4.407.563,7.382.615,3.266.057,9.321.163,15.378-1.845,10.146-3.365,13.75-10.494,18.454-8.612,1.021.409.601.645,3.076,2.461.258.19,4.9,3.551,9.842,4.921,4.16,1.154,7.024.478,11.687,0,4.397-.451,10.644-.752,18.454,0"/></g><g><path class="cls-1" d="m538.576,112.428c-.886-.804-1.192-2.162-.586-7.031.531-4.264.796-6.397,1.758-9.375,2.657-8.23,4.548-14.09,8.789-19.921,9.081-12.488,22.829-16.45,26.952-17.578,15.631-4.273,28.459.026,33.397,1.758,4.467,1.566,14.229,5.122,22.851,14.648,0,0,9.168,10.129,12.304,24.023.477,2.111.122,1.66,1.172,8.203.568,3.538.895,5.068,0,5.859-.835.738-1.783-.008-5.273,0-3.221.007-3.882.646-4.687,0-1.212-.972-.35-2.928-.586-7.031-.143-2.498-.607-4.276-1.172-6.445-.241-.925-1.159-4.302-3.516-8.789-1.898-3.614-4.679-8.91-9.961-13.476-6.039-5.221-12.276-6.833-17.578-8.203-4.815-1.245-12.269-3.082-21.679-1.172-8.966,1.82-14.968,6.08-16.992,7.617-3.898,2.961-12.635,9.598-13.476,18.749-.649,7.059-.586,9.961-.586,9.961.079,3.64.461,6.149-1.172,7.617-.884.795-1.956.921-4.101,1.172-2.553.299-4.618.541-5.859-.586Z"/><path class="cls-1" d="m593.359,184.789c.472-1.014,1.11-1.065,1.758-2.344.251-.495.777-1.568.586-2.93-.042-.296-.272-1.939-1.758-2.93-.274-.183-1.438-.931-2.93-.586-1.474.341-2.194,1.502-2.344,1.758-1.024,1.754-.182,3.71,0,4.101.575,1.24,1.228,1.233,1.758,2.344.683,1.434.284,2.892,0,4.101-.632,2.689-.709,5.48-1.172,8.203-.151.89.013-.038-1.172,8.203-.729,5.071-1.008,6.93,0,7.617.566.386.939-.008,3.516,0,2.525.007,2.95.387,3.516,0,1.053-.721.614-2.743,0-7.031-.474-3.309-.777-6.641-1.172-9.961-.278-2.335-.091-4.732-.586-7.031-.234-1.089-.571-2.29,0-3.516Z"/><path class="cls-1" d="m639.646,130.298c-1.713.157-2.195-.366-2.344-.586-.796-1.182.81-4.336,2.93-4.687,2.141-.355,4.027,2.28,4.687,4.101.969,2.671.074,5.721-1.758,7.617-2.082,2.156-4.847,2.275-6.445,2.344-.823.035-6.815.293-9.961-4.101-2.209-3.086-2.265-6.602-1.758-9.961.431-2.855,1.507-6.103,4.101-8.203,2.158-1.746,6.385-3.53,9.961-3.516,6.136.024,8.777,1.799,12.304,5.273,3.39,3.338,4.291,8.199,2.93,12.304-.25.755-1.143,3.433-4.101,7.617-2.912,4.118-3.503,4.732-4.101,6.445-1.159,3.319-.775,6.277-.586,7.617.607,4.308,2.556,7.119,3.516,8.789,4.289,7.461,2.845,16.49,1.172,26.952-1.117,6.983-1.81,11.317-4.687,16.406-5.327,9.42-13.962,14.037-21.679,18.163-10.921,5.84-12.543,3.61-18.749,8.789-7.115,5.937-10.247,13.259-13.476,12.304-1.512-.447-1.448-2.236-3.516-5.273-2.578-3.787-5.839-5.65-9.375-7.617-9.627-5.356-13.716-3.235-22.851-7.617-8.266-3.965-13.424-9.784-15.82-12.89-5.411-7.018-7.24-13.836-8.203-17.578-.988-3.837-3.385-13.5-.586-24.609,1.684-6.685,4.63-11.4,3.516-18.749-.283-1.868-.598-3.945-1.758-6.445-2.051-4.422-4.509-5.349-5.859-9.375-.155-.463-1.035-3.182-.586-6.445.797-5.788,5.45-10.921,11.132-12.89,1.206-.418,7.785-2.539,13.476,1.172.561.366,3.015,2.029,4.687,5.273.577,1.12,2.449,5.121,1.172,9.961-.397,1.506-1.836,6.96-6.445,8.203-4.25,1.146-7.941-2.168-8.789-2.93-.824-.74-4.53-4.068-3.516-7.617.442-1.547,1.749-3.023,3.516-3.516,1.788-.498,4.344-.07,5.273,1.758.907,1.783.045,4.466-1.172,4.687-1.041.19-2.148-1.459-2.344-1.758"/><path class="cls-1" d="m564.356,132.935c-1.597.771-3.466.535-4.687-.586-1.546-1.419-1.684-3.914-.586-5.273.981-1.214,2.681-1.191,4.101-1.172.714.01,3.155.077,5.273,1.758,1.998,1.586,1.374,2.754,3.516,5.859.846,1.226,2.64,3.762,5.859,5.273,1.47.69,3.215,1.509,5.273,1.172,4.354-.713,5.978-5.924,8.203-5.273.852.249.634,1.019,2.344,2.344,1.174.91,2.259,1.308,3.516,1.758,2.559.916,3.838,1.373,5.273,1.172,2.139-.301,3.465-1.864,5.859-4.687,2.739-3.23,2.449-4.152,4.687-5.859,1.724-1.315,3.355-1.881,4.687-2.344,2.065-.717,3.097-1.075,4.101-.586,1.511.735,2.13,2.952,1.758,4.687-.348,1.623-1.746,3.68-3.516,3.516-1.366-.127-2.198-1.507-2.344-1.758"/><path class="cls-1" d="m543.556,133.228c.213.475,1.041,2.165,2.93,2.93,2.917,1.181,5.605-.962,5.859-1.172,2.54-2.094,2.388-5.47,2.344-6.445-.125-2.771-1.495-4.678-2.344-5.859-.789-1.098-2.557-3.49-5.859-4.687-4.417-1.602-8.332.11-9.375.586-1.381.63-4.058,2.143-5.859,5.273-.476.828-2.546,4.426-1.465,8.496.655,2.465,2.249,3.857,4.101,5.859,4.451,4.811,7.641,4.27,8.203,7.031.313,1.539-.607,2.057-2.344,6.445-1.127,2.849-1.674,4.992-2.344,7.617-1.308,5.128-1.575,9.25-1.758,12.304-.303,5.062-.586,9.795.586,15.82.537,2.762,2.053,9.257,6.445,16.406,3.595,5.852,6.785,11.044,12.89,13.476,2.928,1.167,3.296.411,10.547,2.344,4.512,1.203,7.142,1.903,10.547,3.516,5.366,2.541,9.027,4.274,11.718,8.203,1.432,2.091,2.062,4.033,3.516,4.101,1.555.073,2.56-2.07,4.101-4.101,2.352-3.101,5.083-4.606,10.547-7.617,5.577-3.073,6.319-1.987,14.062-5.273,4.771-2.025,8.665-3.678,12.89-7.031,2.393-1.899,7.364-5.934,10.547-12.89,2.406-5.26,2.589-9.565,2.93-17.578.318-7.49-.501-13.034-1.172-16.406-1.094-5.493-1.64-8.239-3.516-10.547-1.692-2.082-3.847-3.468-3.516-5.273.213-1.161,1.282-1.551,2.93-2.93,1.925-1.61,2.896-3.209,4.687-5.859,1.508-2.232,2.41-3.986,3.223-5.566,1.027-1.998,1.545-3.02,1.758-4.101.549-2.795-.295-5.097-.586-5.859-.207-.542-1.271-3.209-4.101-5.273-1.12-.817-3.637-2.356-7.031-2.344-4.418.016-8.572,2.653-10.547,6.445-.477.916-2.668,5.124-.586,8.789,1.44,2.534,4.085,3.334,4.687,3.516,3.866,1.168,7.107-.844,7.617-1.172"/><path class="cls-1" d="m591.308,138.794c-.508-.045-.626,1.789-1.758,3.516-2.244,3.425-6.497,3.413-6.445,4.687.043,1.068,3.017.751,5.273,2.93,3.065,2.96,2.434,8.235,2.93,8.203.236-.016.19-1.205.586-2.93.165-.719.766-3.333,2.344-5.273,2.104-2.587,4.738-2.491,4.687-3.516-.067-1.352-4.63-1.011-6.445-4.101-.975-1.66-.665-3.471-1.172-3.516Z"/><path class="cls-1" d="m624.621,179.338c-1.562.308-2.874-.656-3.52-1.609-.74-1.092-1.089-2.886-.241-4.37,1.023-1.789,3.262-2.207,5.26-2.58,3.561-.665,6.218.263,6.741.454,4.065,1.486,5.865,4.785,6.54,6.071,2.58,4.913,1.544,10.092,1.165,11.861-.949,4.425-3.096,7.544-4.307,9.269-1.14,1.622-3.529,4.954-7.827,7.66-3.996,2.516-7.325,3.032-11.261,3.643-4.283.665-4.68-.07-4.76-.273-.34-.86.846-2.695,2.096-3.029.904-.242,1.134.49,2.366.538,2.081.08,3.926-1.911,4.048-2.046.959-1.06,1.333-2.216,1.711-3.387.59-1.824.415-2.691,1.327-3.744.231-.267.892-1.029,1.625-.979.874.059,1.449,1.243,1.125,1.874-.287.559-1.097.329-1.625.979-.672.826-.445,2.529.298,2.765.979.31,2.636-1.996,2.866-2.315.504-.701,1.609-2.239,1.327-3.744-.127-.675-.404-.658-1.125-1.874-.794-1.339-1.573-2.651-1.068-3.479.436-.714,1.837-1.084,2.808-.71,1.617.622,1.158,2.964,2.664,3.302.708.159,1.519-.199,2.01-.622.897-.772,1.081-2.066.971-4.903-.158-4.071-.237-6.107-.924-7.492-.349-.704-2.028-2.136-5.386-5-.981-.837-2.004-1.682-3.52-1.609-1.174.056-2.389.65-2.423,1.067-.029.356.816.417,2.337,1.34,1.112.675,1.154.942,1.154,1.071,0,.714-1.293,1.641-2.452,1.87Z"/><path class="cls-1" d="m562.878,181.588c1.562.308,2.874-.656,3.52-1.609.74-1.092,1.089-2.886.241-4.37-1.023-1.789-3.262-2.207-5.26-2.58-3.561-.665-6.218.263-6.741.454-4.065,1.486-5.865,4.785-6.54,6.071-2.58,4.913-1.544,10.092-1.165,11.861.949,4.425,3.096,7.544,4.307,9.269,1.14,1.622,3.529,4.954,7.827,7.66,3.996,2.516,7.325,3.032,11.261,3.643,4.283.665,4.68-.07,4.76-.273.34-.86-.846-2.695-2.096-3.029-.904-.242-1.134.49-2.366.538-2.081.08-3.926-1.911-4.048-2.046-.959-1.06-1.333-2.216-1.711-3.387-.59-1.824-.415-2.691-1.327-3.744-.231-.267-.892-1.029-1.625-.979-.874.059-1.449,1.243-1.125,1.874.287.559,1.097.329,1.625.979.672.826.445,2.529-.298,2.765-.979.31-2.636-1.996-2.866-2.315-.504-.701-1.609-2.239-1.327-3.744.127-.675.404-.658,1.125-1.874.794-1.339,1.573-2.651,1.068-3.479-.436-.714-1.837-1.084-2.808-.71-1.617.622-1.158,2.964-2.664,3.302-.708.159-1.519-.199-2.01-.622-.897-.772-1.081-2.066-.971-4.903.158-4.071.237-6.107.924-7.492.349-.704,2.028-2.136,5.386-5,.981-.837,2.004-1.682,3.52-1.609,1.174.056,2.389.65,2.423,1.067.029.356-.816.417-2.337,1.34-1.112.675-1.154.942-1.154,1.071,0,.714,1.293,1.641,2.452,1.87Z"/></g><g><path class="cls-1" d="m762.486,684.651c.649,1.52.301,2.617,0,5.761v66.967c-.061,11.281,2.248,22.842,0,33.844,0,0-1.548,7.574.649,15.122.346,1.188.983,3.039,2.597,4.32,1.745,1.386,4.391,1.912,6.491.72.649-.368,2.073-1.37,3.246-5.041,1.242-3.888,1.053-7.169.649-12.241-.901-11.324-1.47-13.981,0-15.122,1.608-1.247,4.749.018,6.491.72,2.417.974,2.69,1.885,4.544,2.16,1.866.277,4.722-.18,5.842-2.16,1.499-2.649-.913-6.604,0-7.201.663-.433,1.806,1.736,4.544,2.88.402.168,4.113,1.67,5.842,0,1.516-1.463.124-4.024,0-10.081-.151-7.406,1.797-10.043,0-12.241-1.612-1.972-5.13-2.232-6.491-.72-1.424,1.581.287,4.235-1.298,6.481-1.265,1.792-4.051,2.508-5.193,1.44-1.63-1.524,1.103-5.739-.649-7.921-1.53-1.905-5.332-.832-7.14,0-4.766,2.192-5.192,8.111-6.491,7.921-1.762-.258-1.914-10.799-1.947-30.243-.05-29.015.251-27.611,0-29.523-.387-2.951-.258-5.568,0-10.801.135-2.747.32-4.305,1.298-5.761,1.172-1.743,2.509-1.889,5.193-3.6,0,0,2.508-1.599,5.193-4.32,4.786-4.852,6.935-11.307,7.14-12.241,1.576-7.148-.078-10.514,1.947-15.122,1.688-3.839,2.112-1.794,7.14-6.481,2.665-2.484,8.258-7.696,9.737-15.842,1.236-6.809-.967-12.562-1.947-15.122-1.211-3.162-2.58-6.738-5.842-9.361-4.48-3.602-8.279-1.991-9.737-5.041-1.187-2.483.878-4.497,1.947-10.081.488-2.546,1.478-9.54-1.298-16.562-.625-1.58-4.175-10.559-11.035-12.241-3.471-.851-5.859.639-7.79-1.44-2.091-2.253-.544-5.355-2.597-7.201-2.111-1.898-6.515-1.108-8.439,1.44-1.541,2.04-.449,3.827-1.947,5.761-1.718,2.217-4.35,1.415-7.79,2.16-6.542,1.417-10.585,7.252-11.035,7.921-4.668,6.933-3.429,16.051-3.246,17.282.887,5.964,3.503,8.91,1.947,11.521-1.159,1.946-3.087,1.106-6.491,2.88-4.896,2.551-7.273,7.604-8.439,10.081-2.992,6.359-2.722,12.222-2.597,14.402.177,3.059.546,9.466,4.544,14.402,4.05,5,9.737,7.921,9.737,7.921,1.889.97,3.668,1.604,4.544,3.6.684,1.559.255,2.67,0,6.481-.162,2.425-.339,5.057,0,7.921.172,1.457.621,4.983,2.597,8.641,2.192,4.058,5.166,6.248,6.491,7.201,4.814,3.463,7.784,2.709,9.088,5.761Z"/><path class="cls-1" d="m776.442,640.366c-1.127-.319-2.579-.779-3.246,0-.52.608-.229,1.567.325,4.68.828,4.659.54,4.569.974,5.401,1.387,2.661,3.396,1.996,4.544,4.32.982,1.988.348,4.793-.649,6.481-1.55,2.622-3.615,1.937-4.544,4.32-.6,1.542.251,1.861,0,5.761-.166,2.59-.618,3.636,0,4.32.867.96,2.876.149,3.246,0,2.133-.86,4.157-2.224,6.167-5.401,4.701-7.43,3.877-7.682,4.219-9.001.958-3.692.41-6.972,0-8.641-.714-2.906-1.964-4.814-2.597-5.761-.634-.949-3.528-5.09-8.439-6.481Z"/><path class="cls-1" d="m761.645,640.813c1.066-.302,2.614-.793,3.246,0,.522.654.037,1.689-.458,4.234-.8,4.118-.104,4.35-.841,5.847-1.303,2.646-3.366,1.936-4.544,4.32-.982,1.988-.348,4.793.649,6.481,1.55,2.622,3.615,1.937,4.544,4.32.6,1.542-.251,1.861,0,5.761.166,2.59.618,3.636,0,4.32-.867.96-2.876.149-3.246,0-2.133-.86-4.29-2.67-6.3-5.847-4.701-7.43-3.744-7.236-4.086-8.555-.958-3.692-.41-6.972,0-8.641.714-2.906,1.964-4.814,2.597-5.761.634-.949,3.528-5.09,8.439-6.481Z"/><path class="cls-1" d="m770.275,633.526c-3.867.671-6.892-1.496-7.79-2.16-.844-.625-4.329-3.377-5.193-8.641-.126-.765-.945-6.284,2.597-10.801,2.894-3.692,6.744-4.22,7.79-4.32.834-.08,5.193-.5,8.439,2.88,2.305,2.401,2.823,5.442,3.246,7.921.326,1.917.678,3.98,0,6.481-1.023,3.771-3.641,5.786-4.544,6.481-.844.649-2.347,1.779-4.544,2.16Z"/><path class="cls-1" d="m732.807,626.827c-.419-1.817-.129-2.32-.001-2.482.53-.675,1.686-.45,3.065-.181,1.329.259,2.255.44,3.201,1.169,1.698,1.309,1.322,2.644,2.687,3.473,1.236.75,2.979.264,4.028-.499,1.629-1.186,1.202-2.766,2.683-3.477.958-.46,1.157.191,3.58-.002,1.61-.129,2.259-.475,2.685-.002.597.662.094,2.199.001,2.482-.534,1.632-1.658,3.282-3.631,4.82-4.616,3.598-4.496,2.867-5.315,3.129-2.294.734-4.333.317-5.37.004-1.807-.544-2.993-1.5-3.581-1.983-.59-.485-3.165-2.696-4.032-6.451Z"/><path class="cls-1" d="m754.417,613.687c.516,1.868.201,2.36.106,2.479-.193.243-.579.471-3.073.077-1.822-.288-2.733-.432-3.228-.738-1.721-1.068-1.388-2.549-2.831-3.329-1.267-.685-2.987-.108-4.002.708-1.577,1.27-1.084,2.825-2.533,3.613-.937.509-1.164-.13-3.576.189-1.603.212-2.237.592-2.682.142-.624-.63-.187-2.192-.106-2.479.464-1.658,1.517-3.365,3.423-5.004,4.458-3.835,4.369-3.098,5.177-3.402,2.261-.853,4.315-.542,5.364-.284,1.828.45,3.053,1.342,3.661,1.795.61.454,3.276,2.528,4.3,6.234Z"/><path class="cls-1" d="m783.622,627.263c-.438-1.898-.106-2.366-.001-2.482.293-.327.764-.341,2.883.104,2.009.422,3.013.633,3.383.884,1.675,1.137,1.26,2.607,2.687,3.473,1.236.75,2.979.264,4.027-.499,1.629-1.186,1.202-2.766,2.683-3.477.958-.46,1.157.191,3.58-.003,1.61-.129,2.259-.474,2.685-.002.597.662.094,2.2.001,2.482-.534,1.632-1.658,3.282-3.631,4.821-4.616,3.598-4.496,2.867-5.315,3.129-2.294.734-4.333.316-5.37.004-1.807-.545-2.993-1.5-3.581-1.983-.59-.485-3.165-2.696-4.032-6.451Z"/><path class="cls-1" d="m805.653,614.664c.24.937.511,1.949.06,2.481-.273.322-.728.373-3.63-.181-1.581-.302-2.377-.456-2.657-.626-1.678-1.014-1.361-2.593-2.768-3.394-1.253-.714-2.984-.178-4.014.616-1.601,1.233-1.137,2.8-2.601,3.553-.947.487-1.161-.157-3.579.106-1.606.175-2.247.54-2.684.079-.612-.645-.146-2.196-.06-2.481.495-1.647,1.58-3.329,3.517-4.924,4.53-3.73,4.427-2.996,5.24-3.281,2.276-.8,4.324-.442,5.368-.159,1.819.492,3.027,1.413,3.627,1.879.601.468,3.227,2.604,4.182,6.332Z"/><path class="cls-1" d="m777.931,563.303c-2.48-.702-3.094-.167-3.246,0-.41.45-.468,1.183.134,4.695.543,3.17.814,4.755,1.165,5.386,1.493,2.687,3.413,2.032,4.544,4.32.982,1.988.348,4.793-.649,6.481-1.55,2.622-3.615,1.937-4.544,4.32-.6,1.542.251,1.861,0,5.761-.166,2.59-.618,3.636,0,4.32.867.96,2.876.149,3.246,0,2.133-.86,4.157-2.224,6.167-5.401,4.701-7.43,3.877-7.682,4.219-9.001.958-3.692.41-6.972,0-8.641-.714-2.906-1.964-4.814-2.597-5.761-.634-.949-3.528-5.09-8.439-6.481Z"/><path class="cls-1" d="m761.743,562.892c1.066-.302,2.626-.792,3.246,0,.531.679-.047,1.756-.555,4.387-.747,3.866-.003,4.153-.743,5.694-1.259,2.622-3.365,1.933-4.544,4.32-.982,1.988-.348,4.793.649,6.481,1.55,2.622,3.615,1.937,4.544,4.32.6,1.542-.251,1.861,0,5.761.166,2.59.618,3.636,0,4.32-.867.96-2.876.149-3.246,0-2.133-.86-4.29-2.67-6.3-5.847-4.701-7.43-3.744-7.236-4.086-8.555-.958-3.692-.41-6.972,0-8.641.714-2.906,1.964-4.814,2.597-5.761.634-.949,3.528-5.09,8.439-6.481Z"/></g><g><path class="cls-1" d="m1538.653,147.17c2.141,11.082,1.155,19.603,1.155,19.603-1.935,16.725-.678,33.785-.77,50.681-.123,22.526.713,17.973.77,46.856.058,29.104.087,43.657,0,43.987-.161.608-.789,2.817,0,4.781,1,2.492,3.721,3.194,6.162,3.825,3.052.788,4.907,1.267,6.162,0,1.486-1.5,1.027-4.332.77-10.519-.296-7.132.286-4.065,0-14.344-.316-11.341-1.011-14.597.77-16.256,1.232-1.148,2.546-.504,6.162,0,2.871.4,1.446-.09,12.325,0,11.359.094,15.176.646,16.176-1.912.074-.19.026-.122,0-3.825-.037-5.399-.056-8.098,0-8.606.178-1.617.388-2.32,0-2.869-.574-.811-1.618-.101-3.851,0-3.151.142-4.593-1.113-5.392,0-.594.827-.041,1.86-.77,2.869-.251.347-.707.765-2.311.956-2.29.273-4.041.482-5.392-.956-.918-.977-1.191-2.225-1.541-3.825-.402-1.837-.846-3.867,0-5.737.96-2.123,2.948-2.636,3.851-2.869.464-.12,3.469-.895,4.622.956.794,1.276-.028,2.615.77,3.825.58.879,1.555.994,3.851.956,4.262-.07,6.393-.104,6.933-.956,1.053-1.662-.534-3.547-.77-9.562-.181-4.602.675-5.349,0-6.694-1.372-2.734-5.971-1.767-16.176,0-10.907,1.889-16.428,2.543-18.487,0-2.285-2.823-.923-6.591-.385-21.516.282-7.809.151-13.495,0-20.081-.38-16.576-1.541-29.644-1.541-29.644-.348-3.921-1.038-11.007.385-19.603.622-3.759,1.406-6.356,3.081-8.606,2.931-3.938,7.005-4.638,8.473-4.781,3.53-.344,6.182,1.147,9.244,2.869,4.615,2.595,4.332,4.008,7.703,5.737,1.332.683,7.789,3.996,13.865,0,4.684-3.081,6.379-8.689,6.933-10.519.505-1.669,2.795-9.245,0-13.387-1.545-2.29-3.743-2.197-3.851-3.825-.121-1.807,2.552-2.48,4.622-5.737,1.963-3.091,2.186-6.623,2.311-8.606.056-.887.51-9.861-4.622-15.3-3.85-4.08-8.731-3.933-12.325-3.825-6.584.198-7.839,3.207-12.325,1.912-3.363-.97-7.434-4.039-8.473-8.606-.839-3.687,1.06-5.002,2.311-12.431.842-4.999,1.964-11.663-.77-17.212-.302-.613-2.65-5.232-6.933-6.694-4.307-1.47-7.088,1.442-9.244-.956-1.791-1.992-1.582-5.908-1.541-6.694.189-3.547,1.717-4.21,1.541-6.694-.209-2.934-2.677-6.694-6.162-6.694s-5.941,3.768-6.162,6.694c-.173,2.287,1.105,2.881,1.541,6.694.207,1.809.584,5.11-.77,6.694-1.401,1.638-3.322-.116-7.703,0-1.965.052-5.714.151-8.473,2.869-2.9,2.856-3.462,7.38-3.851,10.519-.722,5.813.277,10.954,1.541,17.212,1.45,7.184,2.572,8.995,1.541,11.475-1.499,3.604-5.799,4.42-7.703,4.781-2.712.514-4.926.031-9.244-.956-5.44-1.244-5.88-2.137-8.473-1.912-1.355.117-5.026.434-7.703,3.825-2.993,3.791-3.613,9.991-2.311,14.344.7,2.34,2.597,6.286,4.622,9.562.999,1.616,1.748,2.616,1.541,3.825-.38,2.207-3.378,1.784-5.392,4.781-1.691,2.518-1.594,5.821-1.541,7.65.138,4.68,2.077,7.897,3.081,9.562.872,1.446,3.04,5.043,6.933,6.694,2.805,1.19,5.087.768,9.244,0,3.434-.634,5.97-1.602,9.244-2.869,6.962-2.695,7.695-3.886,10.784-3.825,1.372.027,4.82.047,7.703,2.869,2.095,2.051,3.252,4.948,4.237,10.041Z"/><path class="cls-1" d="m1537.497,113.223c.824-3.461-.445-6.795-.77-7.65-1.064-2.796-2.757-4.289-9.244-8.606-6.053-4.028-9.079-6.043-10.784-6.694-3.608-1.378-6.77-1.556-13.095-1.912-.744-.042-3.216-.155-6.162.956-1.757.663-3.229,1.246-3.851,2.869-.666,1.735.023,3.655.77,5.737.692,1.93,1.615,4.501,3.851,5.737,1.396.772,3.827,1.312,4.622,0,1.263-2.086-2.64-7.148-1.541-8.606.814-1.08,3.626.805,3.851.956.429.288,3.98,2.668,3.851,5.737-.102,2.44-2.429,2.883-3.081,6.694-.142.83-.306,1.79,0,2.869.559,1.969,2.016,1.966,3.081,3.825,1.046,1.825.892,4.011.77,5.737-.143,2.024-.353,5.005-2.311,6.694-2.49,2.148-5.63.328-6.162,0-.223-.137-2.492-1.563-2.311-2.869.164-1.18,2.126-.819,3.851-2.869.896-1.064,2.064-3.178,1.541-4.781-.616-1.885-3.254-2.096-4.622-1.912-2.086.281-4.346,1.902-5.392,4.781-1.134,3.121-.227,6.028,0,6.694.844,2.478,2.4,3.669,3.851,4.781.673.515,4.221,3.232,8.473,2.869,4.034-.345,5.993-3.229,10.014-6.694,11.135-9.595,19.122-7.303,20.798-14.344Z"/><path class="cls-1" d="m1555.481,114.725c-.824-3.461.445-6.795.77-7.65,1.064-2.796,2.757-4.289,9.244-8.606,6.053-4.028,9.079-6.043,10.784-6.694,3.608-1.378,6.77-1.556,13.095-1.912.744-.042,3.216-.155,6.162.956,1.757.663,3.229,1.246,3.851,2.869.666,1.735-.023,3.655-.77,5.737-.692,1.93-1.615,4.501-3.851,5.737-1.396.772-3.827,1.312-4.622,0-1.263-2.086,2.64-7.148,1.541-8.606-.814-1.08-3.626.805-3.851.956-.429.288-3.98,2.668-3.851,5.737.102,2.44,2.429,2.883,3.081,6.694.142.83.306,1.79,0,2.869-.559,1.969-2.016,1.966-3.081,3.825-1.046,1.825-.892,4.011-.77,5.737.143,2.024.353,5.005,2.311,6.694,2.49,2.148,5.63.328,6.162,0,.223-.137,2.492-1.563,2.311-2.869-.164-1.18-2.126-.819-3.851-2.869-.896-1.064-2.064-3.178-1.541-4.781.616-1.885,3.254-2.096,4.622-1.912,2.086.281,4.346,1.902,5.392,4.781,1.134,3.121.227,6.028,0,6.694-.844,2.478-2.4,3.669-3.851,4.781-.673.515-4.221,3.232-8.473,2.869-4.034-.345-5.993-3.229-10.014-6.694-11.135-9.595-19.122-7.303-20.798-14.344Z"/><path class="cls-1" d="m1543.057,97.422c2.768,1.104,5.483-.392,6.179-.775,2.277-1.255,3.519-3.321,7.149-11.269,3.387-7.417,5.08-11.125,5.645-13.226,1.195-4.445,1.413-8.366,1.849-16.207.051-.922.201-3.987-.625-7.67-.492-2.196-.927-4.036-2.219-4.848-1.381-.867-2.944-.058-4.639.821-1.571.814-3.663,1.898-4.711,4.644-.655,1.715-1.147,4.719-.109,5.736,1.65,1.617,5.819-3.107,6.967-1.709.85,1.036-.734,4.481-.861,4.757-.242.525-2.243,4.877-4.711,4.644-1.963-.185-2.264-3.083-5.318-3.982-.665-.196-1.435-.423-2.31-.068-1.599.648-1.631,2.456-3.153,3.734-1.495,1.255-3.251,1.012-4.639.821-1.627-.225-4.022-.556-5.336-3.026-1.671-3.141-.131-6.994.146-7.648.116-.273,1.317-3.056,2.365-2.8.946.231.61,2.658,2.219,4.848.836,1.137,2.511,2.637,3.814,2.025,1.532-.72,1.765-3.989,1.649-5.691-.177-2.595-1.429-5.438-3.723-6.805-2.486-1.481-4.849-.424-5.391-.158-2.016.989-3.012,2.891-3.941,4.667-.431.823-2.703,5.162-2.51,10.448.182,5.014,2.459,7.514,5.154,12.586,7.464,14.046,5.429,23.904,11.06,26.15Z"/></g><g><rect class="cls-1" x="252.487" y="905.666" width="119.335" height="103.341" rx="12.592" ry="12.592"/><path class="cls-1" d="m268.481,896.439c-.015-4.116-.461-7.574-.615-9.227-.726-7.807,1.347-15.398,1.845-17.224.819-3,2.831-10.081,8.612-17.224,7.5-9.268,16.917-13.17,22.145-14.763,4.573-1.393,11.634-3.545,19.684-1.23,3.508,1.009,6.235,2.723,11.687,6.151,5.74,3.609,9.267,5.826,12.918,9.842,5.406,5.946,7.648,12.057,8.612,14.763,1.725,4.847,2.175,10.203,3.076,20.914.689,8.195,1.033,12.292.615,13.533-.136.403-.614,1.729,0,2.461.697.831,2.223.205,4.921,0,4.158-.316,5.092.824,6.151,0,1.696-1.319.376-5.075-.615-10.457-1.165-6.326-.317-6.434-1.23-13.533-.675-5.245-1.638-12.728-4.921-20.299-5.733-13.222-15.849-20.502-19.069-22.76-3.236-2.269-10.542-7.274-21.529-9.227-12.866-2.287-23.096.977-27.066,2.461-3.564,1.332-15.332,6.182-23.99,18.454-1.899,2.692-7.996,11.902-9.227,23.99-.538,5.281-.313,12.739-1.23,19.684-.323,2.448-.198,4.948-.615,7.382-.373,2.177-.914,4.292,0,4.921.338.233.643.102,1.845,0,.907-.077,1.835-.052,3.691,0,3.132.087,3.789.539,4.306,0,.529-.553.214-1.419,0-3.076-.262-2.027.012-2.26,0-5.536Z"/><path class="cls-1" d="m314.923,955.799c.687-1.102,1.578-.849,2.461-1.845,1.385-1.564,1.329-4.599,0-6.766-1.176-1.917-3.506-3.411-6.151-3.076-3.315.42-4.789,3.409-4.921,3.691-.079.169-1.421,3.137,0,5.536,1.126,1.902,2.835,1.501,3.691,3.076.947,1.742-.424,3.56-1.845,7.382-.21.564-.96,4.067-2.461,11.072-1.387,6.477-1.676,8.107-.615,9.227.668.706,2.086.88,4.921,1.23,1.887.233,3.772.45,6.151,0,1.976-.374,3.481-.659,4.306-1.845.812-1.168.522-2.571,0-4.921-1.618-7.284-2.427-10.925-3.076-12.303-.707-1.503-1.697-3.285-2.461-6.151-.554-2.082-.613-3.324,0-4.306Z"/><path class="cls-1" d="m311.242,936.115c.306.018.409-2.208,1.226-4.922.4-1.329,1.548-5.013,4.3-8,3.057-3.317,6.392-3.928,6.147-4.926-.241-.983-3.357.111-6.153-1.841-2.68-1.872-2.865-5.009-4.31-4.918-.698.044-.783.784-2.459,2.462-.648.649-1.759,1.761-3.074,2.463-2.784,1.486-5.335.518-5.535,1.235-.162.579,1.509,1.18,3.693,3.073.888.769,2.516,2.181,3.694,4.303,1.133,2.041,1.427,3.976,1.851,6.765.403,2.655.356,4.29.618,4.305Z"/><path class="cls-1" d="m326.284,954.01c-.018.306,2.207.41,4.921,1.228,1.329.401,5.013,1.55,7.998,4.303,3.316,3.058,3.925,6.394,4.923,6.15.983-.24-.11-3.357,1.843-6.152,1.873-2.68,5.01-2.863,4.919-4.308-.044-.698-.784-.783-2.461-2.46-.648-.648-1.76-1.759-2.462-3.075-1.485-2.785-.516-5.335-1.232-5.536-.579-.162-1.18,1.509-3.074,3.692-.77.887-2.182,2.515-4.305,3.692-2.041,1.132-3.977,1.425-6.766,1.848-2.655.402-4.29.354-4.306.617Z"/><path class="cls-1" d="m298.741,954.924c.005-.306-2.222-.319-4.968-1.025-1.344-.346-5.072-1.343-8.168-3.971-3.439-2.919-4.185-6.227-5.172-5.942-.973.281.248,3.35-1.589,6.222-1.761,2.754-4.888,3.067-4.738,4.506.072.695.815.75,2.56,2.357.674.621,1.831,1.686,2.586,2.971,1.598,2.721.734,5.309,1.458,5.48.585.138,1.117-1.556,2.92-3.815.733-.918,2.076-2.602,4.149-3.866,1.993-1.215,3.915-1.587,6.684-2.124,2.637-.511,4.272-.53,4.277-.793Z"/><path class="cls-1" d="m300.796,940.375c.132-.177-1.166-1.125-2.473-2.698-.64-.77-2.4-2.928-3.102-5.773-.779-3.16.181-5.41-.516-5.66-.688-.247-1.27,2.065-3.557,2.969-2.194.868-4.155-.27-4.675.635-.251.437.16.783.503,2.46.132.648.36,1.759.258,2.83-.214,2.267-1.812,3.416-1.461,3.822.284.328,1.311-.438,3.319-.999.816-.228,2.314-.646,4.06-.51,1.679.131,2.961.724,4.808,1.58,1.758.815,2.724,1.494,2.837,1.342Z"/><path class="cls-1" d="m326.377,938.264c.126.182,1.436-.75,3.341-1.494.933-.364,3.536-1.352,6.457-1.118,3.244.259,5.076,1.882,5.533,1.299.451-.574-1.558-1.857-1.693-4.313-.13-2.355,1.57-3.857.875-4.636-.336-.377-.794-.096-2.493-.3-.657-.079-1.783-.215-2.767-.65-2.083-.92-2.668-2.799-3.165-2.594-.401.166.002,1.382-.102,3.465-.042.847-.119,2.399-.8,4.013-.655,1.552-1.623,2.58-3.018,4.062-1.329,1.411-2.278,2.112-2.17,2.267Z"/><path class="cls-1" d="m317.999,1000.703c-.272.059-1.977.4-3.076-.615-1.352-1.25-.787-3.633,0-4.921,1.193-1.952,3.673-2.657,5.536-2.461,1.592.168,2.907,1.137,5.536,3.076,2.272,1.675,2.535,2.265,3.691,2.461,2.013.34,3.811-1.011,4.921-1.845,3.364-2.529,3.222-5.117,6.151-6.151,1.266-.447,2.832-.507,3.076,0,.304.632-1.454,2.128-1.845,2.461-1.698,1.445-2.743,1.473-3.076,2.461-.067.199-.226.795.615,2.461.685,1.356,1.765,3.496,4.306,4.921,2.194,1.231,4.232,1.23,5.536,1.23,1.486,0,4.229,0,6.766-1.845.66-.48,4.212-3.197,3.691-6.766-.042-.285-.428-2.669-2.461-3.691-1.877-.943-4.703-.495-5.536,1.23-.453.938-.177,1.964,0,2.461"/><path class="cls-1" d="m306.462,1000.049c.272.059,1.977.4,3.076-.615,1.352-1.25.787-3.633,0-4.921-1.193-1.952-3.673-2.657-5.536-2.461-1.592.168-2.907,1.137-5.536,3.076-2.272,1.675-2.535,2.265-3.691,2.461-2.013.34-3.811-1.011-4.921-1.845-3.364-2.529-3.222-5.117-6.151-6.151-1.266-.447-2.832-.507-3.076,0-.304.632,1.454,2.128,1.845,2.461,1.698,1.445,2.743,1.473,3.076,2.461.067.199.226.795-.615,2.461-.685,1.356-1.765,3.496-4.306,4.921-2.194,1.231-4.232,1.23-5.536,1.23-1.486,0-4.229,0-6.766-1.845-.66-.48-4.212-3.197-3.691-6.766.042-.285.428-2.669,2.461-3.691,1.877-.943,4.703-.495,5.536,1.23.453.938.177,1.964,0,2.461"/><path class="cls-1" d="m359.52,980.712c-.115.074-1.957,1.294-1.845,3.076.123,1.963,2.505,2.861,3.076,3.076,1.828.689,3.96.395,5.536-.615,3.48-2.229,3.13-7.224,3.076-7.997-.177-2.526-1.317-4.317-2.461-6.151-.77-1.234-1.906-3.022-3.998-4.613-1.761-1.339-4.726-3.595-8.304-2.768-3.859.892-5.44,4.677-5.536,4.921-.397,1.009-1.394,3.54,0,4.921,1.04,1.029,3.083,1.097,4.921,0"/><path class="cls-1" d="m270.469,975.418c.075.115,1.317,1.941,3.097,1.809,1.961-.146,2.831-2.539,3.039-3.112.667-1.836.347-3.964-.681-5.528-2.27-3.454-7.261-3.044-8.033-2.98-2.523.207-4.301,1.368-6.122,2.534-1.225.784-2.999,1.942-4.565,4.053-1.318,1.776-3.538,4.768-2.669,8.337.938,3.848,4.741,5.384,4.987,5.477,1.014.385,3.557,1.352,4.921-.059,1.017-1.052,1.06-3.096-.059-4.921"/><path class="cls-1" d="m265.21,930.495c.108-.084,1.829-1.469,1.553-3.233-.304-1.943-2.759-2.617-3.347-2.778-1.883-.517-3.979-.027-5.456,1.124-3.26,2.541-2.449,7.483-2.323,8.247.41,2.498,1.71,4.177,3.018,5.898.88,1.158,2.178,2.833,4.408,4.224,1.877,1.171,5.038,3.143,8.524,1.989,3.76-1.245,4.984-5.159,5.058-5.412.303-1.042,1.061-3.654-.455-4.9-1.13-.929-3.171-.807-4.9.455"/><path class="cls-1" d="m279.305,917.142c-.034.111-.555,1.903.491,2.991,1.152,1.198,3.178.475,3.663.302,1.555-.555,2.768-1.909,3.233-3.422,1.026-3.339-1.929-6.368-2.387-6.836-1.494-1.531-3.208-2.064-4.947-2.621-1.171-.375-2.88-.907-5.099-.79-1.867.098-5.011.264-6.866,2.753-2.001,2.684-.952,5.987-.88,6.198.295.868,1.035,3.044,2.689,3.173,1.233.096,2.587-.977,3.173-2.689"/><path class="cls-1" d="m351.801,916.384c-.01.115-.145,1.977,1.105,2.823,1.377.931,3.207-.199,3.646-.47,1.404-.867,2.308-2.446,2.446-4.022.305-3.479-3.218-5.824-3.763-6.186-1.781-1.185-3.568-1.348-5.386-1.529-1.223-.122-3.006-.285-5.151.294-1.805.487-4.845,1.306-6.139,4.127-1.396,3.043.321,6.054.434,6.245.47.787,1.649,2.761,3.293,2.541,1.225-.164,2.326-1.496,2.541-3.293"/><path class="cls-1" d="m353.1,935.409c-.082-.11-1.422-1.865-3.193-1.634-1.95.255-2.685,2.692-2.862,3.276-.564,1.87-.127,3.977.986,5.482,2.458,3.323,7.419,2.637,8.186,2.53,2.508-.347,4.219-1.605,5.972-2.869,1.18-.851,2.887-2.105,4.334-4.3,1.218-1.847,3.269-4.957,2.203-8.472-1.15-3.791-5.032-5.113-5.282-5.192-1.034-.329-3.626-1.153-4.91.331-.957,1.107-.887,3.15.331,4.91"/><path class="cls-1" d="m263.252,945.957c.314.205,1.407.974,1.845,2.461.082.277.402,1.362,0,2.461-.322.882-1.047,1.599-4.306,3.076-3.447,1.562-4.909,1.79-4.921,2.461-.013.749,1.797,1.391,3.076,1.845,2.272.807,2.937.441,4.306,1.23.24.138,2.477,1.461,2.461,3.076-.016,1.591-2.219,3.328-5.536,3.691"/><path class="cls-1" d="m361.876,965.71c-.321-.194-1.44-.925-1.93-2.395-.091-.274-.449-1.347-.085-2.459.292-.893.99-1.634,4.197-3.223,3.391-1.68,4.844-1.96,4.833-2.63-.013-.749-1.844-1.328-3.138-1.738-2.298-.727-2.951-.339-4.346-1.08-.244-.13-2.526-1.374-2.566-2.988-.039-1.591,2.102-3.403,5.405-3.881"/><path class="cls-1" d="m309.079,907.511c.028.534-.003,1.537-.615,2.461-1.185,1.788-3.59,1.832-4.306,1.845-1.423.026-2.421-.4-4.306-1.23-2.934-1.292-3.04-2.014-4.921-2.461-.996-.236-3.325-.789-4.921.615-.946.832-1.554,2.281-1.23,3.691.404,1.763,2.182,3.101,4.306,3.076"/><path class="cls-1" d="m315.656,907.766c-.028.534.003,1.537.615,2.461,1.185,1.788,3.59,1.832,4.306,1.845,1.423.026,2.421-.4,4.306-1.23,2.934-1.292,3.04-2.014,4.921-2.461.996-.236,3.325-.789,4.921.615.946.832,1.554,2.281,1.23,3.691-.404,1.763-2.182,3.101-4.306,3.076"/></g><g><path class="cls-1" d="m1280.07,878.208c-.161,3.675.552,6.514.726,7.257.771,3.294.985,8.229.726,22.498-.339,18.646-1.205,37.828-1.451,53.705-.58,37.314,2.054,69.53.726,74.025-.081.273-.508,1.566,0,2.903.762,2.007,3.115,2.755,3.629,2.903.288.083,3.431.942,5.08-.726.859-.868.772-1.875.726-5.806-.089-7.548.202-6.173,0-8.709-.367-4.604-1.099-6.279,0-7.257.867-.772,1.667-.036,4.354-.726,1.345-.345,3.08-.79,4.354-2.177,1.453-1.582.889-2.846,2.177-3.629,1.336-.812,3.576-.446,4.354.726.8,1.203-.552,2.339,0,4.354.635,2.321,3.141,3.427,3.629,3.629,2.011.833,4.979.888,6.532-.726,1.23-1.278.647-2.643.726-7.257.116-6.794,1.465-8.896,0-10.16-.59-.51-2.579-.347-6.532,0-1.87.164-3.908.109-7.983,0-.714-.019-1.839-.063-2.177-.726-.317-.621.141-1.619.726-2.177,1.284-1.226,3.255-.408,7.257,0,4.167.425,6.682.681,7.983-.726.678-.733.456-1.3.726-5.806.307-5.119.676-5.764,0-6.532-1.131-1.283-2.613.014-7.983-.726-2.331-.321-3.558-.773-4.354,0-.704.683-.713,1.974-.726,3.629-.015,1.944.358,2.32,0,2.903-.889,1.45-4.7,1.589-5.806,0-1.084-1.557,1.063-3.866,0-5.08-1.056-1.207-3.61.577-5.806-.726-1.499-.889-1.945-2.691-2.177-3.629-2.258-9.119.726-60.962.726-60.962,1.102-19.147-.613-30.275.726-37.013.339-1.706,1.319-5.37,0-9.435-.473-1.458-1.008-2.247-1.451-4.354-.518-2.463-.971-4.616,0-6.532,1.337-2.638,4.199-2.508,4.354-4.354.14-1.658-2.122-2.313-2.177-4.354-.041-1.518,1.167-2.708,2.177-3.629,4.134-3.769,6.84-4.759,10.16-7.257,3.26-2.453,6.458-4.86,7.257-8.709.728-3.504-1.192-5.023,0-7.257,1.486-2.786,5.337-2.051,10.16-3.629,8.661-2.834,13.308-10.789,14.515-13.063,1.272-2.397,4.145-8.699,2.903-16.692-.22-1.414-2.015-12.965-10.16-16.692-3.363-1.539-7.283-1.503-13.063-1.451-6.059.054-8.833.991-10.16-.726-1.3-1.682.564-3.613.726-9.435.093-3.347.176-6.333-1.451-8.709-2.033-2.968-5.69-3.46-12.338-4.354-7.345-.988-11.113-1.495-15.24.726-.873.47-6.675,3.591-7.257,8.709-.478,4.202,2.928,6.543,1.451,10.16-.903,2.213-2.975,3.289-3.629,3.629-3.505,1.82-6.193.064-10.886,0-.747-.01-7.774-.015-13.063,4.354-4.86,4.015-5.93,9.805-6.532,13.063-.518,2.804-1.307,9.553,2.177,16.692.864,1.769,3.347,6.703,8.709,10.16,7.31,4.713,13.924,2.782,15.966,7.257,1.049,2.299-.501,3.237.726,6.532.647,1.738,1.513,2.644,6.532,7.257,1.709,1.571,4.692,4.3,7.983,7.983,2.299,2.572,3.062,3.724,2.903,5.08-.282,2.396-3.186,3.202-2.903,5.08.225,1.492,2.13,1.463,2.903,3.629.417,1.169.238,2.227,0,3.629-.327,1.926-.884,2.531-1.451,4.354-.586,1.884-.651,3.362-.726,5.08Z"/><path class="cls-1" d="m1296.762,823.052c-3.912-2.282-7.832-2.222-9.435-2.177-4.884.136-8.202,2.067-10.886,3.629-2.551,1.485-4.869,2.876-5.08,5.08-.093.97.25,1.816,1.451,3.629,2.348,3.542,4.913,6.154,8.709,9.435,3.713,3.209,4.658,3.646,5.806,3.629.998-.015,1.665-.365,5.08-2.903,5.663-4.207,7.26-5.792,7.983-6.532,2.394-2.449,3.591-3.701,3.629-5.08.069-2.53-2.422-4.783-4.354-6.532-.61-.552-1.533-1.378-2.903-2.177Z"/><path class="cls-1" d="m1294.585,785.314c-.797-.442-3.57-1.86-7.257-1.451-5.09.565-8.003,4.175-8.709,5.08-2.762,3.539-2.88,7.347-2.903,8.709-.026,1.543-.124,7.45,4.354,10.886,3.109,2.385,6.668,2.233,7.983,2.177,1.094-.047,5.337-.293,8.709-3.629,2.579-2.551,3.241-5.518,3.629-7.257.357-1.602.93-4.17,0-7.257-.269-.892-1.596-4.924-5.806-7.257Z"/><path class="cls-1" d="m1318.534,783.863c-1.574-.379-1.889-.205-8.709,0-3.088.093-4.037.088-4.354.726-.482.969,1.147,2.107,2.177,5.08.407,1.174.513,2.234.726,4.354.456,4.551.684,6.826,0,8.709-.521,1.432-1.799,2.89-4.354,5.806-2.469,2.816-3.536,3.496-3.629,5.08-.119,2.034,1.481,3.651,2.177,4.354,2.303,2.327,5.296,2.675,7.257,2.903,1.147.133,3.999.434,7.257-.726,4.767-1.696,7.221-5.383,9.435-8.709,1.943-2.92,4.086-6.14,4.354-10.886.083-1.473.254-5.455-2.177-9.435-1.794-2.937-4.163-4.492-5.08-5.08-2.154-1.381-4.127-1.948-5.08-2.177Z"/><path class="cls-1" d="m1257.489,785.588c1.574-.379,1.889-.205,8.709,0,3.088.093,4.037.088,4.354.726.482.969-1.147,2.107-2.177,5.08-.407,1.174-.513,2.234-.726,4.354-.456,4.551-.684,6.826,0,8.709.521,1.432,1.799,2.89,4.354,5.806,2.469,2.816,3.536,3.496,3.629,5.08.119,2.034-1.481,3.651-2.177,4.354-2.303,2.327-5.296,2.675-7.257,2.903-1.147.133-3.999.434-7.257-.726-4.767-1.696-7.221-5.383-9.435-8.709-1.943-2.92-4.086-6.14-4.354-10.886-.083-1.473-.254-5.455,2.177-9.435,1.794-2.937,4.163-4.492,5.08-5.08,2.154-1.381,4.127-1.948,5.08-2.177Z"/><path class="cls-1" d="m1282.177,775.125c2.825,1.488,5.585,1.325,6.713,1.245,3.436-.245,5.715-1.707,7.557-2.89,1.752-1.124,3.342-2.175,3.423-3.734.036-.686-.232-1.272-1.134-2.512-1.763-2.423-3.649-4.185-6.424-6.379-2.714-2.146-3.393-2.425-4.201-2.378-.702.041-1.161.308-3.49,2.201-3.86,3.137-4.937,4.302-5.424,4.846-1.611,1.798-2.416,2.717-2.401,3.69.029,1.784,1.853,3.295,3.267,4.468.447.37,1.122.924,2.112,1.445Z"/></g><g><path class="cls-1" d="m1077.972,352.82c-.727.615-2.135.623-4.921.615-2.805-.008-4.208-.013-4.921-.615-1.272-1.075-.974-3.03-.615-7.382.287-3.48.335-6.977.615-10.457.542-6.738.265-6.868.615-10.457.285-2.922.947-9.283,3.691-16.608,2.746-7.329,6.316-12.25,8.612-15.378,2.475-3.373,6.092-8.223,12.303-12.918,2.941-2.223,7.159-5.354,13.533-7.382,5.762-1.833,10.437-1.857,14.763-1.845,5.152.014,10.794.03,17.224,2.461,8.086,3.057,12.862,8.21,17.224,12.918,7.158,7.725,10.587,15.249,11.687,17.839,3.346,7.874,4.272,14.821,4.921,19.684.46,3.446.202,3.11,1.23,12.918.321,3.066.365,6.155.615,9.227.397,4.876.667,6.74-.615,7.997-1.098,1.076-2.748,1.133-5.536,1.23-2.538.088-3.915.136-4.921-.615-2.093-1.563-1.112-5.492-.615-10.457,0,0,.719-7.192-.615-17.839-.863-6.884-2.681-11.981-3.691-14.763-1.622-4.467-3.752-10.437-8.612-16.608-2.979-3.783-7.415-9.416-15.378-12.918-12.733-5.599-24.747-1.465-27.066-.615-9.178,3.364-14.384,9.491-17.224,12.918-1.03,1.244-9.315,11.41-11.072,25.835-.397,3.259-.67,8.45-.615,13.533.047,4.306-.465,8.637,0,12.918.325,2.997.841,5.534-.615,6.766Z"/><path class="cls-1" d="m1080.74,353.743c.662.833.646,1.991.615,4.306-.027,1.986-.04,2.979-.615,3.691-1.016,1.258-2.808.729-7.382.615-6.11-.153-7.48.676-8.612-.615-1.6-1.825-.736-5.62-.615-6.151.213-.935.267-1.414.615-1.845,1.139-1.409,3.323-.775,7.382-.615,5.71.224,7.493-.792,8.612.615Z"/><path class="cls-1" d="m1176.343,355.352c.662.833.646,1.991.615,4.306-.027,1.986-.04,2.979-.615,3.691-1.016,1.258-2.808.729-7.382.615-6.11-.153-7.48.676-8.612-.615-1.6-1.825-.736-5.62-.615-6.151.213-.935.267-1.414.615-1.845,1.139-1.409,3.323-.775,7.382-.615,5.71.224,7.493-.792,8.612.615Z"/><path class="cls-1" d="m1173.932,364.508c1.353,1.221.16,3.552-.615,9.842-.342,2.773-.08,1.966-.615,7.997-.543,6.117-.732,6.041-.615,7.382.281,3.228,1.433,4.352,3.691,9.227,0,0,2.332,5.036,4.306,11.687.964,3.248,2.077,6.997,2.461,11.687.32,3.907.89,10.879-2.461,17.839-2.612,5.426-6.37,8.274-11.687,12.303-9.032,6.843-17.623,9.645-20.299,10.457-7.672,2.329-14.137,2.373-27.066,2.461-13.707.093-20.74.087-29.526-2.461-4.974-1.442-11.91-3.527-19.069-9.227-3.777-3.007-9.919-7.897-12.918-16.608-2.87-8.34-1.374-15.866-.615-19.684,1.046-5.26,3.01-9.875,4.306-12.918,2.947-6.921,3.874-6.565,4.921-10.457,1.252-4.654.835-8.639,0-16.608-.977-9.332-2.314-13.905-.615-14.763.568-.287.945.093,4.306,0,2.036-.057,2.118-.202,2.461,0,1.281.756,1.076,3.795.615,9.842-.051.666-.145,1.626-.145,2.973.001,2.324.325,3.652.145,9.945-.151,5.252-.226,7.878-.615,9.842-.815,4.113-1.985,5.766-5.536,13.533-3.131,6.848-4.697,10.273-4.921,11.687-1.222,7.721,2.735,14.365,5.536,19.069,1.801,3.024,5.808,9.581,13.533,14.148,4.884,2.887,9.642,4.026,22.145,4.921,20.942,1.499,31.412,2.248,42.444-1.23,7.575-2.389,16.11-5.211,22.145-13.533,5.246-7.234,6.002-15.039,6.151-17.224.472-6.884-1.355-12.239-2.461-15.378-2.888-8.198-5.248-7.396-7.382-14.763-1.352-4.667-1.526-8.881-1.845-16.608-.227-5.482.233-3.969,0-8.612-.217-4.32-.656-6.439.615-7.382.379-.281.739-.33,4.921,0,3.825.302,4.051.385,4.306.615Z"/><path class="cls-1" d="m1081.663,360.202c2.28.602,5.799,1.449,10.15,2.153,7.601,1.23,11.663,1.037,29.834.923,15.772-.099,19.106.006,26.45-.615,4.58-.387,8.388-.86,11.072-1.23"/><path class="cls-1" d="m1074.897,363.892c1.221.886,2.872,1.983,4.921,3.076,1.256.67,3.975,2.103,7.382,3.076,3.144.898,5.787,1.009,11.072,1.23,5.059.212,6.169-.084,9.227.615,3.173.725,5.039,1.743,6.151,2.461,1.432.924,3.203,2.066,4.306,4.306.529,1.074,1.648,3.347.615,5.536-.894,1.894-3.081,3.054-5.536,3.076"/><path class="cls-1" d="m1165.119,363.922c-1.221.886-2.872,1.983-4.921,3.076-1.256.67-3.975,2.103-7.382,3.076-3.144.898-5.787,1.009-11.072,1.23-5.059.212-6.169-.084-9.227.615-3.173.725-5.039,1.743-6.151,2.461-1.432.924-3.203,2.066-4.306,4.306-.529,1.074-1.648,3.347-.615,5.536.894,1.894,3.081,3.054,5.536,3.076"/><path class="cls-1" d="m1121.646,406.336c-1.476-.285-3.422-.662-4.921.615-1.411,1.201-1.855,3.38-1.23,4.921.666,1.643,2.092,1.444,3.076,3.076.936,1.553.597,3.282,0,6.151-.285,1.372-.847,3.595-2.461,7.382-2.029,4.763-2.97,5.544-2.461,6.766.935,2.245,5.264,2.39,7.382,2.461,2.001.067,6.473.216,7.382-1.845.598-1.357-.938-2.333-3.691-7.997-.764-1.571-1.772-3.813-2.461-6.766-.904-3.878-.335-5.033,0-5.536.909-1.367,2.182-.944,3.076-2.461.779-1.322,1.056-3.404,0-4.921-.91-1.307-2.393-1.594-3.691-1.845Z"/><path class="cls-1" d="m1157.324,388.349c.338-2.332-1.385-4.277-1.845-4.797-.103-.116-2.409-2.649-5.536-2.741-6.535-.192-8.416,10.517-19.069,15.076-.511.219-2.117.883-4.306,1.371-2.455.547-7.574,1.301-13.533-.685-1.511-.504-4.956-1.81-8.612-4.797-5.54-4.526-5.075-7.609-8.612-8.909-5.592-2.054-13.205,3.284-12.918,5.482.113.863,1.496,1.649,2.461,1.371,1.165-.336.98-2.012,2.461-3.426,1.61-1.538,3.763-1.404,4.306-1.371.604.037,2.707.258,4.306,2.056,1.643,1.848,1.739,4.219,1.845,6.853.109,2.697.208,5.156-1.23,7.538-1.817,3.008-4.803,3.769-6.151,4.112-1.602.408-4.981,1.268-6.766-.685-1.789-1.957-.375-4.984-2.461-6.853-1.058-.948-2.63-1.253-3.076-.685-.514.655.431,2.528,1.23,4.112,1.024,2.029,1.47,2.118,1.845,3.426.087.303.608,2.204,0,4.112-.671,2.106-2.152,2.44-3.691,4.112-2.35,2.553-2.792,6.005-3.076,8.223-.27,2.112-.887,6.931,1.845,10.965,2.138,3.156,5.153,4.1,7.382,4.797,2.024.634,5,1.565,7.997,0,.791-.413,2.922-1.526,3.691-4.112.641-2.156.284-5.172-1.23-6.168-1.804-1.185-4.01,1.31-5.536,0-.929-.798-1.22-2.677-.615-3.426.939-1.164,3.385,1.198,5.536,0,1.05-.584,1.358-1.643,2.461-4.797,1.75-5.009,2.626-7.514,3.076-8.223,1.212-1.91,1.886-1.769,7.382-6.168,4.578-3.664,3.74-3.466,4.921-4.112,4.078-2.232,8.243-1.41,15.378,0,3.303.652,4.991,1,6.766,2.056,4.195,2.494,6.295,6.576,6.766,7.538,1.662,3.393,1.098,4.801,3.691,10.965.999,2.373,1.867,4.029,3.076,4.112,1.509.104,2.27-2.33,3.691-2.056,1.147.221,2.156,2.096,1.845,3.426-.251,1.076-1.401,1.646-3.691,2.741-2.458,1.176-3.378,1.152-3.691,2.056-.435,1.257.801,2.867,1.23,3.426,1.535,1.999,3.608,2.563,4.306,2.741,4.717,1.207,9.023-2.086,9.842-2.741,3.425-2.738,6.858-8.085,6.151-13.706-.335-2.664-1.797-6.959-4.921-9.594-1.547-1.305-3.474-2.18-3.691-4.112-.11-.979.212-2.304.755-3.325.378-.711.813-1.178,1.09-1.472,1.324-1.403,2.104-1.209,2.461-2.056.434-1.033-.104-2.805-1.23-3.426-1.056-.583-2.34.004-3.076.685-1.654,1.532-.656,3.652-2.461,6.168-.321.447-1.111,1.521-2.461,2.056-2.161.857-4.202-.284-4.921-.685-2.012-1.124-3.021-2.9-3.691-4.112-.878-1.589-2.536-4.591-1.845-8.223.584-3.071,2.494-4.737,4.921-6.853,1.637-1.427,3.026-2.604,4.306-2.056,1.078.462,1.908,2.049,1.845,3.426-.059,1.298-.879,1.786-.615,2.741.223.808,1.085,1.452,1.845,1.371,1.116-.119,1.704-1.767,1.845-2.741Z"/><path class="cls-1" d="m1119.633,444.468c.028.534-.003,1.537-.615,2.461-1.185,1.788-3.59,1.832-4.306,1.845-1.423.026-2.421-.4-4.306-1.23-2.934-1.292-3.04-2.014-4.921-2.461-.996-.236-3.325-.789-4.921.615-.946.832-1.554,2.281-1.23,3.691.404,1.763,2.182,3.101,4.306,3.076"/><path class="cls-1" d="m1121.701,444.837c-.028.534.003,1.537.615,2.461,1.185,1.788,3.59,1.832,4.306,1.845,1.423.026,2.421-.4,4.306-1.23,2.934-1.292,3.04-2.014,4.921-2.461.996-.236,3.325-.789,4.921.615.946.832,1.554,2.281,1.23,3.691-.404,1.763-2.182,3.101-4.306,3.076"/></g></svg>