<?xml version="1.0" encoding="UTF-8"?><svg id="Layer_1" xmlns="http://www.w3.org/2000/svg" viewBox="0 0 118 303"><defs><style>.cls-1{fill:none;stroke:#c35f47;stroke-miterlimit:10;}</style></defs><path class="cls-1" d="m51.677,131.506c2.141,11.082,1.155,19.603,1.155,19.603-1.935,16.725-.678,33.785-.77,50.681-.123,22.526.713,17.973.77,46.856.058,29.104.087,43.657,0,43.987-.161.608-.789,2.817,0,4.781,1,2.492,3.721,3.194,6.162,3.825,3.052.788,4.907,1.267,6.162,0,1.486-1.5,1.027-4.332.77-10.519-.296-7.132.286-4.065,0-14.344-.316-11.341-1.011-14.597.77-16.256,1.232-1.148,2.546-.504,6.162,0,2.871.4,1.446-.09,12.325,0,11.359.094,15.176.646,16.176-1.912.074-.19.026-.122,0-3.825-.037-5.399-.056-8.098,0-8.606.178-1.617.388-2.32,0-2.869-.574-.811-1.618-.101-3.851,0-3.151.142-4.593-1.113-5.392,0-.594.827-.041,1.86-.77,2.869-.251.347-.707.765-2.311.956-2.29.273-4.041.482-5.392-.956-.918-.977-1.191-2.225-1.541-3.825-.402-1.837-.846-3.867,0-5.737.96-2.123,2.948-2.636,3.851-2.869.464-.12,3.469-.895,4.622.956.794,1.276-.028,2.615.77,3.825.58.879,1.555.994,3.851.956,4.262-.07,6.393-.104,6.933-.956,1.053-1.662-.534-3.547-.77-9.562-.181-4.602.675-5.349,0-6.694-1.372-2.734-5.971-1.767-16.176,0-10.907,1.889-16.428,2.543-18.487,0-2.285-2.823-.923-6.591-.385-21.516.282-7.809.151-13.495,0-20.081-.38-16.576-1.541-29.644-1.541-29.644-.348-3.921-1.038-11.007.385-19.603.622-3.759,1.406-6.356,3.081-8.606,2.931-3.938,7.005-4.638,8.473-4.781,3.53-.344,6.182,1.147,9.244,2.869,4.615,2.595,4.332,4.008,7.703,5.737,1.332.683,7.789,3.996,13.865,0,4.684-3.081,6.379-8.689,6.933-10.519.505-1.669,2.795-9.245,0-13.387-1.545-2.29-3.743-2.197-3.851-3.825-.121-1.807,2.552-2.48,4.622-5.737,1.963-3.091,2.186-6.623,2.311-8.606.056-.887.51-9.861-4.622-15.3-3.85-4.08-8.731-3.933-12.325-3.825-6.584.198-7.839,3.207-12.325,1.912-3.363-.97-7.434-4.039-8.473-8.606-.839-3.687,1.06-5.002,2.311-12.431.842-4.999,1.964-11.663-.77-17.212-.302-.613-2.65-5.232-6.933-6.694-4.307-1.47-7.088,1.442-9.244-.956-1.791-1.992-1.582-5.908-1.541-6.694.189-3.547,1.717-4.21,1.541-6.694-.209-2.934-2.677-6.694-6.162-6.694s-5.941,3.768-6.162,6.694c-.173,2.287,1.105,2.881,1.541,6.694.207,1.809.584,5.11-.77,6.694-1.401,1.638-3.322-.116-7.703,0-1.965.052-5.714.151-8.473,2.869-2.9,2.856-3.462,7.38-3.851,10.519-.722,5.813.277,10.954,1.541,17.212,1.45,7.184,2.572,8.995,1.541,11.475-1.499,3.604-5.799,4.42-7.703,4.781-2.712.514-4.926.031-9.244-.956-5.44-1.244-5.88-2.137-8.473-1.912-1.355.117-5.026.434-7.703,3.825-2.993,3.791-3.613,9.991-2.311,14.344.7,2.34,2.597,6.286,4.622,9.562.999,1.616,1.748,2.616,1.541,3.825-.38,2.207-3.378,1.784-5.392,4.781-1.691,2.518-1.594,5.821-1.541,7.65.138,4.68,2.077,7.897,3.081,9.562.872,1.446,3.04,5.043,6.933,6.694,2.805,1.19,5.087.768,9.244,0,3.434-.634,5.97-1.602,9.244-2.869,6.962-2.695,7.695-3.886,10.784-3.825,1.372.027,4.82.047,7.703,2.869,2.095,2.051,3.252,4.948,4.237,10.041Z"/><path class="cls-1" d="m50.521,97.56c.824-3.461-.445-6.795-.77-7.65-1.064-2.796-2.757-4.289-9.244-8.606-6.053-4.028-9.079-6.043-10.784-6.694-3.608-1.378-6.77-1.556-13.095-1.912-.744-.042-3.216-.155-6.162.956-1.757.663-3.229,1.246-3.851,2.869-.666,1.735.023,3.655.77,5.737.692,1.93,1.615,4.501,3.851,5.737,1.396.772,3.827,1.312,4.622,0,1.263-2.086-2.64-7.148-1.541-8.606.814-1.08,3.626.805,3.851.956.429.288,3.98,2.668,3.851,5.737-.102,2.44-2.429,2.883-3.081,6.694-.142.83-.306,1.79,0,2.869.559,1.969,2.016,1.966,3.081,3.825,1.046,1.825.892,4.011.77,5.737-.143,2.024-.353,5.005-2.311,6.694-2.49,2.148-5.63.328-6.162,0-.223-.137-2.492-1.563-2.311-2.869.164-1.18,2.126-.819,3.851-2.869.896-1.064,2.064-3.178,1.541-4.781-.616-1.885-3.254-2.096-4.622-1.912-2.086.281-4.346,1.902-5.392,4.781-1.134,3.121-.227,6.028,0,6.694.844,2.478,2.4,3.669,3.851,4.781.673.515,4.221,3.232,8.473,2.869,4.034-.345,5.993-3.229,10.014-6.694,11.135-9.595,19.122-7.303,20.798-14.344Z"/><path class="cls-1" d="m68.505,99.061c-.824-3.461.445-6.795.77-7.65,1.064-2.796,2.757-4.289,9.244-8.606,6.053-4.028,9.079-6.043,10.784-6.694,3.608-1.378,6.77-1.556,13.095-1.912.744-.042,3.216-.155,6.162.956,1.757.663,3.229,1.246,3.851,2.869.666,1.735-.023,3.655-.77,5.737-.692,1.93-1.615,4.501-3.851,5.737-1.396.772-3.827,1.312-4.622,0-1.263-2.086,2.64-7.148,1.541-8.606-.814-1.08-3.626.805-3.851.956-.429.288-3.98,2.668-3.851,5.737.102,2.44,2.429,2.883,3.081,6.694.142.83.306,1.79,0,2.869-.559,1.969-2.016,1.966-3.081,3.825-1.046,1.825-.892,4.011-.77,5.737.143,2.024.353,5.005,2.311,6.694,2.49,2.148,5.63.328,6.162,0,.223-.137,2.492-1.563,2.311-2.869-.164-1.18-2.126-.819-3.851-2.869-.896-1.064-2.064-3.178-1.541-4.781.616-1.885,3.254-2.096,4.622-1.912,2.086.281,4.346,1.902,5.392,4.781,1.134,3.121.227,6.028,0,6.694-.844,2.478-2.4,3.669-3.851,4.781-.673.515-4.221,3.232-8.473,2.869-4.034-.345-5.993-3.229-10.014-6.694-11.135-9.595-19.122-7.303-20.798-14.344Z"/><path class="cls-1" d="m56.081,81.758c2.768,1.104,5.483-.392,6.179-.775,2.277-1.255,3.519-3.321,7.149-11.269,3.387-7.417,5.08-11.125,5.645-13.226,1.195-4.445,1.413-8.366,1.849-16.207.051-.922.201-3.987-.625-7.67-.492-2.196-.927-4.036-2.219-4.848-1.381-.867-2.944-.058-4.639.821-1.571.814-3.663,1.898-4.711,4.644-.655,1.715-1.147,4.719-.109,5.736,1.65,1.617,5.819-3.107,6.967-1.709.85,1.036-.734,4.481-.861,4.757-.242.525-2.243,4.877-4.711,4.644-1.963-.185-2.264-3.083-5.318-3.982-.665-.196-1.435-.423-2.31-.068-1.599.648-1.631,2.456-3.153,3.734-1.495,1.255-3.251,1.012-4.639.821-1.627-.225-4.022-.556-5.336-3.026-1.671-3.141-.131-6.994.146-7.648.116-.273,1.317-3.056,2.365-2.8.946.231.61,2.658,2.219,4.848.836,1.137,2.511,2.637,3.814,2.025,1.532-.72,1.765-3.989,1.649-5.691-.177-2.595-1.429-5.438-3.723-6.805-2.486-1.481-4.849-.424-5.391-.158-2.016.989-3.012,2.891-3.941,4.667-.431.823-2.703,5.162-2.51,10.448.182,5.014,2.459,7.514,5.154,12.586,7.464,14.046,5.429,23.904,11.06,26.15Z"/></svg>