<?xml version="1.0" encoding="UTF-8"?><svg id="Layer_1" xmlns="http://www.w3.org/2000/svg" viewBox="0 0 88 265"><defs><style>.cls-1{fill:none;stroke:#c35f47;stroke-miterlimit:10;}</style></defs><path class="cls-1" d="m37.684,137.015c.649,1.52.301,2.617,0,5.761v66.967c-.061,11.281,2.248,22.842,0,33.844,0,0-1.548,7.574.649,15.122.346,1.188.983,3.039,2.597,4.32,1.745,1.386,4.391,1.912,6.491.72.649-.368,2.073-1.37,3.246-5.041,1.242-3.888,1.053-7.169.649-12.241-.901-11.324-1.47-13.981,0-15.122,1.608-1.247,4.749.018,6.491.72,2.417.974,2.69,1.885,4.544,2.16,1.866.277,4.722-.18,5.842-2.16,1.499-2.649-.913-6.604,0-7.201.663-.433,1.806,1.736,4.544,2.88.402.168,4.113,1.67,5.842,0,1.516-1.463.124-4.024,0-10.081-.151-7.406,1.797-10.043,0-12.241-1.612-1.972-5.13-2.232-6.491-.72-1.424,1.581.287,4.235-1.298,6.481-1.265,1.792-4.051,2.508-5.193,1.44-1.63-1.524,1.103-5.739-.649-7.921-1.53-1.905-5.332-.832-7.14,0-4.766,2.192-5.192,8.111-6.491,7.921-1.762-.258-1.914-10.799-1.947-30.243-.05-29.015.251-27.611,0-29.523-.387-2.951-.258-5.568,0-10.801.135-2.747.32-4.305,1.298-5.761,1.172-1.743,2.509-1.889,5.193-3.6,0,0,2.508-1.599,5.193-4.32,4.786-4.852,6.935-11.307,7.14-12.241,1.576-7.148-.078-10.514,1.947-15.122,1.688-3.839,2.112-1.794,7.14-6.481,2.665-2.484,8.258-7.696,9.737-15.842,1.236-6.809-.967-12.562-1.947-15.122-1.211-3.162-2.58-6.738-5.842-9.361-4.48-3.602-8.279-1.991-9.737-5.041-1.187-2.483.878-4.497,1.947-10.081.488-2.546,1.478-9.54-1.298-16.562-.625-1.58-4.175-10.559-11.035-12.241-3.471-.851-5.859.639-7.79-1.44-2.091-2.253-.544-5.355-2.597-7.201-2.111-1.898-6.515-1.108-8.439,1.44-1.541,2.04-.449,3.827-1.947,5.761-1.718,2.217-4.35,1.415-7.79,2.16-6.542,1.417-10.585,7.252-11.035,7.921-4.668,6.933-3.429,16.051-3.246,17.282.887,5.964,3.503,8.91,1.947,11.521-1.159,1.946-3.087,1.106-6.491,2.88-4.896,2.551-7.273,7.604-8.439,10.081-2.992,6.359-2.722,12.222-2.597,14.402.177,3.059.546,9.466,4.544,14.402,4.05,5,9.737,7.921,9.737,7.921,1.889.97,3.668,1.604,4.544,3.6.684,1.559.255,2.67,0,6.481-.162,2.425-.339,5.057,0,7.921.172,1.457.621,4.983,2.597,8.641,2.192,4.058,5.166,6.248,6.491,7.201,4.814,3.463,7.784,2.709,9.088,5.761Z"/><path class="cls-1" d="m51.64,92.73c-1.127-.319-2.579-.779-3.246,0-.52.608-.229,1.567.325,4.68.828,4.659.54,4.569.974,5.401,1.387,2.661,3.396,1.996,4.544,4.32.982,1.988.348,4.793-.649,6.481-1.55,2.622-3.615,1.937-4.544,4.32-.6,1.542.251,1.861,0,5.761-.166,2.59-.618,3.636,0,4.32.867.96,2.876.149,3.246,0,2.133-.86,4.157-2.224,6.167-5.401,4.701-7.43,3.877-7.682,4.219-9.001.958-3.692.41-6.972,0-8.641-.714-2.906-1.964-4.814-2.597-5.761-.634-.949-3.528-5.09-8.439-6.481Z"/><path class="cls-1" d="m36.843,93.176c1.066-.302,2.614-.793,3.246,0,.522.654.037,1.689-.458,4.234-.8,4.118-.104,4.35-.841,5.847-1.303,2.646-3.366,1.936-4.544,4.32-.982,1.988-.348,4.793.649,6.481,1.55,2.622,3.615,1.937,4.544,4.32.6,1.542-.251,1.861,0,5.761.166,2.59.618,3.636,0,4.32-.867.96-2.876.149-3.246,0-2.133-.86-4.29-2.67-6.3-5.847-4.701-7.43-3.744-7.236-4.086-8.555-.958-3.692-.41-6.972,0-8.641.714-2.906,1.964-4.814,2.597-5.761.634-.949,3.528-5.09,8.439-6.481Z"/><path class="cls-1" d="m45.474,85.889c-3.867.671-6.892-1.496-7.79-2.16-.844-.625-4.329-3.377-5.193-8.641-.126-.765-.945-6.284,2.597-10.801,2.894-3.692,6.744-4.22,7.79-4.32.834-.08,5.193-.5,8.439,2.88,2.305,2.401,2.823,5.442,3.246,7.921.326,1.917.678,3.98,0,6.481-1.023,3.771-3.641,5.786-4.544,6.481-.844.649-2.347,1.779-4.544,2.16Z"/><path class="cls-1" d="m8.006,79.191c-.419-1.817-.129-2.32-.001-2.482.53-.675,1.686-.45,3.065-.181,1.329.259,2.255.44,3.201,1.169,1.698,1.309,1.322,2.644,2.687,3.473,1.236.75,2.979.264,4.028-.499,1.629-1.186,1.202-2.766,2.683-3.477.958-.46,1.157.191,3.58-.002,1.61-.129,2.259-.475,2.685-.002.597.662.094,2.199.001,2.482-.534,1.632-1.658,3.282-3.631,4.82-4.616,3.598-4.496,2.867-5.315,3.129-2.294.734-4.333.317-5.37.004-1.807-.544-2.993-1.5-3.581-1.983-.59-.485-3.165-2.696-4.032-6.451Z"/><path class="cls-1" d="m29.616,66.051c.516,1.868.201,2.36.106,2.479-.193.243-.579.471-3.073.077-1.822-.288-2.733-.432-3.228-.738-1.721-1.068-1.388-2.549-2.831-3.329-1.267-.685-2.987-.108-4.002.708-1.577,1.27-1.084,2.825-2.533,3.613-.937.509-1.164-.13-3.576.189-1.603.212-2.237.592-2.682.142-.624-.63-.187-2.192-.106-2.479.464-1.658,1.517-3.365,3.423-5.004,4.458-3.835,4.369-3.098,5.177-3.402,2.261-.853,4.315-.542,5.364-.284,1.828.45,3.053,1.342,3.661,1.795.61.454,3.276,2.528,4.3,6.234Z"/><path class="cls-1" d="m58.82,79.627c-.438-1.898-.106-2.366-.001-2.482.293-.327.764-.341,2.883.104,2.009.422,3.013.633,3.383.884,1.675,1.137,1.26,2.607,2.687,3.473,1.236.75,2.979.264,4.027-.499,1.629-1.186,1.202-2.766,2.683-3.477.958-.46,1.157.191,3.58-.003,1.61-.129,2.259-.474,2.685-.002.597.662.094,2.2.001,2.482-.534,1.632-1.658,3.282-3.631,4.821-4.616,3.598-4.496,2.867-5.315,3.129-2.294.734-4.333.316-5.37.004-1.807-.545-2.993-1.5-3.581-1.983-.59-.485-3.165-2.696-4.032-6.451Z"/><path class="cls-1" d="m80.852,67.028c.24.937.511,1.949.06,2.481-.273.322-.728.373-3.63-.181-1.581-.302-2.377-.456-2.657-.626-1.678-1.014-1.361-2.593-2.768-3.394-1.253-.714-2.984-.178-4.014.616-1.601,1.233-1.137,2.8-2.601,3.553-.947.487-1.161-.157-3.579.106-1.606.175-2.247.54-2.684.079-.612-.645-.146-2.196-.06-2.481.495-1.647,1.58-3.329,3.517-4.924,4.53-3.73,4.427-2.996,5.24-3.281,2.276-.8,4.324-.442,5.368-.159,1.819.492,3.027,1.413,3.627,1.879.601.468,3.227,2.604,4.182,6.332Z"/><path class="cls-1" d="m53.13,15.667c-2.48-.702-3.094-.167-3.246,0-.41.45-.468,1.183.134,4.695.543,3.17.814,4.755,1.165,5.386,1.493,2.687,3.413,2.032,4.544,4.32.982,1.988.348,4.793-.649,6.481-1.55,2.622-3.615,1.937-4.544,4.32-.6,1.542.251,1.861,0,5.761-.166,2.59-.618,3.636,0,4.32.867.96,2.876.149,3.246,0,2.133-.86,4.157-2.224,6.167-5.401,4.701-7.43,3.877-7.682,4.219-9.001.958-3.692.41-6.972,0-8.641-.714-2.906-1.964-4.814-2.597-5.761-.634-.949-3.528-5.09-8.439-6.481Z"/><path class="cls-1" d="m36.941,15.256c1.066-.302,2.626-.792,3.246,0,.531.679-.047,1.756-.555,4.387-.747,3.866-.003,4.153-.743,5.694-1.259,2.622-3.365,1.933-4.544,4.32-.982,1.988-.348,4.793.649,6.481,1.55,2.622,3.615,1.937,4.544,4.32.6,1.542-.251,1.861,0,5.761.166,2.59.618,3.636,0,4.32-.867.96-2.876.149-3.246,0-2.133-.86-4.29-2.67-6.3-5.847-4.701-7.43-3.744-7.236-4.086-8.555-.958-3.692-.41-6.972,0-8.641.714-2.906,1.964-4.814,2.597-5.761.634-.949,3.528-5.09,8.439-6.481Z"/></svg>