<?xml version="1.0" encoding="UTF-8"?><svg id="Layer_1" xmlns="http://www.w3.org/2000/svg" viewBox="0 0 110 323"><defs><style>.cls-1{fill:none;stroke:#c35f47;stroke-miterlimit:10;}</style></defs><path class="cls-1" d="m48.26,136.248c2.528,1.014,2.18,5.704,2.031,12.168-.093,4.055.319,8.121,0,12.168-.464,5.881.1,5.174,0,48.672-.098,42.517-.567,40.132,0,48.672,1.313,19.789,3.214,21.123,2.031,31.289-.872,7.495,1.005,15.114,0,22.598-.249,1.852-.898,6.092,2.031,8.691,1.411,1.253,3.903,2.347,6.093,1.738,2.885-.802,3.778-4.15,4.062-5.215,1.149-4.308-1.44-6.741,0-8.691,1.006-1.363,3.023-1.174,7.867-1.054,4.171.104,9.001.224,12.753,0,7.701-.459,12.942-2.489,13.908-.685.528.986-.83,2.173,0,3.477.66,1.036,2.129,1.339,4.062,1.738,2.494.515,4.926,1.017,6.093,0,.974-.849.189-1.989,0-5.215-.266-4.543,1.086-5.769,0-6.953-1.424-1.553-4.806-.602-10.155,0,0,0-2.868.204-6.216.333-5.104.196-5.557-.022-9.286.131-4.502.184-4.894.545-10.362.797-6.21.286-7.883-.078-8.664-1.261-.661-1-.626-2.498,0-3.477.943-1.474,3.094-1.562,7.07-1.639,5.504-.107,8.256-.161,9.179-.099,0,0,19.555,1.281,20.311,0,.249-.421-.046-.486,0-3.477.041-2.677.284-3.011,0-3.477-.972-1.596-5.9-.804-12.186,0-11.726,1.5-9.135.323-15.709,1.473-4.948.865-7.18,1.666-8.664.266-1.657-1.563-1.673-5.198,0-6.953,1.386-1.455,3.244-.897,10.258-.486,4.91.287,2.207-.091,12.434.363,3.295.146,6.614.011,9.884.434.501.065,9.036,1.177,10.076-.311.132-.189.217-.391.217-.391.242-.724-.302-1.6-.217-4.824.093-3.541.797-4.278,0-5.215-1.615-1.898-6.954-1.746-8.124,0-.817,1.218.517,2.261,0,3.477-1.107,2.603-8.175.802-17.893.887-9.795.085-13.777,2.012-16.635-.887-2.157-2.188-2.101-5.492-2.031-6.953.53-11.015-3-22.034-2.031-33.027,1.192-13.534.756-23.849,0-41.718-.95-22.452-4.989-56.546,0-57.363.964-.158,2.72.853,4.062,0,1.375-.874.613-2.626,2.031-3.477.958-.574,1.608.08,4.062,0,.81-.026,3.583-.189,6.093-1.738.753-.465,1.472-.908,2.031-1.738,1.484-2.203.235-4.738,0-5.215-.362-.734-1.609-3.265-4.062-3.477-2.173-.187-3.897,1.565-4.062,1.738-1.509,1.578-.896,3.047-2.031,3.477-1.206.457-3.065-.763-4.062-1.738-.89-.871-1.53-1.996-2.031-5.215-.667-4.291-1.001-6.437,0-8.691.615-1.385,1.764-2.661,4.062-5.215.861-.957,1.312-1.377,2.031-1.738,1.427-.717,3.991-1.239,6.093,0,2.059,1.213,2.756,3.574,2.031,5.215-.346.783-1.183,1.782-2.031,1.738-.518-.027-.743-.427-2.031-1.738-1.092-1.112-1.646-1.669-2.031-1.738-1.423-.255-3.388,1.609-4.062,3.477-.529,1.464-.195,2.736,0,3.477.243.925.654,2.489,2.031,3.477,2.713,1.945,7.285.29,8.124,0,.585-.202,4.406-1.582,6.093-5.215.221-.475,1.63-3.627,0-6.953-1.66-3.387-5.502-4.979-6.093-5.215-1.951-.78-3.023-.63-4.062-1.738-1.049-1.119-.684-2.05-2.031-3.477-1.123-1.19-2.118-1.327-2.031-1.738.185-.874,4.58.213,8.124-1.738,3.105-1.709,3.976-4.879,4.062-5.215.722-2.804-.945-3.663,0-5.215,1.377-2.26,5.353-1.157,10.155-3.477,3.162-1.527,4.853-3.655,6.093-5.215,3.991-5.02,4.065-10.175,4.062-12.168-.003-1.965-.048-5.198-2.031-8.691-1.449-2.551-2.912-5.128-6.093-6.953-.797-.457-2.18-1.142-2.031-1.738.2-.8,2.876-.32,4.062-1.738.84-1.005.561-2.518,0-3.477-.222-.38-.832-1.26-2.031-1.738-2.364-.943-4.262.775-6.093,0-1.267-.536-1.434-1.813-2.031-3.477-1.48-4.121-4.259-6.874-6.093-8.691-2.078-2.059-4.405-4.371-8.124-5.215-5.498-1.247-11.46,1.341-12.186,0-.248-.458.365-.91,0-1.738-.486-1.103-1.915-1.076-2.031-1.738-.178-1.011,3.095-1.368,4.062-3.477.41-.894-.171-.846,0-3.477.129-1.987.496-2.554,0-3.477-.357-.665-.915-1.023-2.031-1.738-1.921-1.232-2.962-1.9-4.062-1.738-2.166.318-2.562,3.557-4.062,3.477-.66-.035-.708-.668-2.031-1.738-.537-.434-2.73-2.208-4.062-1.738-1.03.363-.472,1.69-2.031,3.477-.946,1.084-1.392.87-2.031,1.738-1.045,1.42-1.052,3.623,0,5.215,1.407,2.128,4.275,2.508,4.062,3.477-.151.686-1.626.663-2.031,1.738-.3.795.321,1.297,0,1.738-.568.78-3.205.162-4.062,0-4.251-.801-8.37,1.419-12.186,3.477-2.977,1.605-9.525,5.135-10.155,10.43-.287,2.411.904,4.87,0,5.215-.798.304-1.785-1.568-4.062-1.738-1.503-.113-3.276.538-4.062,1.738-.859,1.312-.252,2.84,0,3.477.763,1.922,2.262,2.399,2.031,3.477-.209.972-1.51,1.497-2.031,1.738-3.318,1.536-4.796,5.346-6.093,8.691-.37.954-3.5,9.475,2.031,17.383,1.089,1.557,3.464,4.971,8.124,6.953,5.662,2.408,10.008.714,12.186,3.477,1.626,2.063-.203,3.762,2.031,6.953.407.581,1.641,2.349,4.062,3.477,2.887,1.344,6.039,1.087,6.093,1.738.039.463-1.555.587-2.031,1.738-.303.733.091,1.116,0,1.738-.236,1.625-3.467,1.681-6.093,3.477-2.92,1.997-3.648,5.157-4.062,6.953-.381,1.652-.754,3.274,0,5.215,1.473,3.792,5.825,5.136,6.093,5.215.834.245,3.365.951,6.093,0,.366-.128,3.529-1.271,4.062-3.477.086-.356-.01-.272,0-1.738.017-2.625.324-2.864,0-3.477-.599-1.135-2.506-1.917-4.062-1.738-1.474.169-1.751,1.237-4.062,1.738-.795.172-1.532.332-2.031,0-.912-.607-.343-2.397,0-3.477.547-1.72.884-2.783,2.031-3.477,1.745-1.056,4.087-.487,6.093,0,1.537.373,2.897.703,4.062,1.738,1.494,1.327,1.739,2.986,2.031,5.215.267,2.035-.049,2.169,0,5.215.06,3.768.56,4.621,0,6.953-.63,2.624-1.679,3.282-2.031,3.477-1.406.778-3.544.725-4.062,0-.341-.476.266-.895,0-1.738-.335-1.062-1.675-1.596-2.031-1.738-1.74-.693-3.479-.174-4.062,0-.339.101-3.078.967-4.062,3.477-.159.405-.655,1.83,0,3.477.694,1.745,2.382,2.983,4.062,3.477,1.78.522,3.791.279,6.093,0,1.029-.125,1.481-.24,2.031,0,1.454.636.77,2.53,2.031,3.477,1.6,1.201,4.1-.799,6.093,0Z"/><path class="cls-1" d="m62.478,37.166c.941-.271.8-1.121,2.031-1.738,1.219-.611,2.839-.521,4.062,0,.363.155,1.555.662,2.031,1.738.685,1.547-.721,2.892,0,3.477.329.267.759.1,2.031,0,2.689-.211,3.131.351,4.062,0,2.218-.836,2.048-4.9,2.031-5.215-.091-1.703-.737-2.874-2.031-5.215-1.395-2.524-2.201-3.94-4.062-5.215-.573-.392-1.963-1.324-4.062-1.738-4.052-.8-8.167.838-8.124,1.738.025.533,1.495.567,2.031,1.738.254.556.152,1.05,0,1.738-.267,1.204-.609,2.751-2.031,3.477-1.173.599-2.474.329-4.062,0-.889-.184-2.604-.54-4.062-1.738-1.155-.95-1.321-1.749-2.031-1.738-.59.009-.842.567-2.031,1.738-.825.813-1.382,1.361-2.031,1.738-1.45.842-4.096,1.254-6.093,0-1.209-.759-2.147-2.107-2.031-3.477.165-1.962,2.378-2.612,2.031-3.477-.451-1.124-4.805-1.555-8.124,0-.963.451-1.996,1.459-4.062,3.477-3.463,3.381-3.89,4.578-4.062,5.215-.417,1.546-.16,2.868,0,3.477.406,1.547,1.249,2.548,2.031,3.477.867,1.029,1.3,1.543,2.031,1.738,1.543.411,3.549-.525,4.062-1.738.248-.587-.07-.725,0-1.738.012-.177.229-2.804,2.031-3.477.665-.248,1.289-.135,2.031,0,2.227.404,2.599,1.569,4.062,1.738,1.312.152,1.873-.686,4.062-1.738.696-.334,3.208-1.542,6.093-1.738,2.449-.167,5.539.37,8.124,1.738,1.837.973,2.879,2.079,4.062,1.738Z"/><path class="cls-1" d="m68.571,45.858c.53-.07.662,1.207,2.031,1.738,1.695.657,3.209-.635,4.062,0,.55.409.194,1.147,0,3.477-.158,1.894-.237,2.841,0,3.477.733,1.969,3.49,3.664,6.093,3.477,1.6-.115,2.819-.918,4.062-1.738,1.056-.696,1.627-1.073,2.031-1.738,1.325-2.183-.874-4.629,0-5.215.657-.44,2.686.415,4.062,1.738,2.157,2.074,2.133,4.74,2.031,8.691-.113,4.379-.169,6.568-2.031,8.691-2.088,2.381-5.057,3.193-6.093,3.477-3.53.965-6.443.353-8.124,0-1.783-.375-3.786-.732-4.062-1.738-.256-.933,1.25-1.363,2.031-3.477.243-.658.774-2.095,0-3.477-.576-1.028-1.599-1.532-2.031-1.738-1.825-.872-4.236-.794-6.093,0-2.595,1.109-3.076,3.665-4.062,3.477-.942-.18-.342-2.479-2.031-3.477-1.199-.708-2.982-.423-4.062,0-2.62,1.025-3.105,3.636-4.062,3.477-.908-.152-.339-2.478-2.031-3.477-1.199-.708-2.982-.423-4.062,0-2.596,1.016-2.413,3.235-4.062,3.477-1.978.289-2.757-2.848-6.093-3.477-2.265-.427-4.639.505-6.093,1.738-1.402,1.189-2.809,3.388-2.031,5.215.907,2.13,4.194,2.373,4.062,3.477-.114.951-2.636,1.444-4.062,1.738-2.18.451-5.075,1.049-8.124,0-2.409-.829-3.637-2.291-6.093-5.215-2.466-2.936-3.762-4.479-4.062-6.953-.409-3.374,1.342-5.943,2.031-6.953,1.364-2.001,3.443-3.773,4.062-3.477.52.249-.612,1.66,0,3.477.716,2.126,3.277,3.191,4.062,3.477,2.98,1.085,5.672.153,6.093,0,.529-.192,3.638-1.319,4.062-3.477.476-2.422-2.775-4.401-2.031-5.215.496-.542,1.868.41,4.062,0,2.392-.447,3.386-2.071,4.062-1.738.623.306-.273,1.656,0,3.477.322,2.151,2.069,3.582,4.062,5.215,1.361,1.115,3.14,2.573,6.093,3.477.827.253,5.297,1.55,10.155,0,2.159-.689,3.54-1.667,6.093-3.477,2.182-1.546,3.273-2.319,4.062-3.477,2.198-3.222,1.128-6.834,2.031-6.953Z"/><path class="cls-1" d="m52.322,38.905c-2.905.027-4.95,1.125-6.093,1.738-1.517.814-3.171,1.702-4.062,3.477-1.036,2.062-.391,4.025,0,5.215.276.839,1.157,3.38,4.062,5.215.978.618,3.169,2.002,6.093,1.738,3.482-.313,5.481-2.735,6.093-3.477,1.458-1.766,1.755-3.555,2.031-5.215.179-1.074.343-2.131,0-3.477-.179-.703-.569-2.236-2.031-3.477-2.093-1.776-4.961-1.749-6.093-1.738Z"/><path class="cls-1" d="m60.446,92.791c-.201.443-1.901.15-4.062,0-6.171-.427-9.864.745-10.155,0-.243-.621,2.475-1.069,4.062-3.477,1.325-2.011,1.519-4.868,0-6.953-.237-.325-.847-1.141-2.031-1.738-1.802-.909-4.215-.948-6.093,0-.565.285-1.53.772-2.031,1.738-.964,1.859.959,3.229,0,5.215-.089.184-.719,1.441-2.031,1.738-1.717.389-3.399-1.137-4.062-1.738-.226-.205-3.187-2.958-2.031-5.215.357-.696.967-1.076,2.031-1.738,1.893-1.178,3.076-1.256,4.062-1.738,3.765-1.84,2.098-8.31,4.062-8.691.527-.102,1.048.284,4.062,3.477,3.745,3.967,4.554,5.079,6.093,5.215,1.474.13,2.65-.719,4.062-1.738,4.279-3.089,4.999-7.123,6.093-6.953.842.131.175,2.483,2.031,5.215.356.523,1.611,2.371,4.062,3.477,2.958,1.335,4.987.384,6.093,1.738.941,1.152.268,2.816,0,3.477-.08.198-1.106,2.599-4.062,3.477-.796.236-2.816.835-4.062,0-1.439-.965-.249-2.771-2.031-5.215-.391-.536-.945-1.274-2.031-1.738-1.228-.525-2.782-.547-4.062,0-1.137.486-1.701,1.268-2.031,1.738-1.245,1.775-1.57,4.396-.342,6.508,1.5,2.581,4.683,3.308,4.405,3.921Z"/><path class="cls-1" d="m52.322,99.744c.564,0,.297-2.43,2.031-3.477,1.131-.682,2.836-.608,4.062,0,2.081,1.031,2.04,3.23,2.031,3.477-.052,1.372-.971,2.349-2.031,3.477-.657.699-.863.744-2.031,1.738-2.982,2.54-3.081,3.477-4.062,3.477s-1.08-.937-4.062-3.477c-1.168-.994-1.374-1.039-2.031-1.738-1.06-1.127-1.979-2.105-2.031-3.477-.009-.246-.05-2.445,2.031-3.477,1.226-.608,2.931-.682,4.062,0,1.735,1.046,1.468,3.477,2.031,3.477Z"/></svg>