<?xml version="1.0" encoding="UTF-8"?><svg id="Layer_1" xmlns="http://www.w3.org/2000/svg" viewBox="0 0 105 290"><defs><style>.cls-1{fill:none;stroke:#c35f47;stroke-miterlimit:10;}</style></defs><path class="cls-1" d="m44.595,125.316c-.161,3.675.552,6.514.726,7.257.771,3.294.985,8.229.726,22.498-.339,18.646-1.205,37.828-1.451,53.705-.58,37.314,2.054,69.53.726,74.025-.081.273-.508,1.566,0,2.903.762,2.007,3.115,2.755,3.629,2.903.288.083,3.431.942,5.08-.726.859-.868.772-1.875.726-5.806-.089-7.548.202-6.173,0-8.709-.367-4.604-1.099-6.279,0-7.257.867-.772,1.667-.036,4.354-.726,1.345-.345,3.08-.79,4.354-2.177,1.453-1.582.889-2.846,2.177-3.629,1.336-.812,3.576-.446,4.354.726.8,1.203-.552,2.339,0,4.354.635,2.321,3.141,3.427,3.629,3.629,2.011.833,4.979.888,6.532-.726,1.23-1.278.647-2.643.726-7.257.116-6.794,1.465-8.896,0-10.16-.59-.51-2.579-.347-6.532,0-1.87.164-3.908.109-7.983,0-.714-.019-1.839-.063-2.177-.726-.317-.621.141-1.619.726-2.177,1.284-1.226,3.255-.408,7.257,0,4.167.425,6.682.681,7.983-.726.678-.733.456-1.3.726-5.806.307-5.119.676-5.764,0-6.532-1.131-1.283-2.613.014-7.983-.726-2.331-.321-3.558-.773-4.354,0-.704.683-.713,1.974-.726,3.629-.015,1.944.358,2.32,0,2.903-.889,1.45-4.7,1.589-5.806,0-1.084-1.557,1.063-3.866,0-5.08-1.056-1.207-3.61.577-5.806-.726-1.499-.889-1.945-2.691-2.177-3.629-2.258-9.119.726-60.962.726-60.962,1.102-19.147-.613-30.275.726-37.013.339-1.706,1.319-5.37,0-9.435-.473-1.458-1.008-2.247-1.451-4.354-.518-2.463-.971-4.616,0-6.532,1.337-2.638,4.199-2.508,4.354-4.354.14-1.658-2.122-2.313-2.177-4.354-.041-1.518,1.167-2.708,2.177-3.629,4.134-3.769,6.84-4.759,10.16-7.257,3.26-2.453,6.458-4.86,7.257-8.709.728-3.504-1.192-5.023,0-7.257,1.486-2.786,5.337-2.051,10.16-3.629,8.661-2.834,13.308-10.789,14.515-13.063,1.272-2.397,4.145-8.699,2.903-16.692-.22-1.414-2.015-12.965-10.16-16.692-3.363-1.539-7.283-1.503-13.063-1.451-6.059.054-8.833.991-10.16-.726-1.3-1.682.564-3.613.726-9.435.093-3.347.176-6.333-1.451-8.709-2.033-2.968-5.69-3.46-12.338-4.354-7.345-.988-11.113-1.495-15.24.726-.873.47-6.675,3.591-7.257,8.709-.478,4.202,2.928,6.543,1.451,10.16-.903,2.213-2.975,3.289-3.629,3.629-3.505,1.82-6.193.064-10.886,0-.747-.01-7.774-.015-13.063,4.354-4.86,4.015-5.93,9.805-6.532,13.063-.518,2.804-1.307,9.553,2.177,16.692.864,1.769,3.347,6.703,8.709,10.16,7.31,4.713,13.924,2.782,15.966,7.257,1.049,2.299-.501,3.237.726,6.532.647,1.738,1.513,2.644,6.532,7.257,1.709,1.571,4.692,4.3,7.983,7.983,2.299,2.572,3.062,3.724,2.903,5.08-.282,2.396-3.186,3.202-2.903,5.08.225,1.492,2.13,1.463,2.903,3.629.417,1.169.238,2.227,0,3.629-.327,1.926-.884,2.531-1.451,4.354-.586,1.884-.651,3.362-.726,5.08Z"/><path class="cls-1" d="m61.287,70.16c-3.912-2.282-7.832-2.222-9.435-2.177-4.884.136-8.202,2.067-10.886,3.629-2.551,1.485-4.869,2.876-5.08,5.08-.093.97.25,1.816,1.451,3.629,2.348,3.542,4.913,6.154,8.709,9.435,3.713,3.209,4.658,3.646,5.806,3.629.998-.015,1.665-.365,5.08-2.903,5.663-4.207,7.26-5.792,7.983-6.532,2.394-2.449,3.591-3.701,3.629-5.08.069-2.53-2.422-4.783-4.354-6.532-.61-.552-1.533-1.378-2.903-2.177Z"/><path class="cls-1" d="m59.11,32.421c-.797-.442-3.57-1.86-7.257-1.451-5.09.565-8.003,4.175-8.709,5.08-2.762,3.539-2.88,7.347-2.903,8.709-.026,1.543-.124,7.45,4.354,10.886,3.109,2.385,6.668,2.233,7.983,2.177,1.094-.047,5.337-.293,8.709-3.629,2.579-2.551,3.241-5.518,3.629-7.257.357-1.602.93-4.17,0-7.257-.269-.892-1.596-4.924-5.806-7.257Z"/><path class="cls-1" d="m83.059,30.97c-1.574-.379-1.889-.205-8.709,0-3.088.093-4.037.088-4.354.726-.482.969,1.147,2.107,2.177,5.08.407,1.174.513,2.234.726,4.354.456,4.551.684,6.826,0,8.709-.521,1.432-1.799,2.89-4.354,5.806-2.469,2.816-3.536,3.496-3.629,5.08-.119,2.034,1.481,3.651,2.177,4.354,2.303,2.327,5.296,2.675,7.257,2.903,1.147.133,3.999.434,7.257-.726,4.767-1.696,7.221-5.383,9.435-8.709,1.943-2.92,4.086-6.14,4.354-10.886.083-1.473.254-5.455-2.177-9.435-1.794-2.937-4.163-4.492-5.08-5.08-2.154-1.381-4.127-1.948-5.08-2.177Z"/><path class="cls-1" d="m22.014,32.695c1.574-.379,1.889-.205,8.709,0,3.088.093,4.037.088,4.354.726.482.969-1.147,2.107-2.177,5.08-.407,1.174-.513,2.234-.726,4.354-.456,4.551-.684,6.826,0,8.709.521,1.432,1.799,2.89,4.354,5.806,2.469,2.816,3.536,3.496,3.629,5.08.119,2.034-1.481,3.651-2.177,4.354-2.303,2.327-5.296,2.675-7.257,2.903-1.147.133-3.999.434-7.257-.726-4.767-1.696-7.221-5.383-9.435-8.709-1.943-2.92-4.086-6.14-4.354-10.886-.083-1.473-.254-5.455,2.177-9.435,1.794-2.937,4.163-4.492,5.08-5.08,2.154-1.381,4.127-1.948,5.08-2.177Z"/><path class="cls-1" d="m46.701,22.233c2.825,1.488,5.585,1.325,6.713,1.245,3.436-.245,5.715-1.707,7.557-2.89,1.752-1.124,3.342-2.175,3.423-3.734.036-.686-.232-1.272-1.134-2.512-1.763-2.423-3.649-4.185-6.424-6.379-2.714-2.146-3.393-2.425-4.201-2.378-.702.041-1.161.308-3.49,2.201-3.86,3.137-4.937,4.302-5.424,4.846-1.611,1.798-2.416,2.717-2.401,3.69.029,1.784,1.853,3.295,3.267,4.468.447.37,1.122.924,2.112,1.445Z"/></svg>