<?xml version="1.0" encoding="UTF-8"?><svg id="Layer_1" xmlns="http://www.w3.org/2000/svg" viewBox="0 0 121 183"><defs><style>.cls-1{fill:none;stroke:#c35f47;stroke-miterlimit:10;}</style></defs><rect class="cls-1" x=".833" y="78.977" width="119.335" height="103.341" rx="12.592" ry="12.592"/><path class="cls-1" d="m16.826,69.75c-.015-4.116-.461-7.574-.615-9.227-.726-7.807,1.347-15.398,1.845-17.224.819-3,2.831-10.081,8.612-17.224,7.5-9.268,16.917-13.17,22.145-14.763,4.573-1.393,11.634-3.545,19.684-1.23,3.508,1.009,6.235,2.723,11.687,6.151,5.74,3.609,9.267,5.826,12.918,9.842,5.406,5.946,7.648,12.057,8.612,14.763,1.725,4.847,2.175,10.203,3.076,20.914.689,8.195,1.033,12.292.615,13.533-.136.403-.614,1.729,0,2.461.697.831,2.223.205,4.921,0,4.158-.316,5.092.824,6.151,0,1.696-1.319.376-5.075-.615-10.457-1.165-6.326-.317-6.434-1.23-13.533-.675-5.245-1.638-12.728-4.921-20.299-5.733-13.222-15.849-20.502-19.069-22.76-3.236-2.269-10.542-7.274-21.529-9.227-12.866-2.287-23.096.977-27.066,2.461-3.564,1.332-15.332,6.182-23.99,18.454-1.899,2.692-7.996,11.902-9.227,23.99-.538,5.281-.313,12.739-1.23,19.684-.323,2.448-.198,4.948-.615,7.382-.373,2.177-.914,4.292,0,4.921.338.233.643.102,1.845,0,.907-.077,1.835-.052,3.691,0,3.132.087,3.789.539,4.306,0,.529-.553.214-1.419,0-3.076-.262-2.027.012-2.26,0-5.536Z"/><path class="cls-1" d="m63.268,129.11c.687-1.102,1.578-.849,2.461-1.845,1.385-1.564,1.329-4.599,0-6.766-1.176-1.917-3.506-3.411-6.151-3.076-3.315.42-4.789,3.409-4.921,3.691-.079.169-1.421,3.137,0,5.536,1.126,1.902,2.835,1.501,3.691,3.076.947,1.742-.424,3.56-1.845,7.382-.21.564-.96,4.067-2.461,11.072-1.387,6.477-1.676,8.107-.615,9.227.668.706,2.086.88,4.921,1.23,1.887.233,3.772.45,6.151,0,1.976-.374,3.481-.659,4.306-1.845.812-1.168.522-2.571,0-4.921-1.618-7.284-2.427-10.925-3.076-12.303-.707-1.503-1.697-3.285-2.461-6.151-.554-2.082-.613-3.324,0-4.306Z"/><path class="cls-1" d="m59.587,109.426c.306.018.409-2.208,1.226-4.922.4-1.329,1.548-5.013,4.3-8,3.057-3.317,6.392-3.928,6.147-4.926-.241-.983-3.357.111-6.153-1.841-2.68-1.872-2.865-5.009-4.31-4.918-.698.044-.783.784-2.459,2.462-.648.649-1.759,1.761-3.074,2.463-2.784,1.486-5.335.518-5.535,1.235-.162.579,1.509,1.18,3.693,3.073.888.769,2.516,2.181,3.694,4.303,1.133,2.041,1.427,3.976,1.851,6.765.403,2.655.356,4.29.618,4.305Z"/><path class="cls-1" d="m74.629,127.321c-.018.306,2.207.41,4.921,1.228,1.329.401,5.013,1.55,7.998,4.303,3.316,3.058,3.925,6.394,4.923,6.15.983-.24-.11-3.357,1.843-6.152,1.873-2.68,5.01-2.863,4.919-4.308-.044-.698-.784-.783-2.461-2.46-.648-.648-1.76-1.759-2.462-3.075-1.485-2.785-.516-5.335-1.232-5.536-.579-.162-1.18,1.509-3.074,3.692-.77.887-2.182,2.515-4.305,3.692-2.041,1.132-3.977,1.425-6.766,1.848-2.655.402-4.29.354-4.306.617Z"/><path class="cls-1" d="m47.086,128.235c.005-.306-2.222-.319-4.968-1.025-1.344-.346-5.072-1.343-8.168-3.971-3.439-2.919-4.185-6.227-5.172-5.942-.973.281.248,3.35-1.589,6.222-1.761,2.754-4.888,3.067-4.738,4.506.072.695.815.75,2.56,2.357.674.621,1.831,1.686,2.586,2.971,1.598,2.721.734,5.309,1.458,5.48.585.138,1.117-1.556,2.92-3.815.733-.918,2.076-2.602,4.149-3.866,1.993-1.215,3.915-1.587,6.684-2.124,2.637-.511,4.272-.53,4.277-.793Z"/><path class="cls-1" d="m49.141,113.686c.132-.177-1.166-1.125-2.473-2.698-.64-.77-2.4-2.928-3.102-5.773-.779-3.16.181-5.41-.516-5.66-.688-.247-1.27,2.065-3.557,2.969-2.194.868-4.155-.27-4.675.635-.251.437.16.783.503,2.46.132.648.36,1.759.258,2.83-.214,2.267-1.812,3.416-1.461,3.822.284.328,1.311-.438,3.319-.999.816-.228,2.314-.646,4.06-.51,1.679.131,2.961.724,4.808,1.58,1.758.815,2.724,1.494,2.837,1.342Z"/><path class="cls-1" d="m74.722,111.575c.126.182,1.436-.75,3.341-1.494.933-.364,3.536-1.352,6.457-1.118,3.244.259,5.076,1.882,5.533,1.299.451-.574-1.558-1.857-1.693-4.313-.13-2.355,1.57-3.857.875-4.636-.336-.377-.794-.096-2.493-.3-.657-.079-1.783-.215-2.767-.65-2.083-.92-2.668-2.799-3.165-2.594-.401.166.002,1.382-.102,3.465-.042.847-.119,2.399-.8,4.013-.655,1.552-1.623,2.58-3.018,4.062-1.329,1.411-2.278,2.112-2.17,2.267Z"/><path class="cls-1" d="m66.344,174.014c-.272.059-1.977.4-3.076-.615-1.352-1.25-.787-3.633,0-4.921,1.193-1.952,3.673-2.657,5.536-2.461,1.592.168,2.907,1.137,5.536,3.076,2.272,1.675,2.535,2.265,3.691,2.461,2.013.34,3.811-1.011,4.921-1.845,3.364-2.529,3.222-5.117,6.151-6.151,1.266-.447,2.832-.507,3.076,0,.304.632-1.454,2.128-1.845,2.461-1.698,1.445-2.743,1.473-3.076,2.461-.067.199-.226.795.615,2.461.685,1.356,1.765,3.496,4.306,4.921,2.194,1.231,4.232,1.23,5.536,1.23,1.486,0,4.229,0,6.766-1.845.66-.48,4.212-3.197,3.691-6.766-.042-.285-.428-2.669-2.461-3.691-1.877-.943-4.703-.495-5.536,1.23-.453.938-.177,1.964,0,2.461"/><path class="cls-1" d="m54.807,173.36c.272.059,1.977.4,3.076-.615,1.352-1.25.787-3.633,0-4.921-1.193-1.952-3.673-2.657-5.536-2.461-1.592.168-2.907,1.137-5.536,3.076-2.272,1.675-2.535,2.265-3.691,2.461-2.013.34-3.811-1.011-4.921-1.845-3.364-2.529-3.222-5.117-6.151-6.151-1.266-.447-2.832-.507-3.076,0-.304.632,1.454,2.128,1.845,2.461,1.698,1.445,2.743,1.473,3.076,2.461.067.199.226.795-.615,2.461-.685,1.356-1.765,3.496-4.306,4.921-2.194,1.231-4.232,1.23-5.536,1.23-1.486,0-4.229,0-6.766-1.845-.66-.48-4.212-3.197-3.691-6.766.042-.285.428-2.669,2.461-3.691,1.877-.943,4.703-.495,5.536,1.23.453.938.177,1.964,0,2.461"/><path class="cls-1" d="m107.865,154.023c-.115.074-1.957,1.294-1.845,3.076.123,1.963,2.505,2.861,3.076,3.076,1.828.689,3.96.395,5.536-.615,3.48-2.229,3.13-7.224,3.076-7.997-.177-2.526-1.317-4.317-2.461-6.151-.77-1.234-1.906-3.022-3.998-4.613-1.761-1.339-4.726-3.595-8.304-2.768-3.859.892-5.44,4.677-5.536,4.921-.397,1.009-1.394,3.54,0,4.921,1.04,1.029,3.083,1.097,4.921,0"/><path class="cls-1" d="m18.815,148.729c.075.115,1.317,1.941,3.097,1.809,1.961-.146,2.831-2.539,3.039-3.112.667-1.836.347-3.964-.681-5.528-2.27-3.454-7.261-3.044-8.033-2.98-2.523.207-4.301,1.368-6.122,2.534-1.225.784-2.999,1.942-4.565,4.053-1.318,1.776-3.538,4.768-2.669,8.337.938,3.848,4.741,5.384,4.987,5.477,1.014.385,3.557,1.352,4.921-.059,1.017-1.052,1.06-3.096-.059-4.921"/><path class="cls-1" d="m13.555,103.806c.108-.084,1.829-1.469,1.553-3.233-.304-1.943-2.759-2.617-3.347-2.778-1.883-.517-3.979-.027-5.456,1.124-3.26,2.541-2.449,7.483-2.323,8.247.41,2.498,1.71,4.177,3.018,5.898.88,1.158,2.178,2.833,4.408,4.224,1.877,1.171,5.038,3.143,8.524,1.989,3.76-1.245,4.984-5.159,5.058-5.412.303-1.042,1.061-3.654-.455-4.9-1.13-.929-3.171-.807-4.9.455"/><path class="cls-1" d="m27.65,90.453c-.034.111-.555,1.903.491,2.991,1.152,1.198,3.178.475,3.663.302,1.555-.555,2.768-1.909,3.233-3.422,1.026-3.339-1.929-6.368-2.387-6.836-1.494-1.531-3.208-2.064-4.947-2.621-1.171-.375-2.88-.907-5.099-.79-1.867.098-5.011.264-6.866,2.753-2.001,2.684-.952,5.987-.88,6.198.295.868,1.035,3.044,2.689,3.173,1.233.096,2.587-.977,3.173-2.689"/><path class="cls-1" d="m100.147,89.695c-.01.115-.145,1.977,1.105,2.823,1.377.931,3.207-.199,3.646-.47,1.404-.867,2.308-2.446,2.446-4.022.305-3.479-3.218-5.824-3.763-6.186-1.781-1.185-3.568-1.348-5.386-1.529-1.223-.122-3.006-.285-5.151.294-1.805.487-4.845,1.306-6.139,4.127-1.396,3.043.321,6.054.434,6.245.47.787,1.649,2.761,3.293,2.541,1.225-.164,2.326-1.496,2.541-3.293"/><path class="cls-1" d="m101.445,108.72c-.082-.11-1.422-1.865-3.193-1.634-1.95.255-2.685,2.692-2.862,3.276-.564,1.87-.127,3.977.986,5.482,2.458,3.323,7.419,2.637,8.186,2.53,2.508-.347,4.219-1.605,5.972-2.869,1.18-.851,2.887-2.105,4.334-4.3,1.218-1.847,3.269-4.957,2.203-8.472-1.15-3.791-5.032-5.113-5.282-5.192-1.034-.329-3.626-1.153-4.91.331-.957,1.107-.887,3.15.331,4.91"/><path class="cls-1" d="m11.597,119.268c.314.205,1.407.974,1.845,2.461.082.277.402,1.362,0,2.461-.322.882-1.047,1.599-4.306,3.076-3.447,1.562-4.909,1.79-4.921,2.461-.013.749,1.797,1.391,3.076,1.845,2.272.807,2.937.441,4.306,1.23.24.138,2.477,1.461,2.461,3.076-.016,1.591-2.219,3.328-5.536,3.691"/><path class="cls-1" d="m110.222,139.021c-.321-.194-1.44-.925-1.93-2.395-.091-.274-.449-1.347-.085-2.459.292-.893.99-1.634,4.197-3.223,3.391-1.68,4.844-1.96,4.833-2.63-.013-.749-1.844-1.328-3.138-1.738-2.298-.727-2.951-.339-4.346-1.08-.244-.13-2.526-1.374-2.566-2.988-.039-1.591,2.102-3.403,5.405-3.881"/><path class="cls-1" d="m57.424,80.822c.028.534-.003,1.537-.615,2.461-1.185,1.788-3.59,1.832-4.306,1.845-1.423.026-2.421-.4-4.306-1.23-2.934-1.292-3.04-2.014-4.921-2.461-.996-.236-3.325-.789-4.921.615-.946.832-1.554,2.281-1.23,3.691.404,1.763,2.182,3.101,4.306,3.076"/><path class="cls-1" d="m64.001,81.077c-.028.534.003,1.537.615,2.461,1.185,1.788,3.59,1.832,4.306,1.845,1.423.026,2.421-.4,4.306-1.23,2.934-1.292,3.04-2.014,4.921-2.461.996-.236,3.325-.789,4.921.615.946.832,1.554,2.281,1.23,3.691-.404,1.763-2.182,3.101-4.306,3.076"/></svg>