<?xml version="1.0" encoding="UTF-8"?><svg id="Layer_1" xmlns="http://www.w3.org/2000/svg" viewBox="0 0 128 188"><defs><style>.cls-1{fill:none;stroke:#c35f47;stroke-miterlimit:10;}</style></defs><path class="cls-1" d="m19.974,69.075c1.189-1.409.432-3.053,0-7.997-.125-1.433-.467-5.94,0-10.457.239-2.312.75-6.888,3.076-11.687,1.659-3.423,4.409-6.225,9.842-11.687,5.271-5.301,7.907-7.951,11.072-9.842,5.99-3.579,11.626-4.589,14.148-4.921,8.48-1.116,15.014,1.06,19.069,2.461,3.35,1.157,10.173,3.597,16.608,9.842,4.983,4.835,7.32,9.61,9.842,14.763,3.543,7.239,5.57,11.379,5.536,17.224-.033,5.793-2.064,8.711,0,11.072,2.409,2.757,8.342,2.401,9.227.615.503-1.016-.667-2.408,0-3.076.681-.681,2.177.494,3.076,0,1.762-.969-.141-7.609-.615-9.227-3.431-11.712-5.146-17.569-5.536-18.454-2.623-5.957-5.282-11.996-11.072-18.454-7.067-7.881-14.727-11.846-18.454-13.533-4.471-2.024-11.96-4.698-21.529-4.921-4.993-.116-14.204-.221-23.99,4.921-8.075,4.243-12.51,9.939-17.224,15.993-6.267,8.05-9.219,15.139-11.072,19.684-4.247,10.414-6.446,21.264-3.691,22.76,1.112.604,2.858-.411,3.691.615.919,1.133-.764,2.919,0,4.306,1.034,1.878,6.114,2.232,7.997,0Z"/><path class="cls-1" d="m67.339,138.585c.3,3.228,1.292,4.949,2.461,7.997,1.741,4.539,3.734,9.735,1.845,11.687-.649.671-1.463.656-4.306.615-11.025-.157-12.309-.119-12.918-1.23-.63-1.149.195-3.022,1.845-6.766,1.072-2.433,1.485-2.655,3.076-6.151,1.001-2.201,1.552-3.682,1.845-5.536.292-1.843.438-2.764,0-3.691-1.05-2.224-3.838-1.626-4.921-3.691-.911-1.737.137-3.923.615-4.921.208-.433,2.31-4.635,6.766-4.921,3.384-.218,5.657,1.982,6.151,2.461.291.282,3.287,3.182,2.461,5.536-.642,1.828-2.923,1.433-4.306,3.691-.913,1.491-.786,3.079-.615,4.921Z"/><path class="cls-1" d="m89.484,119.516c-2.463-.476-6.442,2.005-9.227,5.536-1.432,1.816-3.879,4.917-3.691,9.227.065,1.49.224,5.138,3.076,6.766,2.005,1.145,4.865,1.02,6.766-.615,2.278-1.959,2.793-5.753,1.23-7.382-1.093-1.139-3.256-1.273-3.691-.615-.418.632.633,2.19,1.23,3.076.791,1.172,1.153,1.246,1.23,1.845.153,1.197-1.076,2.585-2.461,3.076-1.893.671-3.562-.52-3.691-.615-1.201-.887-1.499-2.185-1.845-3.691-.225-.977-.672-3.034,0-5.536.139-.518,1.134-4.022,4.306-6.151,1.365-.916,4.098-2.225,6.151-3.076.661-.274,1.901-.769,1.845-1.23-.047-.387-.983-.567-1.23-.615Z"/><path class="cls-1" d="m37.736,119.879c2.463-.476,6.442,2.005,9.227,5.536,1.432,1.816,3.879,4.917,3.691,9.227-.065,1.49-.224,5.138-3.076,6.766-2.005,1.145-4.865,1.02-6.766-.615-2.278-1.959-2.793-5.753-1.23-7.382,1.093-1.139,3.256-1.273,3.691-.615.418.632-.633,2.19-1.23,3.076-.791,1.172-1.153,1.246-1.23,1.845-.153,1.197,1.076,2.585,2.461,3.076,1.893.671,3.562-.52,3.691-.615,1.201-.887,1.499-2.185,1.845-3.691.225-.977.672-3.034,0-5.536-.139-.518-1.134-4.022-4.306-6.151-1.365-.916-4.098-2.225-6.151-3.076-.661-.274-1.901-.769-1.845-1.23.047-.387.983-.567,1.23-.615Z"/><path class="cls-1" d="m63.033,88.759c-2.56.012-5.447,1.761-5.536,3.691-.028.605.391,1.232,1.23,2.461,1.601,2.345,2.402,3.518,3.691,3.691,1.083.146,1.952-.518,3.691-1.845,1.876-1.432,3.107-2.372,3.076-3.691-.034-1.452-1.578-2.485-2.461-3.076-.574-.384-1.888-1.239-3.691-1.23Z"/><path class="cls-1" d="m50.423,85.991c1.096,1.304,2.992,1.493,4.306,1.23,1.506-.301,3.237-1.391,3.691-3.076.547-2.031-1.042-3.883-2.461-5.536-2.528-2.945-5.55-4.087-6.151-4.306-4.676-1.697-8.852-.489-10.457,0-6.133,1.868-9.372,6.423-10.457,7.997-2.714,3.936-3.356,7.729-3.691,9.842-.315,1.988-.919,6.105.615,11.072,1.426,4.618,3.873,7.293,6.766,10.457,3.149,3.443,4.075,3.171,4.306,3.076.978-.404,1.422-2.582.615-3.691-.584-.802-1.364-.417-2.461-1.23-1.851-1.373-1.848-4.121-1.845-4.306.022-1.446.622-2.562,1.23-3.691.947-1.759,1.789-2.282,1.845-3.691.014-.357.055-1.377-.615-1.845-.798-.558-2.235-.076-2.461.615-.199.612.679,1,.615,1.845-.082,1.075-1.634,2.182-2.461,1.845-1.088-.444-.673-3.296-.615-3.691.126-.867.404-2.769,1.845-3.691.647-.414.872-.21,2.461-.615,1.749-.446,3.465-.883,3.691-1.845.195-.83-.714-2.069-1.845-2.461-1.884-.652-3.358,1.401-4.921.615-.735-.369-1.146-1.193-1.23-1.845-.154-1.191.719-2.277,3.076-4.306,3.381-2.911,5.072-4.367,6.766-4.921.861-.282,3.445-.188,8.612,0,1.51.055,3.062.133,4.306,1.23.963.85,1.533,2.127,1.23,2.461-.259.284-1.033-.252-3.076-.615-1.493-.265-1.742-.096-1.845,0-.568.53-.198,2.108.615,3.076Z"/><path class="cls-1" d="m78.566,84.888c-1.096,1.304-2.992,1.493-4.306,1.23-1.506-.301-3.237-1.391-3.691-3.076-.547-2.031,1.042-3.883,2.461-5.536,2.528-2.945,5.55-4.087,6.151-4.306,4.676-1.697,8.852-.489,10.457,0,6.133,1.868,9.372,6.423,10.457,7.997,2.714,3.936,3.356,7.729,3.691,9.842.315,1.988.919,6.105-.615,11.072-1.426,4.618-3.873,7.293-6.766,10.457-3.149,3.443-4.075,3.171-4.306,3.076-.978-.404-1.422-2.582-.615-3.691.584-.802,1.364-.417,2.461-1.23,1.851-1.373,1.848-4.121,1.845-4.306-.022-1.446-.622-2.562-1.23-3.691-.947-1.759-1.789-2.282-1.845-3.691-.014-.357-.055-1.377.615-1.845.798-.558,2.235-.076,2.461.615.199.612-.679,1-.615,1.845.082,1.075,1.634,2.182,2.461,1.845,1.088-.444.673-3.296.615-3.691-.126-.867-.404-2.769-1.845-3.691-.647-.414-.872-.21-2.461-.615-1.749-.446-3.465-.883-3.691-1.845-.195-.83.714-2.069,1.845-2.461,1.884-.652,3.358,1.401,4.921.615.735-.369,1.146-1.193,1.23-1.845.154-1.191-.719-2.277-3.076-4.306-3.381-2.911-5.072-4.367-6.766-4.921-.861-.282-3.445-.188-8.612,0-1.51.055-3.062.133-4.306,1.23-.963.85-1.533,2.127-1.23,2.461.259.284,1.033-.252,3.076-.615,1.493-.265,1.742-.096,1.845,0,.568.53.198,2.108-.615,3.076Z"/><path class="cls-1" d="m58.112,102.907c-.301-.125-2.735-1.105-3.691,0-.531.614-.511,1.765,0,2.461.585.796,1.443.492,3.076,1.23.858.388,1.924.87,2.461,1.845.948,1.725.057,4.666-1.845,5.536-.595.272-1.73.543-2.461,0-.791-.588-.355-1.57-1.23-2.461-.625-.635-1.761-1.064-2.461-.615-.541.347-.76,1.177-.615,1.845.263,1.214,1.598,1.279,1.845,2.461.137.653-.085,1.517-.615,1.845-1.131.701-3.457-1.165-4.306-1.845-2.397-1.922-2.545-3.245-4.306-3.691-.938-.238-2.388-.241-3.076.615-.782.973-.187,2.573,0,3.076,1.314,3.532,5.612,4.952,7.382,5.536,2.67.882,5.179,1.711,7.997.615,3.633-1.412,5.059-4.963,5.536-6.151.447-1.114,1.441-3.692.615-6.766-.2-.744-1.244-4.265-4.306-5.536Z"/><path class="cls-1" d="m69.939,102.983c.301-.125,2.735-1.105,3.691,0,.531.614.511,1.765,0,2.461-.585.796-1.443.492-3.076,1.23-.858.388-1.924.87-2.461,1.845-.948,1.725-.057,4.666,1.845,5.536.595.272,1.73.543,2.461,0,.791-.588.355-1.57,1.23-2.461.625-.635,1.761-1.064,2.461-.615.541.347.76,1.177.615,1.845-.263,1.214-1.598,1.279-1.845,2.461-.137.653.085,1.517.615,1.845,1.131.701,3.457-1.165,4.306-1.845,2.397-1.922,2.545-3.245,4.306-3.691.938-.238,2.388-.241,3.076.615.782.973.187,2.573,0,3.076-1.314,3.532-5.612,4.952-7.382,5.536-2.67.882-5.179,1.711-7.997.615-3.633-1.412-5.059-4.963-5.536-6.151-.447-1.114-1.441-3.692-.615-6.766.2-.744,1.244-4.265,4.306-5.536Z"/><path class="cls-1" d="m126.084,79.225c0,9.934,2.609,23.955.615,43.059-.637,6.106-1.45,13.519-4.306,22.76-2.605,8.426-4.676,15.127-10.457,22.145-6.75,8.194-14.584,11.996-17.839,13.533-6.091,2.876-10.92,3.763-17.224,4.921-15.699,2.883-26.93,1.068-29.526.615-3.558-.621-6.91-1.229-11.072-3.076-6.452-2.862-10.402-6.725-14.148-10.457-2.952-2.942-8.841-8.908-13.533-18.454-4.42-8.992-5.457-16.438-6.766-25.835-1.215-8.72-1.22-15.209-1.23-26.45-.016-17.785,1.559-15.293.615-23.375-.739-6.325-1.23-9.842.615-13.533,1.054-2.108,5.542-1.721,7.382,0,.668.625.975,2.631,1.23,3.691.935,3.875-.033,5.241-.615,10.457-.687,6.16.119,7.414.615,7.997,1.049,1.231,3.172,2.345,4.921,1.845,1.294-.37,1.673-1.42,2.461-1.23,1.005.242,1.829,2.298,1.23,3.691-.521,1.211-1.861,1.326-4.921,2.461-3.521,1.305-5.282,1.958-6.151,3.076-1.161,1.493-.537,2.764,0,9.227.228,2.75.528,6.354.615,10.457.106,4.999-.181,7.009,1.23,7.997,1.568,1.097,3.603-.209,4.921,1.23.726.793.929,2.086.615,3.076-.63,1.988-3.194,2.279-3.076,3.076.122.82,2.935,1.195,4.921,1.23,3.106.055,4.233-.723,4.921,0,1.233,1.297-1.041,5.215-1.23,5.536-1.48,2.505-3.916,2.334-4.306,4.306-.151.764-.043,1.85.615,2.461,1.07.992,2.583-.207,3.691.615.904.671.703,2.067.615,6.151-.064,3.009-.097,4.514,0,4.921.753,3.167,3.373,3.148,7.382,7.382,3.176,3.354,2.797,4.703,6.151,7.382.784.626,4.44,3.546,6.151,2.461,1.07-.679.387-2.294,1.845-3.691,1.205-1.153,2.875-1.205,3.691-1.23.348-.011,3.85-.119,4.921,1.845.962,1.765-.907,3.611,0,4.921.888,1.283,3.576.804,4.921.615,10.182-1.433,17.668,3.274,19.069.615.632-1.201-.837-2.267,0-4.306.855-2.08,3.176-2.895,3.691-3.076.782-.275,2.917-1.024,4.306,0,1.33.98.685,2.634,1.845,3.691,1.409,1.283,4.122.452,5.536,0,5.384-1.719,13.647-7.014,14.148-14.148.054-.766.036-2.561,0-6.151-.044-4.449-.15-5.399.615-6.151,1.774-1.743,5.2.547,6.766-1.23.911-1.034.859-3.064,0-4.306-1.546-2.235-4.893-.737-6.766-3.076-.957-1.194-1.232-3.016-.615-4.306.781-1.633,2.85-2.119,4.306-2.461,2.731-.641,4.768-.075,4.921-.615.14-.496-1.618-.839-2.461-2.461-.791-1.522-.591-3.817.615-4.921,1.133-1.038,2.317-.256,3.691-1.23,1.304-.924,1.504-2.526,1.845-4.306,1.003-5.229,1.791-4.522,2.461-8.612.498-3.042,1.237-7.85-.615-12.918-.597-1.634-1.109-3.035-2.461-4.306-1.649-1.551-2.899-1.356-4.306-3.076-.882-1.079-2.038-3.17-1.23-4.306.577-.811,2.042-.977,3.076-.615,1.25.437,1.241,1.424,2.461,1.845,1.06.366,2.44.094,3.076-.615.971-1.083-1.129-2.709-1.845-6.151-.596-2.864.548-2.885.615-8.612.035-2.981-.262-4.076.615-4.921,1.15-1.109,3.701-1.192,4.921,0,1.17,1.142,1.23,3.825,1.23,9.227v3.691"/><path class="cls-1" d="m22.127,69.383c1.889.283,4.407.563,7.382.615,3.266.057,9.321.163,15.378-1.845,10.146-3.365,13.75-10.494,18.454-8.612,1.021.409.601.645,3.076,2.461.258.19,4.9,3.551,9.842,4.921,4.16,1.154,7.024.478,11.687,0,4.397-.451,10.644-.752,18.454,0"/></svg>