<?xml version="1.0" encoding="UTF-8"?><svg id="Layer_1" xmlns="http://www.w3.org/2000/svg" viewBox="0 0 126 197"><defs><style>.cls-1{fill:none;stroke:#c35f47;stroke-miterlimit:10;}</style></defs><path class="cls-1" d="m20.66,83.417c-.727.615-2.135.623-4.921.615-2.805-.008-4.208-.013-4.921-.615-1.272-1.075-.974-3.03-.615-7.382.287-3.48.335-6.977.615-10.457.542-6.738.265-6.868.615-10.457.285-2.922.947-9.283,3.691-16.608,2.746-7.329,6.316-12.25,8.612-15.378,2.475-3.373,6.092-8.223,12.303-12.918,2.941-2.223,7.159-5.354,13.533-7.382,5.762-1.833,10.437-1.857,14.763-1.845,5.152.014,10.794.03,17.224,2.461,8.086,3.057,12.862,8.21,17.224,12.918,7.158,7.725,10.587,15.249,11.687,17.839,3.346,7.874,4.272,14.821,4.921,19.684.46,3.446.202,3.11,1.23,12.918.321,3.066.365,6.155.615,9.227.397,4.876.667,6.74-.615,7.997-1.098,1.076-2.748,1.133-5.536,1.23-2.538.088-3.915.136-4.921-.615-2.093-1.563-1.112-5.492-.615-10.457,0,0,.719-7.192-.615-17.839-.863-6.884-2.681-11.981-3.691-14.763-1.622-4.467-3.752-10.437-8.612-16.608-2.979-3.783-7.415-9.416-15.378-12.918-12.733-5.599-24.747-1.465-27.066-.615-9.178,3.364-14.384,9.491-17.224,12.918-1.03,1.244-9.315,11.41-11.072,25.835-.397,3.259-.67,8.45-.615,13.533.047,4.306-.465,8.637,0,12.918.325,2.997.841,5.534-.615,6.766Z"/><path class="cls-1" d="m23.428,84.339c.662.833.646,1.991.615,4.306-.027,1.986-.04,2.979-.615,3.691-1.016,1.258-2.808.729-7.382.615-6.11-.153-7.48.676-8.612-.615-1.6-1.825-.736-5.62-.615-6.151.213-.935.267-1.414.615-1.845,1.139-1.409,3.323-.775,7.382-.615,5.71.224,7.493-.792,8.612.615Z"/><path class="cls-1" d="m119.031,85.949c.662.833.646,1.991.615,4.306-.027,1.986-.04,2.979-.615,3.691-1.016,1.258-2.808.729-7.382.615-6.11-.153-7.48.676-8.612-.615-1.6-1.825-.736-5.62-.615-6.151.213-.935.267-1.414.615-1.845,1.139-1.409,3.323-.775,7.382-.615,5.71.224,7.493-.792,8.612.615Z"/><path class="cls-1" d="m116.62,95.104c1.353,1.221.16,3.552-.615,9.842-.342,2.773-.08,1.966-.615,7.997-.543,6.117-.732,6.041-.615,7.382.281,3.228,1.433,4.352,3.691,9.227,0,0,2.332,5.036,4.306,11.687.964,3.248,2.077,6.997,2.461,11.687.32,3.907.89,10.879-2.461,17.839-2.612,5.426-6.37,8.274-11.687,12.303-9.032,6.843-17.623,9.645-20.299,10.457-7.672,2.329-14.137,2.373-27.066,2.461-13.707.093-20.74.087-29.526-2.461-4.974-1.442-11.91-3.527-19.069-9.227-3.777-3.007-9.919-7.897-12.918-16.608-2.87-8.34-1.374-15.866-.615-19.684,1.046-5.26,3.01-9.875,4.306-12.918,2.947-6.921,3.874-6.565,4.921-10.457,1.252-4.654.835-8.639,0-16.608-.977-9.332-2.314-13.905-.615-14.763.568-.287.945.093,4.306,0,2.036-.057,2.118-.202,2.461,0,1.281.756,1.076,3.795.615,9.842-.051.666-.145,1.626-.145,2.973.001,2.324.325,3.652.145,9.945-.151,5.252-.226,7.878-.615,9.842-.815,4.113-1.985,5.766-5.536,13.533-3.131,6.848-4.697,10.273-4.921,11.687-1.222,7.721,2.735,14.365,5.536,19.069,1.801,3.024,5.808,9.581,13.533,14.148,4.884,2.887,9.642,4.026,22.145,4.921,20.942,1.499,31.412,2.248,42.444-1.23,7.575-2.389,16.11-5.211,22.145-13.533,5.246-7.234,6.002-15.039,6.151-17.224.472-6.884-1.355-12.239-2.461-15.378-2.888-8.198-5.248-7.396-7.382-14.763-1.352-4.667-1.526-8.881-1.845-16.608-.227-5.482.233-3.969,0-8.612-.217-4.32-.656-6.439.615-7.382.379-.281.739-.33,4.921,0,3.825.302,4.051.385,4.306.615Z"/><path class="cls-1" d="m24.351,90.798c2.28.602,5.799,1.449,10.15,2.153,7.601,1.23,11.663,1.037,29.834.923,15.772-.099,19.106.006,26.45-.615,4.58-.387,8.388-.86,11.072-1.23"/><path class="cls-1" d="m17.585,94.489c1.221.886,2.872,1.983,4.921,3.076,1.256.67,3.975,2.103,7.382,3.076,3.144.898,5.787,1.009,11.072,1.23,5.059.212,6.169-.084,9.227.615,3.173.725,5.039,1.743,6.151,2.461,1.432.924,3.203,2.066,4.306,4.306.529,1.074,1.648,3.347.615,5.536-.894,1.894-3.081,3.054-5.536,3.076"/><path class="cls-1" d="m107.807,94.519c-1.221.886-2.872,1.983-4.921,3.076-1.256.67-3.975,2.103-7.382,3.076-3.144.898-5.787,1.009-11.072,1.23-5.059.212-6.169-.084-9.227.615-3.173.725-5.039,1.743-6.151,2.461-1.432.924-3.203,2.066-4.306,4.306-.529,1.074-1.648,3.347-.615,5.536.894,1.894,3.081,3.054,5.536,3.076"/><path class="cls-1" d="m64.334,136.933c-1.476-.285-3.422-.662-4.921.615-1.411,1.201-1.855,3.38-1.23,4.921.666,1.643,2.092,1.444,3.076,3.076.936,1.553.597,3.282,0,6.151-.285,1.372-.847,3.595-2.461,7.382-2.029,4.763-2.97,5.544-2.461,6.766.935,2.245,5.264,2.39,7.382,2.461,2.001.067,6.473.216,7.382-1.845.598-1.357-.938-2.333-3.691-7.997-.764-1.571-1.772-3.813-2.461-6.766-.904-3.878-.335-5.033,0-5.536.909-1.367,2.182-.944,3.076-2.461.779-1.322,1.056-3.404,0-4.921-.91-1.307-2.393-1.594-3.691-1.845Z"/><path class="cls-1" d="m100.012,118.946c.338-2.332-1.385-4.277-1.845-4.797-.103-.116-2.409-2.649-5.536-2.741-6.535-.192-8.416,10.517-19.069,15.076-.511.219-2.117.883-4.306,1.371-2.455.547-7.574,1.301-13.533-.685-1.511-.504-4.956-1.81-8.612-4.797-5.54-4.526-5.075-7.609-8.612-8.909-5.592-2.054-13.205,3.284-12.918,5.482.113.863,1.496,1.649,2.461,1.371,1.165-.336.98-2.012,2.461-3.426,1.61-1.538,3.763-1.404,4.306-1.371.604.037,2.707.258,4.306,2.056,1.643,1.848,1.739,4.219,1.845,6.853.109,2.697.208,5.156-1.23,7.538-1.817,3.008-4.803,3.769-6.151,4.112-1.602.408-4.981,1.268-6.766-.685-1.789-1.957-.375-4.984-2.461-6.853-1.058-.948-2.63-1.253-3.076-.685-.514.655.431,2.528,1.23,4.112,1.024,2.029,1.47,2.118,1.845,3.426.087.303.608,2.204,0,4.112-.671,2.106-2.152,2.44-3.691,4.112-2.35,2.553-2.792,6.005-3.076,8.223-.27,2.112-.887,6.931,1.845,10.965,2.138,3.156,5.153,4.1,7.382,4.797,2.024.634,5,1.565,7.997,0,.791-.413,2.922-1.526,3.691-4.112.641-2.156.284-5.172-1.23-6.168-1.804-1.185-4.01,1.31-5.536,0-.929-.798-1.22-2.677-.615-3.426.939-1.164,3.385,1.198,5.536,0,1.05-.584,1.358-1.643,2.461-4.797,1.75-5.009,2.626-7.514,3.076-8.223,1.212-1.91,1.886-1.769,7.382-6.168,4.578-3.664,3.74-3.466,4.921-4.112,4.078-2.232,8.243-1.41,15.378,0,3.303.652,4.991,1,6.766,2.056,4.195,2.494,6.295,6.576,6.766,7.538,1.662,3.393,1.098,4.801,3.691,10.965.999,2.373,1.867,4.029,3.076,4.112,1.509.104,2.27-2.33,3.691-2.056,1.147.221,2.156,2.096,1.845,3.426-.251,1.076-1.401,1.646-3.691,2.741-2.458,1.176-3.378,1.152-3.691,2.056-.435,1.257.801,2.867,1.23,3.426,1.535,1.999,3.608,2.563,4.306,2.741,4.717,1.207,9.023-2.086,9.842-2.741,3.425-2.738,6.858-8.085,6.151-13.706-.335-2.664-1.797-6.959-4.921-9.594-1.547-1.305-3.474-2.18-3.691-4.112-.11-.979.212-2.304.755-3.325.378-.711.813-1.178,1.09-1.472,1.324-1.403,2.104-1.209,2.461-2.056.434-1.033-.104-2.805-1.23-3.426-1.056-.583-2.34.004-3.076.685-1.654,1.532-.656,3.652-2.461,6.168-.321.447-1.111,1.521-2.461,2.056-2.161.857-4.202-.284-4.921-.685-2.012-1.124-3.021-2.9-3.691-4.112-.878-1.589-2.536-4.591-1.845-8.223.584-3.071,2.494-4.737,4.921-6.853,1.637-1.427,3.026-2.604,4.306-2.056,1.078.462,1.908,2.049,1.845,3.426-.059,1.298-.879,1.786-.615,2.741.223.808,1.085,1.452,1.845,1.371,1.116-.119,1.704-1.767,1.845-2.741Z"/><path class="cls-1" d="m62.321,175.064c.028.534-.003,1.537-.615,2.461-1.185,1.788-3.59,1.832-4.306,1.845-1.423.026-2.421-.4-4.306-1.23-2.934-1.292-3.04-2.014-4.921-2.461-.996-.236-3.325-.789-4.921.615-.946.832-1.554,2.281-1.23,3.691.404,1.763,2.182,3.101,4.306,3.076"/><path class="cls-1" d="m64.389,175.433c-.028.534.003,1.537.615,2.461,1.185,1.788,3.59,1.832,4.306,1.845,1.423.026,2.421-.4,4.306-1.23,2.934-1.292,3.04-2.014,4.921-2.461.996-.236,3.325-.789,4.921.615.946.832,1.554,2.281,1.23,3.691-.404,1.763-2.182,3.101-4.306,3.076"/></svg>