<?xml version="1.0" encoding="UTF-8"?><svg id="Layer_1" xmlns="http://www.w3.org/2000/svg" viewBox="0 0 130 189"><defs><style>.cls-1{fill:none;stroke:#c35f47;stroke-miterlimit:10;}</style></defs><path class="cls-1" d="m12.905,56.558c-.886-.804-1.192-2.162-.586-7.031.531-4.264.796-6.397,1.758-9.375,2.657-8.23,4.548-14.09,8.789-19.921C31.947,7.743,45.695,3.781,49.818,2.654c15.631-4.273,28.459.026,33.397,1.758,4.467,1.566,14.229,5.122,22.851,14.648,0,0,9.168,10.129,12.304,24.023.477,2.111.122,1.66,1.172,8.203.568,3.538.895,5.068,0,5.859-.835.738-1.783-.008-5.273,0-3.221.007-3.882.646-4.687,0-1.212-.972-.35-2.928-.586-7.031-.143-2.498-.607-4.276-1.172-6.445-.241-.925-1.159-4.302-3.516-8.789-1.898-3.614-4.679-8.91-9.961-13.476-6.039-5.221-12.276-6.833-17.578-8.203-4.815-1.245-12.269-3.082-21.679-1.172-8.966,1.82-14.968,6.08-16.992,7.617-3.898,2.961-12.635,9.598-13.476,18.749-.649,7.059-.586,9.961-.586,9.961.079,3.64.461,6.149-1.172,7.617-.884.795-1.956.921-4.101,1.172-2.553.299-4.618.541-5.859-.586Z"/><path class="cls-1" d="m67.689,128.919c.472-1.014,1.11-1.065,1.758-2.344.251-.495.777-1.568.586-2.93-.042-.296-.272-1.939-1.758-2.93-.274-.183-1.438-.931-2.93-.586-1.474.341-2.194,1.502-2.344,1.758-1.024,1.754-.182,3.71,0,4.101.575,1.24,1.228,1.233,1.758,2.344.683,1.434.284,2.892,0,4.101-.632,2.689-.709,5.48-1.172,8.203-.151.89.013-.038-1.172,8.203-.729,5.071-1.008,6.93,0,7.617.566.386.939-.008,3.516,0,2.525.007,2.95.387,3.516,0,1.053-.721.614-2.743,0-7.031-.474-3.309-.777-6.641-1.172-9.961-.278-2.335-.091-4.732-.586-7.031-.234-1.089-.571-2.29,0-3.516Z"/><path class="cls-1" d="m113.976,74.428c-1.713.157-2.195-.366-2.344-.586-.796-1.182.81-4.336,2.93-4.687,2.141-.355,4.027,2.28,4.687,4.101.969,2.671.074,5.721-1.758,7.617-2.082,2.156-4.847,2.275-6.445,2.344-.823.035-6.815.293-9.961-4.101-2.209-3.086-2.265-6.602-1.758-9.961.431-2.855,1.507-6.103,4.101-8.203,2.158-1.746,6.385-3.53,9.961-3.516,6.136.024,8.777,1.799,12.304,5.273,3.39,3.338,4.291,8.199,2.93,12.304-.25.755-1.143,3.433-4.101,7.617-2.912,4.118-3.503,4.732-4.101,6.445-1.159,3.319-.775,6.277-.586,7.617.607,4.308,2.556,7.119,3.516,8.789,4.289,7.461,2.845,16.49,1.172,26.952-1.117,6.983-1.81,11.317-4.687,16.406-5.327,9.42-13.962,14.037-21.679,18.163-10.921,5.84-12.543,3.61-18.749,8.789-7.115,5.937-10.247,13.259-13.476,12.304-1.512-.447-1.448-2.236-3.516-5.273-2.578-3.787-5.839-5.65-9.375-7.617-9.627-5.356-13.716-3.235-22.851-7.617-8.266-3.965-13.424-9.784-15.82-12.89-5.411-7.018-7.24-13.836-8.203-17.578-.988-3.837-3.385-13.5-.586-24.609,1.684-6.685,4.63-11.4,3.516-18.749-.283-1.868-.598-3.945-1.758-6.445-2.051-4.422-4.509-5.349-5.859-9.375-.155-.463-1.035-3.182-.586-6.445.797-5.788,5.45-10.921,11.132-12.89,1.206-.418,7.785-2.539,13.476,1.172.561.366,3.015,2.029,4.687,5.273.577,1.12,2.449,5.121,1.172,9.961-.397,1.506-1.836,6.96-6.445,8.203-4.25,1.146-7.941-2.168-8.789-2.93-.824-.74-4.53-4.068-3.516-7.617.442-1.547,1.749-3.023,3.516-3.516,1.788-.498,4.344-.07,5.273,1.758.907,1.783.045,4.466-1.172,4.687-1.041.19-2.148-1.459-2.344-1.758"/><path class="cls-1" d="m38.686,77.065c-1.597.771-3.466.535-4.687-.586-1.546-1.419-1.684-3.914-.586-5.273.981-1.214,2.681-1.191,4.101-1.172.714.01,3.155.077,5.273,1.758,1.998,1.586,1.374,2.754,3.516,5.859.846,1.226,2.64,3.762,5.859,5.273,1.47.69,3.215,1.509,5.273,1.172,4.354-.713,5.978-5.924,8.203-5.273.852.249.634,1.019,2.344,2.344,1.174.91,2.259,1.308,3.516,1.758,2.559.916,3.838,1.373,5.273,1.172,2.139-.301,3.465-1.864,5.859-4.687,2.739-3.23,2.449-4.152,4.687-5.859,1.724-1.315,3.355-1.881,4.687-2.344,2.065-.717,3.097-1.075,4.101-.586,1.511.735,2.13,2.952,1.758,4.687-.348,1.623-1.746,3.68-3.516,3.516-1.366-.127-2.198-1.507-2.344-1.758"/><path class="cls-1" d="m17.886,77.358c.213.475,1.041,2.165,2.93,2.93,2.917,1.181,5.605-.962,5.859-1.172,2.54-2.094,2.388-5.47,2.344-6.445-.125-2.771-1.495-4.678-2.344-5.859-.789-1.098-2.557-3.49-5.859-4.687-4.417-1.602-8.332.11-9.375.586-1.381.63-4.058,2.143-5.859,5.273-.476.828-2.546,4.426-1.465,8.496.655,2.465,2.249,3.857,4.101,5.859,4.451,4.811,7.641,4.27,8.203,7.031.313,1.539-.607,2.057-2.344,6.445-1.127,2.849-1.674,4.992-2.344,7.617-1.308,5.128-1.575,9.25-1.758,12.304-.303,5.062-.586,9.795.586,15.82.537,2.762,2.053,9.257,6.445,16.406,3.595,5.852,6.785,11.044,12.89,13.476,2.928,1.167,3.296.411,10.547,2.344,4.512,1.203,7.142,1.903,10.547,3.516,5.366,2.541,9.027,4.274,11.718,8.203,1.432,2.091,2.062,4.033,3.516,4.101,1.555.073,2.56-2.07,4.101-4.101,2.352-3.101,5.083-4.606,10.547-7.617,5.577-3.073,6.319-1.987,14.062-5.273,4.771-2.025,8.665-3.678,12.89-7.031,2.393-1.899,7.364-5.934,10.547-12.89,2.406-5.26,2.589-9.565,2.93-17.578.318-7.49-.501-13.034-1.172-16.406-1.094-5.493-1.64-8.239-3.516-10.547-1.692-2.082-3.847-3.468-3.516-5.273.213-1.161,1.282-1.551,2.93-2.93,1.925-1.61,2.896-3.209,4.687-5.859,1.508-2.232,2.41-3.986,3.223-5.566,1.027-1.998,1.545-3.02,1.758-4.101.549-2.795-.295-5.097-.586-5.859-.207-.542-1.271-3.209-4.101-5.273-1.12-.817-3.637-2.356-7.031-2.344-4.418.016-8.572,2.653-10.547,6.445-.477.916-2.668,5.124-.586,8.789,1.44,2.534,4.085,3.334,4.687,3.516,3.866,1.168,7.107-.844,7.617-1.172"/><path class="cls-1" d="m65.638,82.924c-.508-.045-.626,1.789-1.758,3.516-2.244,3.425-6.497,3.413-6.445,4.687.043,1.068,3.017.751,5.273,2.93,3.065,2.96,2.434,8.235,2.93,8.203.236-.016.19-1.205.586-2.93.165-.719.766-3.333,2.344-5.273,2.104-2.587,4.738-2.491,4.687-3.516-.067-1.352-4.63-1.011-6.445-4.101-.975-1.66-.665-3.471-1.172-3.516Z"/><path class="cls-1" d="m98.951,123.468c-1.562.308-2.874-.656-3.52-1.609-.74-1.092-1.089-2.886-.241-4.37,1.023-1.789,3.262-2.207,5.26-2.58,3.561-.665,6.218.263,6.741.454,4.065,1.486,5.865,4.785,6.54,6.071,2.58,4.913,1.544,10.092,1.165,11.861-.949,4.425-3.096,7.544-4.307,9.269-1.14,1.622-3.529,4.954-7.827,7.66-3.996,2.516-7.325,3.032-11.261,3.643-4.283.665-4.68-.07-4.76-.273-.34-.86.846-2.695,2.096-3.029.904-.242,1.134.49,2.366.538,2.081.08,3.926-1.911,4.048-2.046.959-1.06,1.333-2.216,1.711-3.387.59-1.824.415-2.691,1.327-3.744.231-.267.892-1.029,1.625-.979.874.059,1.449,1.243,1.125,1.874-.287.559-1.097.329-1.625.979-.672.826-.445,2.529.298,2.765.979.31,2.636-1.996,2.866-2.315.504-.701,1.609-2.239,1.327-3.744-.127-.675-.404-.658-1.125-1.874-.794-1.339-1.573-2.651-1.068-3.479.436-.714,1.837-1.084,2.808-.71,1.617.622,1.158,2.964,2.664,3.302.708.159,1.519-.199,2.01-.622.897-.772,1.081-2.066.971-4.903-.158-4.071-.237-6.107-.924-7.492-.349-.704-2.028-2.136-5.386-5-.981-.837-2.004-1.682-3.52-1.609-1.174.056-2.389.65-2.423,1.067-.029.356.816.417,2.337,1.34,1.112.675,1.154.942,1.154,1.071,0,.714-1.293,1.641-2.452,1.87Z"/><path class="cls-1" d="m37.208,125.718c1.562.308,2.874-.656,3.52-1.609.74-1.092,1.089-2.886.241-4.37-1.023-1.789-3.262-2.207-5.26-2.58-3.561-.665-6.218.263-6.741.454-4.065,1.486-5.865,4.785-6.54,6.071-2.58,4.913-1.544,10.092-1.165,11.861.949,4.425,3.096,7.544,4.307,9.269,1.14,1.622,3.529,4.954,7.827,7.66,3.996,2.516,7.325,3.032,11.261,3.643,4.283.665,4.68-.07,4.76-.273.34-.86-.846-2.695-2.096-3.029-.904-.242-1.134.49-2.366.538-2.081.08-3.926-1.911-4.048-2.046-.959-1.06-1.333-2.216-1.711-3.387-.59-1.824-.415-2.691-1.327-3.744-.231-.267-.892-1.029-1.625-.979-.874.059-1.449,1.243-1.125,1.874.287.559,1.097.329,1.625.979.672.826.445,2.529-.298,2.765-.979.31-2.636-1.996-2.866-2.315-.504-.701-1.609-2.239-1.327-3.744.127-.675.404-.658,1.125-1.874.794-1.339,1.573-2.651,1.068-3.479-.436-.714-1.837-1.084-2.808-.71-1.617.622-1.158,2.964-2.664,3.302-.708.159-1.519-.199-2.01-.622-.897-.772-1.081-2.066-.971-4.903.158-4.071.237-6.107.924-7.492.349-.704,2.028-2.136,5.386-5,.981-.837,2.004-1.682,3.52-1.609,1.174.056,2.389.65,2.423,1.067.029.356-.816.417-2.337,1.34-1.112.675-1.154.942-1.154,1.071,0,.714,1.293,1.641,2.452,1.87Z"/></svg>