<?xml version="1.0" encoding="UTF-8"?><svg id="Layer_1" xmlns="http://www.w3.org/2000/svg" viewBox="0 0 640 478"><defs><style>.cls-1,.cls-2{fill:#fff;}.cls-2{fill-rule:evenodd;}.cls-3{isolation:isolate;}</style></defs><g id="Royal-Escapes"><g id="Sort"><path id="r" class="cls-1" d="m118.833,240.099v-.76c-1.556,0-2.333-1.141-2.333-3.422v-65.209h10l10.333,61.407c.222,2.281-.444,3.422-2,3.422v.76l11.167-1.901-.333-.76c-1.556,0-2.444-1.141-2.667-3.422l-10.333-60.266c3.556-1.014,6.083-2.788,7.583-5.323s2.194-5.26,2.083-8.175c0-1.901-.278-3.739-.833-5.513s-1.444-3.327-2.667-4.658c-1.222-1.331-2.833-2.376-4.833-3.137-2-.76-4.5-1.141-7.5-1.141h-18.5v.57c1.556,0,2.333,1.204,2.333,3.612v91.635c0,2.281-.778,3.422-2.333,3.422v.76l10.833-1.901Zm6.828-74.099h-9.661v-19h9.661c2.599,0,4.972.576,7.119,1.727,2.147,1.152,3.22,3.774,3.22,7.869,0,1.919-.311,3.519-.932,4.798-.621,1.279-1.412,2.239-2.373,2.879s-2.062,1.088-3.305,1.343c-1.243.256-2.486.384-3.729.384h0Z"/><path id="o" class="cls-1" d="m173.919,229c6.918,0,11.828-3.077,14.729-10.896,2.901-7.819,4.352-18.715,4.352-32.688,0-14.084-1.451-25.008-4.352-32.771-2.901-7.763-7.811-11.645-14.729-11.645-6.807,0-11.632,3.882-14.478,11.645-2.845,7.763-4.324,18.687-4.435,32.771-.112,13.974,1.311,24.87,4.268,32.688s7.839,10.896,14.645,10.896Zm.495-4c-2.287,0-4.22-.944-5.799-2.833-1.579-1.889-2.858-4.583-3.839-8.083s-1.688-7.667-2.123-12.5c-.436-4.833-.653-10.25-.653-16.25,0-12,.953-21.556,2.858-28.667,1.906-7.111,5.091-10.667,9.556-10.667,4.574,0,7.84,3.556,9.801,10.667,1.96,7.111,2.886,16.667,2.777,28.667,0,6-.245,11.417-.735,16.25-.49,4.833-1.225,9-2.205,12.5s-2.26,6.194-3.839,8.083c-1.579,1.889-3.512,2.833-5.799,2.833Z"/><path id="y" class="cls-1" d="m221.734,221.907v-.664c-1.659,0-2.489-.995-2.489-2.986v-51.099l10.452-21.402c.442-.885.968-1.631,1.576-2.24.608-.608,1.355-.912,2.24-.912v-.498h-11.116v.498c1.77,0,2.101,1.051.995,3.152l-7.3,14.932-6.968-14.932c-1.106-2.101-.83-3.152.83-3.152v-.498h-10.95v.498c1.438,0,2.71,1.051,3.816,3.152l10.286,21.402v52.758c0,1.991-.774,2.986-2.323,2.986v.664l10.95-1.659Z"/><path id="a" class="cls-1" d="m250.171,217.348v-.661c-1.643,0-2.355-.991-2.136-2.974l5.914-46.431h16.264l5.914,42.3c0,1.983-.712,2.974-2.136,2.974v.661l11.007-1.652v-.661c-1.752,0-2.629-.991-2.629-2.974l-8.214-62.129c-.11-1.983.548-2.974,1.971-2.974v-.826h-28.093v.826c1.424,0,2.026.991,1.807,2.974l-7.886,69.564c-.219,1.983-1.205,2.974-2.957,2.974v.661l11.171-1.652Zm18.829-55.348h-15l1.63-16h11.739l1.63,16Z"/><path id="l" class="cls-1" d="m322.273,204.487l4.314-6.968-.664-.498c-.885,1.217-1.963,2.046-3.235,2.489-1.272.442-2.682.664-4.231.664l-11.779,1.659v-56.076c0-2.101.774-3.152,2.323-3.152v-.498h-10.784v.498c1.438,0,2.157,1.051,2.157,3.152v56.74c0,1.991-.719,6.304-2.157,6.304v.664l24.056-4.977Z"/><polygon id="E" class="cls-1" points="99.698 322.115 99.224 296.527 63.685 295.579 64.159 277.099 84.061 277.572 84.535 255.775 64.159 254.828 65.581 236.189 97.329 236.189 96.381 210.127 37.149 212.971 37.149 322.619 99.698 322.115"/><path id="S" class="cls-1" d="m136.553,322.619l.428-.596c4.414-.079,8.592-.828,12.533-2.246,3.941-1.419,7.291-3.37,10.05-5.853,2.759-2.483,4.926-5.38,6.503-8.69s2.365-4.414,2.365-8.04c-.079-3.547-.906-6.582-2.483-9.104-1.576-2.522-3.547-4.394-5.912-5.616s-4.986-2.227-7.863-3.015c-2.877-.788-5.596-1.34-8.158-1.655-2.562-.315-4.848-.709-6.858-1.182-2.01-.473-3.33-1.104-3.961-1.892-1.104-1.892-1.379-3.744-.828-5.557.552-1.813,1.636-3.35,3.251-4.611,1.616-1.261,3.054-1.774,4.316-1.537,1.261.236,2.168,1.005,2.719,2.306.552,1.301.749,2.443.591,3.429-.158.985-.197,1.557-.118,1.714l20.927-3.547c.394-5.991-.552-11.075-2.838-15.252-1.791-3.297-3.681-4.906-6.219-6.125-2.378-1.141-5.263-2.014-10.925-1.442-11.705,1.182-17.262,1.182-21.992,4.02-8.744,5.247-12.73,15.055-13.36,26.012-.236,3.547.512,4.887,2.246,7.567,1.734,2.68,4,4.158,6.798,5.616,2.798,1.458,5.813,2.739,9.045,3.843,3.232,1.104,6.227,1.951,8.986,2.542l.39.085c2.579.572,4.676,1.233,6.29,1.984,1.695.788,2.384,1.655,2.069,2.601-.552,1.971-2.581,2.976-6.089,3.015-3.508.039-7.271-.709-11.291-2.246s-7.094-3.33-9.222-5.38l-10.641,17.735c4.966,3.547,10.05,6.207,15.252,7.981,5.202,1.774,10.011,2.621,14.425,2.542l-.428.596Z"/><path id="C" class="cls-1" d="m213.63,322.612c7.968,0,15.149-2.316,21.542-6.949,6.393-4.633,10.516-10.794,12.369-18.485l-26.407-6.671-.417.973c-.278.556-.695,1.32-1.251,2.293-.556.973-1.181,1.923-1.876,2.849-.695.927-1.552,1.76-2.571,2.502-1.019.741-2.038,1.205-3.058,1.39-4.447.463-7.436-3.845-8.964-12.925-1.529-9.08-1.367-12.763.486-22.168,1.853-9.404,4.679-14.246,8.478-14.524,2.038-.093,3.753.301,5.142,1.181,1.39.88,2.34,1.923,2.849,3.127s.88,2.617,1.112,4.239c.232,1.621.324,2.733.278,3.336-.046.602-.116,1.135-.208,1.598l25.017-10.424c-.185-2.502-.927-5.142-2.224-7.922s-3.081-5.582-5.351-8.408c-1.08-1.345-1.995-2.028-2.85-2.643-.943-.677-1.887-1.271-4.568-2.573-5.115-2.483-7.217-1.872-14.054-1.872s-18.342,2.44-22.018,3.161c-1.909,1.169-4.319,2.538-7.516,5.828-3.197,3.289-4.494,5.813-6.671,10.26-2.177,4.447-3.753,9.173-4.725,14.176-.973,5.003-1.413,10.146-1.32,15.427.185,8.432,1.413,10.308,3.683,16.747,2.27,6.44,5.281,11.536,9.034,15.288,3.753,3.753,7.829,6.555,12.23,8.408,4.401,1.853,9.011,2.78,13.829,2.78Z"/><path id="A" class="cls-1" d="m306.315,318.687h32.685l-26.042-102.688-39.518,6.091-21.44,99.909h27.963l2.414-14.816h22.692l1.245,11.504Zm-21.315-31.688l5.806-41h1.935l7.258,40.514-15,.486Z"/><path id="P" class="cls-1" d="m371.723,319v-37.704c11.767-1.543,21.774-6.064,30.022-13.56,8.908-8.269,13.636-17.97,14.186-29.105.66-11.355-3.354-20.341-12.042-26.955-12.976-9.812-32.606-11.3-58.889-4.465v111.79h26.723Zm.125-65l-.356-.004-.491-27.91c6.656-.55,11.321,1.541,13.995,6.276,2.673,4.734,2.673,9.551,0,14.451-2.673,4.899-7.175,7.294-13.504,7.184l.356.004Z"/><polygon id="E-2" class="cls-1" points="487.073 318.868 487.073 290.35 449.733 290.006 449.891 270.59 470.801 270.722 470.899 247.822 449.483 247.2 450.634 227.6 483.977 227.018 482.504 199.665 420.35 203.737 421.819 318.868 487.073 318.868"/><path id="S-2" class="cls-1" d="m535.858,303.54l.601-.007c6.194-.111,12.056-1.161,17.586-3.152,5.53-1.991,10.231-4.728,14.102-8.212s6.913-7.549,9.125-12.194,3.318-9.512,3.318-14.6c-.111-4.977-1.272-9.235-3.484-12.775-2.212-3.539-4.977-6.166-8.295-7.881-3.318-1.714-6.996-3.125-11.033-4.231-4.037-1.106-7.853-1.88-11.448-2.323-3.595-.442-6.802-.995-9.623-1.659-2.82-.664-4.673-1.548-5.558-2.655-1.548-2.655-1.936-5.254-1.161-7.798.774-2.544,2.295-4.701,4.562-6.47,2.267-1.77,4.286-2.489,6.056-2.157s3.042,1.41,3.816,3.235c.774,1.825,1.051,3.429.83,4.811-.221,1.383-.276,2.184-.166,2.406h0l29.365-4.977c.553-8.406-.774-15.54-3.982-21.402-4.867-8.959-12.885-13.881-24.057-14.766-11.06-.774-21.347,2.489-30.859,9.789-11.613,8.959-17.863,21.125-18.747,36.499-.332,4.977.719,9.346,3.152,13.107,2.433,3.761,5.613,6.664,9.54,8.71,3.926,2.046,8.157,3.844,12.692,5.392,4.535,1.548,8.738,2.737,12.609,3.567l.548.119c3.619.803,6.561,1.731,8.826,2.784,2.378,1.106,3.346,2.323,2.903,3.65-.774,2.765-3.622,4.175-8.544,4.231-4.922.055-10.203-.995-15.844-3.152-5.641-2.157-9.954-4.673-12.941-7.549h0l-14.932,24.886c6.968,4.977,14.102,8.71,21.402,11.199s14.047,3.678,20.241,3.567l-.601.007Z"/><path id="Fill-19" class="cls-2" d="m507.945,354.039s3.636-6.158,8.461-6.074c1.8.031,3.235,1.45,3.205,3.169-.03,1.717-1.351,3.085-2.559,3.064,1.225.021,2.48,1.437,2.45,3.155-.03,1.717-1.513,3.084-3.313,3.053-4.825-.084-8.244-6.367-8.244-6.367Zm28.851-3.216c1.652-1.719,2.171-6.224-.594-8.167-2.763-1.94-5.875-.974-6.794,1.047-2.161-3.894.965-8.471,6.908-8.365,1.809,6.801,6.752,10.14,11.608,10.588-5.539,2.277-9.376,8.947-9.376,8.947,0,0,3.603,6.803,9.058,9.272-4.868.275-9.927,3.441-11.97,10.175-5.943-.102-8.908-4.785-6.612-8.601.847,2.053,3.924,3.128,6.753,1.284,2.831-1.843,2.47-6.365.879-8.139-1.589-1.777-6.576-3.03-11.188-.488-1.075.595-1.982,1.509-2.697,2.635l.224-12.817c.676,1.15,1.55,2.095,2.603,2.725,4.52,2.701,9.548,1.623,11.198-.095Zm14.969-31.24c14.066-6.348,17.287,3.673,17.287,3.673,0,0-4.099-1.274-6.333,1.865-1.614,2.269-2.287,6.031,2.166,9.141,1.824,1.275,4.617,1.044,7.11-.352-.641,3.014.074,5.539,1.346,7.494-.266-.019-.53-.048-.8-.053-7.827-.137-14.281,6.057-14.417,13.838-.136,7.779,6.099,14.196,13.926,14.332.27.005.535-.016.802-.026-1.34,1.91-2.142,4.408-1.607,7.442-2.443-1.483-5.225-1.813-7.093-.602-4.559,2.957-4.018,6.738-2.484,9.062,2.124,3.217,6.264,2.085,6.264,2.085,0,0-3.568,9.904-17.405,3.069-9.441-4.667-7.578-15.647-3.863-17.508,1.728,6.487,9.185,4.16,10.132-.158.432-1.964.607-6.263-3.725-8.073,2.196-.484,3.859-2.39,3.9-4.712.048-2.725-1.871-4.967-3.745-5,1.848.032,3.869-2.138,3.917-4.864.041-2.322-1.555-4.283-3.733-4.843,4.392-1.659,4.367-5.963,4.004-7.938-.796-4.349-8.167-6.934-10.12-.515-3.648-1.989-5.126-13.029,4.472-17.359Zm28.16,4.146c-.792.281-1.549.701-2.26,1.252.048-.632.064-1.281.001-1.962-.039-.439-.109-.898-.194-1.36.502,1.05,1.385,1.826,2.453,2.07Zm-8.198,40.275c-4.809-.084-8.641-4.051-8.557-8.861.084-4.809,4.051-8.641,8.861-8.557,4.809.084,8.641,4.051,8.557,8.861s-4.051,8.641-8.861,8.557Zm22.26-29.474c3.056,3.242,4.894,9.399,1.939,12.64-2.306-2.905-5.257-2.573-7.061-.503-1.597,1.83-1.4,7.161,3.008,8.974-4.469,1.656-4.852,6.977-3.32,8.862,1.731,2.131,4.669,2.567,7.075-.259,2.84,3.348.788,9.433-2.379,12.567-3.697,3.662-9.764,5.135-13.214,3.018-2.352-1.44-3.241-5.596-.852-7.465.959,1.355,4.869,2.379,6.124-1.994.709-2.473-.682-4.308-2.741-5.069,2.612-2.478,4.258-5.919,4.325-9.747.067-3.831-1.46-7.324-3.982-9.892,2.084-.689,3.538-2.478,2.916-4.972-1.102-4.413-5.046-3.527-6.051-2.206-2.323-1.951-1.289-6.074,1.112-7.432,3.522-1.992,9.534-.309,13.101,3.478Zm10.326,18.824c.143.003.279-.017.415-.033-1.082,1.363-1.694,2.379-1.694,2.379,0,0,.579,1.037,1.614,2.439-.139-.021-.274-.043-.418-.046-1.081-.019-2.026.513-2.559,1.319-.992-1.635-2.466-3.042-4.446-3.811,2.006-.701,3.527-2.055,4.576-3.654.505.822,1.431,1.388,2.512,1.407Zm-25.521,33.59c-1.077.205-1.986.95-2.524,1.983.1-.46.187-.914.241-1.351.086-.68.093-1.33.067-1.962.693.577,1.434,1.023,2.216,1.33Zm-250.266-31.398l148.196,3.732-.025,1.457c-.045,2.562,1.659,4.692,3.784,4.729.173.003.338-.027.507-.052-.528,1.393-.754,2.81-.674,4.137.337,5.642,4.176,7.462,7.512,7.322,3.29-.135,5.931-3.521,5.623-6.508-.33-3.212-4.281-3.96-5.993-2.777.223-4.512,5.458-5.296,10.107-5.797,4.651-.503,10.845,1.938,12.992,3.578,2.146,1.64,2.682,4.127,1.319,7.455-1.363,3.329-5.722,3.836-7.567,1.472,3.196-.284,3.449-4.274,3.286-5.432-.257-1.85-2.977-3.91-5.831-3.794-5.033.203-6.389,5.975-5.103,9.822,1.47,4.397,6.875,7.746,13.432,5.967,4.79-1.3,6.964-6.785,7.791-9.653.25.049.502.098.762.102,1.445.025,2.763-.642,3.72-1.721.278,2.032.942,4.11,2.079,6.064,2.88,4.947,8.532,5.429,11.378,5.334.617,9.384,7.934,18.95,20.427,19.851,11.711.839,17.23-4.558,19.299-9.814-.009.1-.033.194-.035.296-.044,2.496,1.932,4.554,4.416,4.597,2.482.043,4.53-1.944,4.574-4.44.029-1.654-.843-3.103-2.15-3.912,6.23.476,13.251-3.304,16.415-7.362,4.85-6.221,5.198-12.929,4.655-16.62.292.109.599.181.925.187,1.52.027,2.772-1.161,2.863-2.673,2.197,2.388,5.194,4.672,8.681,4.733,2.749.048,5.015-2.138,5.063-4.884.048-2.748-1.865-5.009-3.734-5.041,1.841.032,3.86-2.156,3.908-4.906.048-2.746-2.14-5.008-4.89-5.056-3.487-.061-6.562,2.117-8.841,4.423-.038-1.51-1.248-2.743-2.768-2.769-.327-.006-.636.058-.931.154.671-3.67.558-10.384-4.072-16.772-3.021-4.163-9.901-8.189-16.145-7.932,1.333-.763,2.253-2.179,2.282-3.833.044-2.494-1.934-4.552-4.416-4.595-2.484-.043-4.53,1.944-4.574,4.438-.002.102.019.199.024.299-1.884-5.326-7.211-10.914-18.944-10.481-12.518.458-20.165,9.767-21.107,19.126-2.841-.194-8.507.091-11.557,4.932-1.205,1.913-1.941,3.968-2.29,5.988-.918-1.112-2.213-1.825-3.657-1.85-.26-.005-.514.037-.765.076-.727-2.893-2.708-8.451-7.45-9.917-6.491-2.009-12.01,1.15-13.632,5.495-1.419,3.798-.266,9.614,4.757,9.993,2.848.215,5.638-1.749,5.96-3.589.203-1.152.09-5.147-3.094-5.544,1.926-2.298,6.265-1.638,7.511,1.737,1.246,3.371.623,5.838-1.578,7.402-2.203,1.566-8.479,3.788-13.109,3.124-4.629-.663-9.833-1.629-9.898-6.148,1.669,1.244,5.644.633,6.086-2.564.412-2.977-2.11-6.45-5.392-6.702-3.329-.255-7.229,1.428-7.763,7.055-.126,1.324.05,2.749.529,4.16-.167-.031-.331-.069-.504-.072-2.126-.037-3.902,2.031-3.947,4.596l-.025,1.455-190.629-4.473c-3.19-.056-5.845,2.522-5.901,5.728-.056,3.204,2.507,5.873,5.698,5.929l8.215.143-.559,32.035-4.057-.071-.142,8.158,12.178.213.702-40.193,4.93.086-.617,35.337,8.119.142.617-35.337,4.93.086-.702,40.193,12.178.213.142-8.158-4.059-.071.559-32.035Z"/><g id="crown-copy"><path id="Fill-1" class="cls-2" d="m246.444,95.837c-1.782,3.797-3.519,7.614-5.205,11.458-.37.83-.737,1.666-1.098,2.501-.448.95-.951,1.883-1.533,2.765-1.079,1.696-2.468,3.155-3.957,4.36-.213.177-4.986,0-7.15,0h-51.108c-.491-1.715-2.794-6.923-3.304-8.627-1.839-6.177-3.788-12.319-5.848-18.428-.409-1.214-.821-2.433-1.24-3.648.531-.107,1.061-.208,1.597-.309.019.007.384,1.325,1.042,3.286,1.958,5.887,6.51,17.558,12.052,16.921,6.516-.614,7.153-14.451,7.039-21.378-.037-2.322-.159-3.866-.173-3.878.736-.04,1.471-.075,2.206-.098,0,.011.05,1.459.223,3.644.549,6.92,2.357,21.246,7.811,20.926,7.059-.231,8.834-20.871,9.223-30.93.125-3.237.106-5.381.074-5.401l1.984.152c-.028.015-.279,2.144-.499,5.374-.69,10.042-1.131,30.773,5.841,32.087,5.447,1.173,8.788-13.15,10.031-19.802.371-1.989.56-3.304.561-3.327.726.141,1.456.288,2.182.44-.029.009-.375,1.358-.765,3.437-1.201,6.456-2.794,19.959,3.549,22.321,6.27,2.516,12.473-9.013,15.125-14.68.838-1.784,1.323-2.985,1.348-2.995.515.182,1.03.364,1.551.551-.522,1.092-1.039,2.182-1.556,3.279Z"/><path id="Fill-3" class="cls-2" d="m230.991,82.787c-.159,2.481-2.297,4.363-4.777,4.204-2.48-.159-4.363-2.298-4.204-4.778.157-2.48,2.297-4.362,4.777-4.203,2.482.159,4.363,2.297,4.204,4.777"/><path id="Fill-3-2" class="cls-2" d="m251.991,91.787c-.159,2.481-2.297,4.363-4.777,4.204s-4.363-2.298-4.204-4.778c.157-2.48,2.297-4.362,4.777-4.203,2.482.159,4.363,2.297,4.204,4.777"/><path id="Fill-8" class="cls-2" d="m191.991,77.787c-.159,2.481-2.298,4.363-4.777,4.204-2.48-.159-4.363-2.298-4.204-4.778.157-2.48,2.297-4.362,4.777-4.203,2.48.159,4.363,2.297,4.204,4.777"/><path id="Fill-10" class="cls-2" d="m169.991,82.787c-.159,2.481-2.298,4.363-4.777,4.204-2.48-.159-4.362-2.298-4.205-4.778.159-2.48,2.298-4.362,4.778-4.203,2.48.159,4.362,2.298,4.203,4.777"/><path id="Fill-12" class="cls-2" d="m215.982,65.042c-.299,4.685-4.34,8.239-9.024,7.94-4.686-.3-8.241-4.34-7.941-9.025.3-4.685,4.34-8.24,9.024-7.94,4.686.3,8.239,4.34,7.941,9.025"/></g></g><g id="copenhagen" class="cls-3"><g class="cls-3"><path class="cls-1" d="m46.036,343.82c-2.076,0-3.715,1.049-4.917,3.146-1.202,2.098-1.803,4.969-1.803,8.614,0,3.75.58,6.646,1.738,8.691,1.158,2.045,2.81,3.067,4.955,3.067,1.318,0,2.821-.359,4.51-1.078v2.92c-1.31.745-2.925,1.117-4.846,1.117-2.782,0-4.93-1.28-6.441-3.841s-2.268-6.2-2.268-10.917c0-2.952.364-5.539,1.092-7.761.728-2.221,1.779-3.933,3.153-5.135s2.991-1.803,4.852-1.803c1.981,0,3.713.549,5.194,1.646l-.93,2.862c-1.43-1.02-2.86-1.529-4.29-1.529Z"/><path class="cls-1" d="m72.15,355.539c0,4.587-.765,8.192-2.293,10.819-1.529,2.626-3.655,3.938-6.377,3.938-2.782,0-4.93-1.29-6.441-3.87s-2.268-6.223-2.268-10.927c0-4.664.758-8.28,2.274-10.848s3.67-3.851,6.461-3.851c2.713,0,4.833,1.307,6.357,3.919,1.525,2.613,2.287,6.22,2.287,10.818Zm-15.054,0c0,3.881.545,6.824,1.635,8.83,1.09,2.005,2.672,3.008,4.749,3.008,2.093,0,3.674-.999,4.742-2.998,1.068-2,1.603-4.945,1.603-8.84,0-3.854-.532-6.777-1.596-8.77-1.064-1.993-2.639-2.989-4.723-2.989s-3.685,1.003-4.774,3.009-1.635,4.922-1.635,8.75Z"/><path class="cls-1" d="m89.453,349.601c0,2.901-.653,5.132-1.958,6.693-1.305,1.562-3.172,2.342-5.602,2.342h-2.223v11.27h-2.197v-28.653h4.897c4.721,0,7.081,2.783,7.081,8.349Zm-9.782,6.174h1.977c1.947,0,3.355-.477,4.225-1.431.87-.953,1.305-2.482,1.305-4.586,0-1.895-.409-3.306-1.228-4.233s-2.093-1.392-3.825-1.392h-2.455v11.642Z"/><path class="cls-1" d="m105.049,369.906h-10.531v-28.653h10.531v2.96h-8.334v9.23h7.831v2.939h-7.831v10.545h8.334v2.979Z"/><path class="cls-1" d="m125.104,369.906h-2.507l-10.324-24.048h-.104c.138,2.822.207,5.409.207,7.762v16.286h-2.029v-28.653h2.481l10.298,23.949h.104c-.017-.353-.056-1.485-.116-3.4-.061-1.913-.082-3.282-.064-4.105v-16.443h2.054v28.653Z"/><path class="cls-1" d="m145.753,369.906h-2.197v-13.483h-9.95v13.483h-2.197v-28.653h2.197v12.19h9.95v-12.19h2.197v28.653Z"/><path class="cls-1" d="m163.92,369.906l-2.352-9.113h-7.572l-2.326,9.113h-2.223l7.469-28.771h1.848l7.43,28.771h-2.274Zm-3.037-12.112l-2.197-8.878c-.284-1.123-.577-2.502-.878-4.135-.189,1.254-.461,2.633-.814,4.135l-2.223,8.878h6.112Z"/><path class="cls-1" d="m178.212,354.893h6.422v13.935c-.999.483-2.016.85-3.049,1.098s-2.231.372-3.592.372c-2.86,0-5.087-1.29-6.68-3.87-1.594-2.58-2.391-6.196-2.391-10.848,0-2.979.394-5.589,1.182-7.83.789-2.24,1.923-3.952,3.405-5.135,1.482-1.183,3.218-1.773,5.208-1.773,2.016,0,3.894.562,5.634,1.686l-.853,2.939c-1.706-1.098-3.347-1.646-4.923-1.646-2.3,0-4.096,1.039-5.388,3.116s-1.938,4.959-1.938,8.644c0,3.867.623,6.8,1.867,8.8,1.245,1.999,3.073,2.998,5.485,2.998,1.309,0,2.588-.229,3.838-.686v-8.819h-4.226v-2.979Z"/><path class="cls-1" d="m200.812,369.906h-10.531v-28.653h10.531v2.96h-8.334v9.23h7.831v2.939h-7.831v10.545h8.334v2.979Z"/><path class="cls-1" d="m220.866,369.906h-2.507l-10.324-24.048h-.104c.138,2.822.207,5.409.207,7.762v16.286h-2.029v-28.653h2.481l10.298,23.949h.104c-.017-.353-.056-1.485-.116-3.4-.061-1.913-.082-3.282-.064-4.105v-16.443h2.054v28.653Z"/></g></g></g></svg>