<?xml version="1.0" encoding="UTF-8"?><svg id="Layer_2" xmlns="http://www.w3.org/2000/svg" viewBox="0 0 245 334"><defs><style>.cls-1{fill:#f09787;}.cls-2{fill:#d2573f;}.cls-3{fill:#1a1a1a;}.cls-4{fill:#3d3d3d;}.cls-5{fill:none;stroke:#d2573f;stroke-miterlimit:10;stroke-width:20px;}</style></defs><path class="cls-2" d="m.0963,126.9636c0-7.6232,6.1799-13.8029,13.8031-13.8029h217.2012c7.6232,0,13.8031,6.1799,13.8031,13.8031v189.8623c0,7.6232-6.1799,13.8031-13.8031,13.8031H13.8994c-7.6232,0-13.8031-6.1799-13.8031-13.8031V126.9636"/><path class="cls-3" d="m127.4707,238.0497c2.7214-4.3433,6.8845-3.3876,8.6987-7.4561,2.3658-5.305-.9812-15.2959-8.6987-17.3975-4.5526-1.2396-9.3893.6031-12.4268,3.728-.5255.5403-4.5297,4.7823-3.728,9.9414.8003,5.1506,5.5295,5.674,7.4561,11.1841,1.1723,3.353.2773,5.6084-1.2427,12.4268-3.0715,13.7796-1.1853,12.5041-3.728,22.3682-3.4363,13.3309-7.5348,18.1966-4.9707,21.1255,1.2533,1.4317,2.6994.8028,11.1841,1.2427,10.6938.5543,13.3121,1.8079,14.9121,0,1.8755-2.1192-.2403-5.5156-2.4854-13.6694-2.4847-9.0243-.6584-7.6433-3.728-24.8535-2.1565-12.0906-3.4702-15.0851-1.2427-18.6402Z"/><path class="cls-4" d="m102.2513,220.3619c-.1559-.6367-4.7696.5488-10.8319.5792-2.9677.015-11.2206-.0209-19.0521-3.7736-8.6993-4.1686-12.0392-10.6046-13.9258-9.4792-1.8592,1.1091,2.3334,6.7942.0954,13.7332-2.1461,6.654-8.4436,8.9991-7.3513,11.895.5277,1.3988,2.0941,1.1085,6.5761,3.4823,1.7322.9173,4.7032,2.4908,6.9629,4.7396,4.7834,4.7604,4.4044,10.5817,5.9952,10.5423,1.2845-.0318,1.4655-3.8254,3.9661-9.4775,1.0165-2.2975,2.8804-6.5105,6.4808-10.2509,3.4616-3.5963,7.2338-5.4109,12.6702-8.026,5.1757-2.4897,8.5479-3.4189,8.4144-3.9644Z"/><path class="cls-3" d="m98.564,204.4508c.2955-.2404-1.4761-2.3674-3.002-5.5427-.747-1.5543-2.7838-5.8962-2.7641-10.9426.0218-5.6055,2.569-8.9621,1.5082-9.6723-1.0454-.6998-2.9859,2.9173-7.1864,3.4707-4.028.5306-6.8278-2.1916-8.0761-.8969-.603.6255-.0604,1.3755-.1903,4.3199-.0502,1.1379-.1363,3.0897-.7541,4.8361-1.3079,3.6971-4.4585,4.948-4.0416,5.7734.3366.6665,2.3734-.1834,5.9637-.2783,1.4594-.0386,4.1355-.1093,6.9961.8493,2.7503.9216,4.6426,2.4502,7.3696,4.653,2.5963,2.0972,3.9241,3.6362,4.1772,3.4303Z"/><path class="cls-3" d="m145.7763,201.5001c.2284.3048,2.4247-1.3801,5.6585-2.7776,1.583-.6842,6.003-2.5454,11.0445-2.3236,5.6002.2463,8.852,2.9259,9.6041,1.8944.7412-1.0165-2.7954-3.1003-3.18-7.3197-.3688-4.046,2.4633-6.7345,1.2196-8.0337-.6008-.6275-1.372-.1155-4.3088-.3632-1.135-.0957-3.0817-.2599-4.8021-.9472-3.6417-1.4549-4.7655-4.6531-5.6069-4.2696-.6794.3097.0882,2.3789.0392,5.9701-.0199,1.4598-.0564,4.1366-1.1288,6.9565-1.0311,2.7112-2.6341,4.5407-4.9444,7.1773-2.1995,2.5102-3.7905,3.7753-3.5948,4.0365Z"/><path class="cls-1" d="m103.8598,315.0957c3.1288-1.3483,5.7037-5.2462,4.9707-8.6987-.9369-4.4131-6.9439-6.5271-11.1841-6.2134-4.1241.3049-4.5036,2.7532-12.4268,6.2134-4.3301,1.891-6.7451,2.9086-9.9414,2.4854-5.1496-.6817-8.3846-4.5806-8.6987-4.9707-3.95-4.9027-1.3031-8.9727-4.9707-12.4268-3.0847-2.9049-8.6775-3.5296-11.1841-1.2427-1.6609,1.5151-2.0382,4.3736-1.2427,4.9707.7638.5731,2.1451-1.2864,4.9707-1.2427.5924.0091,2.2716.1177,3.728,1.2427,1.6824,1.2994,2.0997,3.2074,2.4854,4.9707.3292,1.5048.8472,3.8734,0,6.2134-.5572,1.5391-1.6824,3.0038-7.4561,6.2134-5.8466,3.2499-8.7697,4.8748-11.1841,4.9707-4.4069.1748-7.5936-1.8698-12.4268-4.9707-3.0785-1.9751-4.2694-3.3864-4.9707-4.9707-.4091-.9241-1.8833-4.2538,0-6.2134,1.6712-1.7387,5.0634-1.4381,6.2134,0,.8621,1.0779.0954,2.334,1.2427,3.728.0501.061,1.2107,1.4353,2.4854,1.2427,1.6122-.2436,2.6818-2.8849,2.4854-4.9707-.2838-3.0132-3.1907-4.6652-3.728-4.9707-3.8266-2.175-8.0093-.321-8.6987,0-.77.3586-3.7899,1.7648-4.9707,4.9707-1.0684,2.9007-.0038,5.5717,1.2427,8.6987,1.4045,3.5239,3.3347,5.765,3.728,6.2134,1.1838,1.3501,4.5981,5.2432,9.9414,6.2134,1.4766.2682,4.2982-.2354,9.9414-1.2427,6.8692-1.226,8.838-2.0039,9.9414-2.4854,2.7557-1.2023,4.4703-1.9505,6.2134-3.728,1.9189-1.9569,2.2194-3.4753,3.728-3.728,1.7618-.2952,2.5315,1.5779,4.9707,2.4854,1.5195.5652,2.9585.4845,8.6987-1.2427,5.8255-1.753,11.1839-3.728,11.1841-3.728.618-.2278,4.041-1.4924,8.6987-2.4854,3.2866-.7008,4.3773-.6672,4.9707,0,1.0593,1.1908.3343,4.174-1.2427,4.9707-1.4628.7387-3.0348-.719-3.728,0-.6432.6668-.0789,2.7399,1.2427,3.728,1.8173,1.3589,4.4654.2178,4.9707,0Z"/><path class="cls-1" d="m143.8474,314.8757c-3.1288-1.3483-5.7037-5.2462-4.9707-8.6987.9369-4.4131,6.9439-6.5271,11.1841-6.2134,4.1241.3049,4.5036,2.7532,12.4268,6.2134,4.3301,1.891,6.7451,2.9086,9.9414,2.4854,5.1496-.6817,8.3846-4.5806,8.6987-4.9707,3.95-4.9027,1.3031-8.9727,4.9707-12.4268,3.0847-2.9049,8.6775-3.5296,11.1841-1.2427,1.6609,1.5151,2.0382,4.3736,1.2427,4.9707-.7638.5731-2.1451-1.2864-4.9707-1.2427-.5924.0091-2.2716.1177-3.728,1.2427-1.6824,1.2994-2.0997,3.2074-2.4854,4.9707-.3292,1.5048-.8472,3.8734,0,6.2134.5572,1.5391,1.6824,3.0038,7.4561,6.2134,5.8466,3.2499,8.7697,4.8748,11.1841,4.9707,4.4069.1748,7.5936-1.8698,12.4268-4.9707,3.0785-1.9751,4.2694-3.3864,4.9707-4.9707.4091-.9241,1.8833-4.2538,0-6.2134-1.6712-1.7387-5.0634-1.4381-6.2134,0-.8621,1.0779-.0954,2.334-1.2427,3.728-.0501.061-1.2107,1.4353-2.4854,1.2427-1.6122-.2436-2.6818-2.8849-2.4854-4.9707.2838-3.0132,3.1907-4.6652,3.728-4.9707,3.8266-2.175,8.0093-.321,8.6987,0,.77.3586,3.7899,1.7648,4.9707,4.9707,1.0684,2.9007.0038,5.5717-1.2427,8.6987-1.4045,3.5239-3.3347,5.765-3.728,6.2134-1.1838,1.3501-4.5981,5.2432-9.9414,6.2134-1.4766.2682-4.2982-.2354-9.9414-1.2427-6.8692-1.226-8.838-2.0039-9.9414-2.4854-2.7557-1.2023-4.4703-1.9505-6.2134-3.728-1.9189-1.9569-2.2194-3.4753-3.728-3.728-1.7618-.2952-2.5315,1.5779-4.9707,2.4854-1.5195.5652-2.9585.4845-8.6987-1.2427-5.8255-1.753-11.1839-3.728-11.1841-3.728-.618-.2278-4.041-1.4924-8.6987-2.4854-3.2866-.7008-4.3773-.6672-4.9707,0-1.0593,1.1908-.3343,4.174,1.2427,4.9707,1.4628.7387,3.0348-.719,3.728,0,.6432.6668.0789,2.7399-1.2427,3.728-1.8173,1.3589-4.4654.2178-4.9707,0Z"/><path class="cls-1" d="m217.6295,229.6107c-.2782-2.3312.6476-3.1217,0-4.2354-.8597-1.4784-3.6854-2.1394-5.2942-1.0588-1.8914,1.2703-1.3696,4.4561-1.0588,6.3531.2306,1.4081.6888,4.2049,3.1765,6.3531.293.2531,3.4893,2.9273,7.4119,2.1177,2.8742-.5933,4.4701-2.7128,6.3531-5.2942,2.2042-3.0217,5.9398-8.1432,5.2942-14.8238-.5009-5.1818-3.4275-9.1294-5.2942-11.6473-1.9022-2.5657-3.7392-4.178-6.3531-8.4708-2.6494-4.3512-2.5685-5.6613-2.1177-6.3531.6092-.9348,1.884-.7259,5.2942-1.0588,4.996-.4878,7.4941-.7316,8.4708-2.1177,1.5613-2.2157-.2115-7.0035-3.1765-9.5296-2.3745-2.0231-3.7021-1.0521-6.3531-3.1765-.452-.3622-4.5355-3.7362-4.2354-8.4708.1904-3.0031,2.0515-5.091,3.1765-6.3531,2.7811-3.1202,4.6874-2.6091,7.4119-5.2942,2.5354-2.4985,3.354-5.3744,4.2354-8.4708,1.0007-3.5157,2.3992-8.4291,0-12.7061-.7698-1.3724-1.925-2.3268-4.2354-4.2354-3.287-2.7156-6.2856-5.1929-10.5885-6.3531-2.9322-.7908-8.641-2.3302-11.6473,1.0588-2.7249,3.0716-2.1267,8.949,1.0588,11.6473,2.5884,2.1927,6.8132,2.2252,7.4119,1.0588.7049-1.3734-3.1694-5.2844-3.1765-5.2942-.1361-.3653-1.1613-3.2016,0-4.2354.9582-.8528,2.8758-.0075,5.2942,1.0588,1.3809.6088,3.8545,1.7281,6.3531,4.2354,1.034,1.0376,2.252,2.2599,3.1765,4.2354.171.3655,1.6342,3.5948,1.0588,7.4119-.8431,5.5938-5.522,8.8544-9.5296,11.6473-3.3455,2.3315-6.3703,4.4393-10.5885,4.2354-.9808-.0473-4.7174-.35-7.4119-3.1765-.6542-.6861-2.9864-3.1326-2.1177-5.2942.4742-1.1801,1.8553-2.1572,3.1765-2.1177,1.9616.0587,2.6003,2.3227,4.2354,2.1177,1.013-.1269,1.9256-1.1408,2.1177-2.1177.449-2.2834-3.011-4.5073-4.2354-5.2942-1.9163-1.2315-3.8048-1.0084-6.3531,0-3.0765,1.2176-3.4631,3.2954-6.3531,4.2354-2.1311.6931-5.2049-.7078-6.3531-3.1765-1.0441-2.2449-.2602-4.8659,1.0588-6.3531,1.809-2.0394,3.9253-1.1579,5.2942-3.1765.9823-1.4487,1.1341-3.7336,0-5.2942-1.6601-2.2847-5.5514-2.2953-6.3531-1.0588-.8511,1.3127,2.0213,3.6594,1.0588,5.2942-.7252,1.232-3.0727,1.1162-4.2354,1.0588-1.8837-.0928-2.2457,3.6002-6.3531,2.1177-2.964-1.07-3.8879-5.4245-4.2354-6.3531-.3843-1.0268.17-2.4194,1.0588-3.1765,1.6056-1.3675,3.7924-.2265,4.2354-1.0588.5033-.9459-1.5143-3.9327-4.2354-4.2354-2.221-.2469-4.3778,1.3533-5.2942,3.1765-1.4029,2.7914.8277,4.6609,0,8.4708-.472,2.1728-1.7266,3.5661-4.2354,6.3531-2.5759,2.8612-6.6016,7.3331-9.5296,6.3531-2.1245-.7112-1.91-3.7034-4.2354-4.2354-1.6679-.3816-3.7865.698-4.2354,2.1177-.7221,2.2842,2.9704,5.158,5.2942,6.3531,1.0891.5602,4.3034,2.2131,7.4119,1.0588,2.3165-.8601,2.0386-2.3377,5.2942-4.2354,1.6371-.9544,1.6912-.571,5.2942-2.1177,4.0137-1.7227,4.1742-2.2958,5.2942-2.1177,1.6902.2688,2.8915,1.944,5.2942,5.2942,1.6317,2.2751,1.201,2.1637,2.1177,3.1765,2.5552,2.8234,6.0935,3.9016,7.4119,4.2354,1.8251.462,2.5463.2942,4.2354,1.0588,1.2619.5713,2.0192,1.1912,3.1765,2.1177,4.1836,3.3495,6.298,5.0295,7.4119,5.2942,1.371.3257,2.6832.2169,5.2942,0,2.6257-.2179,3.5777-.6238,4.2354,0,.9601.9107-.2471,2.5556,0,5.2942.31,3.4348,2.6606,5.8482,3.1765,6.3531,2.101,2.0551,3.3845,1.413,7.4119,4.2354,1.1695.8195,3.4814,2.4398,3.1765,3.1765-.1943.4694-1.3555.348-5.2942,0-5.9985-.5299-6.6859-.5462-7.4119,0-1.0333.7776-1.3948,2.636-2.1177,6.3531-.5942,3.0553,2.7981,3.6302,2.1177,4.2354-1.5628,1.39-6.9871-.6582-10.5885,0-3.7291.6814-5.9789,3.7287-6.3531,4.2354-1.9644,2.6606-2.025,5.3782-2.1177,9.5296-.0676,3.03-.0804,4.6759,1.0588,6.3531,1.7008,2.5039,4.5889,3.0444,5.2942,3.1765,2.0904.3914,6.3443.4123,7.4119-2.1177.8536-2.0226-.5952-5.045-2.1177-5.2942-1.4438-.2363-2.1569,2.1521-4.2354,2.1177-1.8512-.0305-3.076-1.9546-3.1765-2.1177-1.42-2.301-.147-4.9954,0-5.2942,1.4454-2.9392,4.9778-3.7067,7.4119-4.2354,1.9274-.4188,6.5292-1.4184,10.5885,1.0588,1.2911.7879,2.6431,2.6536,5.2942,6.3531,3.2921,4.5937,4.9381,6.8905,5.2942,8.4708,1.3705,6.0819-2.6842,11.0618-3.1765,11.6473-.4994.594-3.2965,3.9205-5.2942,3.1765-1.6873-.6284-2.0765-3.89-2.1177-4.2354Z"/><path class="cls-1" d="m25.1542,231.4923c.2797-2.3441-.6511-3.139,0-4.2588.8644-1.4866,3.7058-2.1512,5.3235-1.0647,1.9018,1.2773,1.3771,4.4808,1.0647,6.3882-.2319,1.4159-.6926,4.2281-3.1941,6.3882-.2946.2545-3.5086,2.9435-7.4529,2.1294-2.8901-.5966-4.4948-2.7278-6.3882-5.3235-2.2164-3.0384-5.9727-8.1883-5.3235-14.9058.5036-5.2104,3.4465-9.1799,5.3235-11.7117,1.9127-2.5799,3.7599-4.2011,6.3882-8.5176,2.6641-4.3753,2.5827-5.6926,2.1294-6.3882-.6125-.9399-1.8944-.7299-5.3235-1.0647-5.0237-.4905-7.5356-.7356-8.5176-2.1294-1.5699-2.2279.2126-7.0422,3.1941-9.5823,2.3876-2.0343,3.7226-1.0579,6.3882-3.1941.4545-.3642,4.5606-3.7569,4.2588-8.5176-.1914-3.0197-2.0629-5.1192-3.1941-6.3882-2.7965-3.1374-4.7133-2.6235-7.4529-5.3235-2.5495-2.5123-3.3725-5.4041-4.2588-8.5176-1.0062-3.5351-2.4125-8.4758,0-12.7764.7741-1.38,1.9356-2.3397,4.2588-4.2588,3.3052-2.7306,6.3204-5.2216,10.647-6.3882,2.9485-.7951,8.6888-2.3431,11.7117,1.0647,2.74,3.0886,2.1385,8.9985-1.0647,11.7117-2.6027,2.2048-6.8509,2.2375-7.4529,1.0647-.7088-1.381,3.187-5.3136,3.1941-5.3235.1369-.3673,1.1678-3.2193,0-4.2588-.9635-.8575-2.8917-.0075-5.3235,1.0647-1.3886.6122-3.8758,1.7377-6.3882,4.2588-1.0397,1.0434-2.2644,2.2724-3.1941,4.2588-.1719.3676-1.6432,3.6147-1.0647,7.4529.8478,5.6248,5.5525,8.9034,9.5823,11.7117,3.364,2.3444,6.4055,4.4639,10.647,4.2588.9862-.0476,4.7435-.352,7.4529-3.1941.6578-.6899,3.0029-3.1499,2.1294-5.3235-.4769-1.1866-1.8656-2.1692-3.1941-2.1294-1.9724.059-2.6147,2.3355-4.2588,2.1294-1.0186-.1276-1.9363-1.1471-2.1294-2.1294-.4515-2.296,3.0276-4.5323,4.2588-5.3235,1.9269-1.2383,3.8259-1.014,6.3882,0,3.0935,1.2243,3.4822,3.3137,6.3882,4.2588,2.1429.6969,5.2337-.7117,6.3882-3.1941,1.0499-2.2573.2616-4.8928-1.0647-6.3882-1.819-2.0506-3.947-1.1643-5.3235-3.1941-.9878-1.4567-1.1403-3.7543,0-5.3235,1.6693-2.2973,5.5821-2.308,6.3882-1.0647.8558,1.32-2.0324,3.6797-1.0647,5.3235.7293,1.2389,3.0897,1.1224,4.2588,1.0647,1.8942-.0933,2.2581,3.6201,6.3882,2.1294,2.9804-1.0759,3.9094-5.4545,4.2588-6.3882.3864-1.0325-.1709-2.4327-1.0647-3.1941-1.6145-1.3751-3.8134-.2277-4.2588-1.0647-.5061-.9511,1.5227-3.9544,4.2588-4.2588,2.2332-.2482,4.402,1.3608,5.3235,3.1941,1.4107,2.8068-.8323,4.6867,0,8.5176.4746,2.1848,1.7361,3.5858,4.2588,6.3882,2.5901,2.877,6.6381,7.3736,9.5823,6.3882,2.1363-.7151,1.9205-3.7239,4.2588-4.2588,1.6771-.3837,3.8074.7018,4.2588,2.1294.7261,2.2968-2.9868,5.1865-5.3235,6.3882-1.0951.5633-4.3272,2.2253-7.4529,1.0647-2.3293-.8648-2.0499-2.3506-5.3235-4.2588-1.6462-.9597-1.7005-.5742-5.3235-2.1294-4.0359-1.7322-4.1973-2.3085-5.3235-2.1294-1.6996.2703-2.9075,1.9547-5.3235,5.3235-1.6407,2.2877-1.2077,2.1757-2.1294,3.1941-2.5693,2.839-6.1272,3.9232-7.4529,4.2588-1.8352.4645-2.5604.2958-4.2588,1.0647-1.2689.5745-2.0304,1.1978-3.1941,2.1294-4.2067,3.368-6.3328,5.0573-7.4529,5.3235-1.3786.3275-2.698.2181-5.3235,0-2.6402-.2191-3.5975-.6272-4.2588,0-.9654.9158.2485,2.5697,0,5.3235-.3117,3.4538-2.6753,5.8805-3.1941,6.3882-2.1126,2.0665-3.4032,1.4208-7.4529,4.2588-1.176.824-3.5007,2.4533-3.1941,3.1941.1953.472,1.363.3499,5.3235,0,6.0317-.5329,6.7229-.5492,7.4529,0,1.039.7819,1.4025,2.6506,2.1294,6.3882.5975,3.0722-2.8136,3.6503-2.1294,4.2588,1.5714,1.3977,7.0257-.6618,10.647,0,3.7497.6852,6.0119,3.7493,6.3882,4.2588,1.9753,2.6753,2.0362,5.408,2.1294,9.5823.068,3.0467.0808,4.7017-1.0647,6.3882-1.7103,2.5177-4.6143,3.0613-5.3235,3.1941-2.102.3935-6.3794.4146-7.4529-2.1294-.8583-2.0337.5985-5.0729,2.1294-5.3235,1.4517-.2376,2.1688,2.164,4.2588,2.1294,1.8614-.0307,3.093-1.9654,3.1941-2.1294,1.4278-2.3137.1478-5.023,0-5.3235-1.4534-2.9555-5.0053-3.7272-7.4529-4.2588-1.9381-.4211-6.5654-1.4263-10.647,1.0647-1.2983.7923-2.6577,2.6683-5.3235,6.3882-3.3103,4.6191-4.9654,6.9286-5.3235,8.5176-1.3781,6.1155,2.6991,11.123,3.1941,11.7117.5022.5973,3.3147,3.9422,5.3235,3.1941,1.6966-.6319,2.0879-3.9115,2.1294-4.2588Z"/><path class="cls-4" d="m145.0071,215.3487c-.2844.5906,4.0307,2.6083,8.7299,6.4385,2.3004,1.875,8.6484,7.1489,12.3084,15.0242,4.0655,8.7479,2.5524,15.8394,4.7242,16.1699,2.1402.3257,2.5177-6.7281,8.6564-10.662,5.8865-3.7723,12.2387-1.5794,13.2363-4.5092.4818-1.4153-.9118-2.1869-2.8628-6.8685-.754-1.8093-2.0473-4.9125-2.3621-8.0849-.6664-6.7155,3.3266-10.9683,2.0736-11.9492-1.0118-.792-3.5631,2.0214-9.0864,4.7949-2.2452,1.1273-6.3621,3.1947-11.5192,3.7935-4.9583.5757-9.0238-.4215-14.8827-1.8586-5.578-1.3682-8.7719-2.7945-9.0156-2.2886Z"/><path class="cls-4" d="m124.5862,197.2646c.6553.0135.6992-4.7499,2.2323-10.6152.7505-2.8712,2.9124-10.8361,8.5569-17.4356,6.27-7.3308,13.3495-8.899,12.7484-11.0119-.5924-2.0822-7.1661.5033-13.2938-3.4477-5.876-3.7887-6.5187-10.4779-9.5982-10.1689-1.4876.1493-1.6108,1.7376-5.0597,5.4564-1.3328,1.4372-3.6189,3.9023-6.3742,5.5059-5.8325,3.3948-11.3594,1.5281-11.7314,3.0753-.3003,1.2493,3.3184,2.402,8.1349,6.275,1.9578,1.5743,5.548,4.4612,8.2341,8.904,2.5826,4.2716,3.3635,8.3841,4.4889,14.3108,1.0715,5.6426,1.1001,9.1403,1.6616,9.1519Z"/><path class="cls-5" d="m29.1941,187.9968c-12.2157-21.2864-18.6632-45.8375-17.7285-70.4088.8643-22.7198,8.095-45.257,21.7173-63.5677,13.6582-18.3591,33.4504-31.7347,55.6203-37.4457,21.9665-5.6587,45.394-3.6198,66.4699,4.5261,22.3714,8.6467,41.8826,23.946,56.2221,43.1111,1.879,2.5113,3.6705,5.0878,5.3721,7.7225"/></svg>